/* XPM */
static char *result[] = {
/* columns rows colors chars-per-pixel */
"50 50 17 1 ",
"  c #966730",
". c #9F713C",
"X c #B08554",
"o c #B99061",
"O c #C29A6D",
"+ c #C69F73",
"@ c #CBA479",
"# c #CFA97F",
"$ c #D0A97F",
"% c #D4AE85",
"& c #D4AF85",
"* c #D4AE86",
"= c #D4AF86",
"- c #D8B48B",
"; c #D8B48C",
": c #D9B48C",
"> c #DDB992",
/* pixels */
"%%%%%%%%%%%%%%%->>>>%%%%%%%%%%%%%%%%->>>>%%%%%%%%%",
"               O>>>>                O>>>=         ",
"               O>>>>                O>>>=         ",
"               O>>>>                O>>>=         ",
"               O>>>>                O>>>=         ",
"               O>>>>                O>>>=         ",
"               O>>>>                O>>>=         ",
"               O>>>>                O>>>=         ",
"               O>>>>                O>>>=         ",
"               O>>>>                O>>>=         ",
"               O>>>>                O>>>=         ",
"%%%%%%%%%%%%%%%;>>>>%%%%%%%%%%%%%%%%;>>>>%%%%%%%%%",
">>>>>>>>>>>>>>>>>>>>>>>>>>>>>>>>>>>>>>>>>>>>>>>>>>",
"ooooooooo;>>>&oooooooooooooooo*>>>$ooooooooooooooo",
"         *>>>@                @>>>O               ",
"         *>>>@                @>>>O               ",
"         *>>>@                @>>>O               ",
"         *>>>@                @>>>O               ",
"         *>>>@                @>>>O               ",
"         *>>>@                @>>>O               ",
"         *>>>@                @>>>O               ",
"         *>>>@                @>>>O               ",
"         *>>>@                @>>>O               ",
"XXXXXXXXX;>>>&XXXXXXXXXXXXXXXX#>>>@XXXXXXXXXXXXXXX",
">>>>>>>>>>>>>>>>>>>>>>>>>>>>>>>>>>>>>>>>>>>>>>>>>>",
">>>>>>>>>>>>>>>>>>>>>>>>>>>>>>>>>>>>>>>>>>>>>>>>>>",
"...............+>>>>................+>>>=.........",
"               O>>>>                O>>>=         ",
"               O>>>>                O>>>=         ",
"               O>>>>                O>>>=         ",
"               O>>>>                O>>>=         ",
"               O>>>>                O>>>=         ",
"               O>>>>                O>>>=         ",
"               O>>>>                O>>>=         ",
"               O>>>>                O>>>=         ",
"               O>>>>                O>>>=         ",
"OOOOOOOOOOOOOOO*>>>>OOOOOOOOOOOOOOOO*>>>:OOOOOOOOO",
">>>>>>>>>>>>>>>>>>>>>>>>>>>>>>>>>>>>>>>>>>>>>>>>>>",
"%%%%%%%%%>>>>-%%%%%%%%%%%%%%%%>>>>-%%%%%%%%%%%%%%%",
"         *>>>@                @>>>O               ",
"         *>>>@                @>>>O               ",
"         *>>>@                @>>>O               ",
"         *>>>@                @>>>O               ",
"         *>>>@                @>>>O               ",
"         *>>>@                @>>>O               ",
"         *>>>@                @>>>O               ",
"         *>>>@                @>>>O               ",
"         *>>>@                @>>>O               ",
"         *>>>@                @>>>O               ",
"%%%%%%%%%>>>>>%%%%%%%%%%%%%%%%;>>>;%%%%%%%%%%%%%%%"
};
