/* XPM */
static char *result[] = {
/* columns rows colors chars-per-pixel */
"50 50 36 1 ",
"  c #966730",
". c #9A6C36",
"X c #9E713C",
"o c #9F713C",
"O c #9F723C",
"+ c #A37642",
"@ c #A77B48",
"# c #A87B48",
"$ c #AC804E",
"% c #AC814E",
"& c #AC804F",
"* c #AC814F",
"= c #B08555",
"- c #B18654",
"; c #B08655",
": c #B58B5A",
"> c #B58B5B",
", c #B99061",
"< c #BA9061",
"1 c #BE9566",
"2 c #BE9467",
"3 c #BE9567",
"4 c #C29A6D",
"5 c #C39A6D",
"6 c #C79F73",
"7 c #C7A073",
"8 c #CBA479",
"9 c #D0A97F",
"0 c #CFAA80",
"q c #D4AE85",
"w c #D4AF85",
"e c #D4AE86",
"r c #D4AF86",
"t c #D8B48C",
"y c #D9B48C",
"u c #DDB992",
/* pixels */
"uuuuuuuuuuuuuuuuuuuuuuuu3..<uuuuuuuuuuuuuuuuuuuuuu",
"uuuuuuuuuuuuuuuuuuuuuuu4    4uuuuuuuuuuuuuuuuuuuuu",
"uuuuuuuuuuuuuuuuuuuuuuu;    =uuuuuuuuuuuuuuuuuuuuu",
"uuuuuuuuuuuuuuuuuuuuuuu3    4uuuuuuuuuuuuuuuuuuuuu",
"uuuuuuuuuuuuuuuuuuuuuuuy#  +uuuuuuuuuuuuuuuuuuuuuu",
"uuuuuuuuuuuuuuuuuuuuuuuu4  4uuuuuuuuuuuuuuuuuuuuuu",
"uuuuuuuuuuuuuuuuuuuuuuuu4  4uuuuuuuuuuuuuuuuuuuuuu",
"uuuuuuuuuuuuuuuuuuqqqqqq2  1qqqqqquuuuuuuuuuuuuuuu",
"uuuuuuuuuuuuuuuu5.                o4uuuuuuuuuuuuuu",
"uuuuuuuuuuuuuuu7                    8uuuuuuuuuuuuu",
"uuuuuuuuuuuuuuu#                    #uuuuuuuuuuuuu",
"uuuuuuuuuuuuuuuO   .$o        .$o   ouuuuuuuuuuuuu",
"uuuuuuuuuuuuuq8.  &uuy#      @tuu-  o8quuuuuuuuuuu",
"uuuuuuuuuuuu4     0uuu8      8uuur     3uuuuuuuuuu",
"uuuuuuuuuuuu#     euuu9      8uuuw     *uuuuuuuuuu",
"uuuuuuuuuuuu#     :uuu-      :uuu<     @uuuuuuuuuu",
"uuuuuuuuuuuu#      #,#        +,#      @uuuuuuuuuu",
"uuuuuuuuuuuu#                          @uuuuuuuuuu",
"uuuuuuuuuuuu#         .XXXXXX.         @uuuuuuuuuu",
"uuuuuuuuuuuu%        3uuuuuuuu3        @uuuuuuuuuu",
"uuuuuuuuuuuu6       +uuuuuuuuuu+      .7uuuuuuuuuu",
"uuuuuuuuuuuuut8O    .uuuuuuuuuuo    .8tuuuuuuuuuuu",
"uuuuuuuuuuuuuuuO     $88888888>     ouuuuuuuuuuuuu",
"uuuuuuuuuuuuuuu%                    @uuuuuuuuuuuuu",
"uuuuuuuuuuuuuuu8                    8uuuuuuuuuuuuu",
"uuuuuuuuuuuuuuuu6+                @8uuuuuuuuuuuuuu",
"uuuuuuuuuuuuuuuuuuuu,          ,uuuuuuuuuuuuuuuuuu",
"uuuuuuuuuuuuuuuuuuuu,          ,uuuuuuuuuuuuuuuuuu",
"uuuuuuuuuuuuuuuuuuuu3          4uuuuuuuuuuuuuuuuuu",
"uuuuuuuuuuuuuuuuuuuuy*        @tuuuuuuuuuuuuuuuuuu",
"uuuuuuuuuuuuuuuuuuuuuuuuuuuuuuuuuuuuuuuuuuuuuuuuuu",
"uuuuuuuuuuuuuuuuuuuuuuuuuuuuuuuuuuuuuuuuuuuuuuuuuu",
"uuuuuuuuuuuuuuuuuuuuuuuuuuuuuuuuuuuuuuuuuuuuuuuuuu",
"uuuuuuuuuuuuuuuuuuuuuuuuuuuuuuuuuuuuuuuuuuuuuuuuuu",
"uuuuuuuuuuuuuuuuuuuuuuuuuuuuuuuuuuuuuuuuuuuuuuuuuu",
"uuuuuuuuuuuuuuuuuuuuuuuuuuuuuuuuuuuuuuuuuuuuuuuuuu",
"uuuuuuuuuuuuuuuuuuuuuuuuuuuuuuuuuuuuuuuuuuuuuuuuuu",
"uuuuuuuuuuuuuuuuuuuuuuuuuuuuuuuuuuuuuuuuuuuuuuuuuu",
"uuuuuuuuuuuuuuuuuuuuuuuuuuuuuuuuuuuuuuuuuuuuuuuuuu",
"uuuuuuuuuuuuuuuuuuuuuuuuuuuuuuuuuuuuuuuuuuuuuuuuuu",
"uuuuuuuuuuuuuuuuuuuuuuuuuuuuuuuuuuuuuuuuuuuuuuuuuu",
"uuuuuuuuuuuuuuuuuuuuuuuuuuuuuuuuuuuuuuuuuuuuuuuuuu",
"uuuuuuuuuuuuuuuuuuuuuuuuuuuuuuuuuuuuuuuuuuuuuuuuuu",
"uuuuuuuuuuuuuuuuuuuuuuuuuuuuuuuuuuuuuuuuuuuuuuuuuu",
"uuuuuuuuuuuuuuuuuuuuuuuuuuuuuuuuuuuuuuuuuuuuuuuuuu",
"uuuuuuuuuuuuuuuuuuuuuuuuuuuuuuuuuuuuuuuuuuuuuuuuuu",
"uuuuuuuuuuuuuuuuuuuuuuuuuuuuuuuuuuuuuuuuuuuuuuuuuu",
"uuuuuuuuuuuuuuuuuuuuuuuuuuuuuuuuuuuuuuuuuuuuuuuuuu",
"uuuuuuuuuuuuuuuuuuuuuuuuuuuuuuuuuuuuuuuuuuuuuuuuuu",
"uuuuuuuuuuuuuuuuuuuuuuuuuuuuuuuuuuuuuuuuuuuuuuuuuu"
};
