/* XPM */
static char *result[] = {
/* columns rows colors chars-per-pixel */
"50 50 29 1 ",
"  c #966730",
". c #9A6C36",
"X c #9E713C",
"o c #9F713C",
"O c #A37642",
"+ c #A77B48",
"@ c #A87B48",
"# c #AC804E",
"$ c #AC814F",
"% c #B08555",
"& c #B08655",
"* c #B58B5A",
"= c #B58B5B",
"- c #B99061",
"; c #BA9061",
": c #BE9567",
"> c #C29A6D",
", c #C79F73",
"< c #CBA479",
"1 c #CFA97F",
"2 c #D0A97F",
"3 c #D4AE85",
"4 c #D4AF85",
"5 c #D4AE86",
"6 c #D4AF86",
"7 c #D8B48B",
"8 c #D8B48C",
"9 c #D9B48C",
"0 c #DDB992",
/* pixels */
"00000000000000000000000000000000000000000000000000",
"00000000000000000000000000000000000000000000000000",
"00000000000000000000000000000000000000000000000000",
"00000000000000000000000000000000000000000000000000",
"00000000000000000000007=.o>00000000000000000000000",
"0000000000000000000000=    <0000000000000000000000",
"0000000000000000000000@    >0000000000000000000000",
"0000000000000000000000&    <0000000000000000000000",
"00000000000000000000006o  -00000000000000000000000",
"00000000000000000000000-  500000000000000000000000",
"00000000000000000000000-  500000000000000000000000",
"00000000000000007333333*  <33333300000000000000000",
"000000000000000:.                o1000000000000000",
"00000000000000;                   .300000000000000",
"00000000000000o                    =00000000000000",
"00000000000000    O#.        X#o   $00000000000000",
"0000000000001<   -006o      -006O  O<3000000000000",
"00000000000;    .0000:      8000,    .100000000000",
"00000000000     .0000:      8000<     %00000000000",
"00000000000      >007o      ;000#     %00000000000",
"00000000000       #*o        #*O      %00000000000",
"00000000000                           %00000000000",
"00000000000          XXXXXXX.         %00000000000",
"00000000000.        <00000000=        =00000000000",
"00000000000:       $0000000009       o500000000000",
"0000000000006<     @0000000004     O28000000000000",
"00000000000000      ;<<<<<<<,O     +00000000000000",
"00000000000000.                    =00000000000000",
"00000000000000:                   o500000000000000",
"000000000000000>o                +5000000000000000",
"0000000000000000000@          >0000000000000000000",
"0000000000000000000@          >0000000000000000000",
"0000000000000000000&          <0000000000000000000",
"00000000000000000006o        =00000000000000000000",
"00000000000000000000000000000000000000000000000000",
"00000000000000000000000000000000000000000000000000",
"00000000000000000000000000000000000000000000000000",
"00000000000000000000000000000000000000000000000000",
"00000000000000000000000000000000000000000000000000",
"00000000000000000000000000000000000000000000000000",
"00000000000000000000000000000000000000000000000000",
"00000000000000000000000000000000000000000000000000",
"00000000000000000000000000000000000000000000000000",
"00000000000000000000000000000000000000000000000000",
"00000000000000000000000000000000000000000000000000",
"00000000000000000000000000000000000000000000000000",
"00000000000000000000000000000000000000000000000000",
"00000000000000000000000000000000000000000000000000",
"00000000000000000000000000000000000000000000000000",
"00000000000000000000000000000000000000000000000000"
};
