/* XPM */
static char *result[] = {
/* columns rows colors chars-per-pixel */
"50 50 36 1 ",
"  c #966730",
". c #9A6C36",
"X c #9E713C",
"o c #9F713C",
"O c #9F723C",
"+ c #A37642",
"@ c #A77B48",
"# c #A87B48",
"$ c #AC804E",
"% c #AC814E",
"& c #AC804F",
"* c #AC814F",
"= c #B08555",
"- c #B18654",
"; c #B08655",
": c #B58B5A",
"> c #B58B5B",
", c #B99061",
"< c #BA9061",
"1 c #BE9566",
"2 c #BE9467",
"3 c #BE9567",
"4 c #C29A6D",
"5 c #C39A6D",
"6 c #C79F73",
"7 c #C7A073",
"8 c #CBA479",
"9 c #D0A97F",
"0 c #CFAA80",
"q c #D4AE85",
"w c #D4AF85",
"e c #D4AE86",
"r c #D4AF86",
"t c #D8B48C",
"y c #D9B48C",
"u c #DDB992",
/* pixels */
"uuuuuuuuuuuuuuuuuuuuuuuuuuuuuuuuuuuuuuuuuuuuuuuuuu",
"uuuuuuuuuuuuuuuuuuuuuuuuuuuuuuuuuuuuuuuuuuuuuuuuuu",
"uuuuuuuuuuuuuuuuuuuuuuuuuuuuuuuuuuuuuuuuuuuuuuuuuu",
"uuuuuuuuuuuuuuuuuuuuuuuuuuuuuuuuuuuuuuuuuuuuuuuuuu",
"uuuuuuuuuuuuuuuuuuuuuuuuuuuuuuuuuuuuuuuuuuuuuuuuuu",
"uuuuuuuuuuuuuuuuuuuuuuuuuuuuuuuuuuuuuuuuuuuuuuuuuu",
"uuuuuuuuuuuuuuuuuuuuuuuuuuuuuuuuuuuuuuuuuuuuuuuuuu",
"uuuuuuuuuuuuuuuuuuuuuuuuuuuuuuuuuuuuuuuuuuuuuuuuuu",
"uuuuuuuuuuuuuuuuuuuuuuuuuuuuuuuuuuuuuuuuuuuuuuuuuu",
"uuuuuuuuuuuuuuuuuuuuuuuuuuuuuuuuuuuuuuuuuuuuuuuuuu",
"uuuuuuuuuuuuuuuuuuuuuuu3..<uuuuuuuuuuuuuuuuuuuuuuu",
"uuuuuuuuuuuuuuuuuuuuuu4    4uuuuuuuuuuuuuuuuuuuuuu",
"uuuuuuuuuuuuuuuuuuuuuu;    =uuuuuuuuuuuuuuuuuuuuuu",
"uuuuuuuuuuuuuuuuuuuuuu3    4uuuuuuuuuuuuuuuuuuuuuu",
"uuuuuuuuuuuuuuuuuuuuuuy#  +uuuuuuuuuuuuuuuuuuuuuuu",
"uuuuuuuuuuuuuuuuuuuuuuu4  4uuuuuuuuuuuuuuuuuuuuuuu",
"uuuuuuuuuuuuuuuuuuuuuuu4  4uuuuuuuuuuuuuuuuuuuuuuu",
"uuuuuuuuuuuuuuuuuqqqqqq2  1qqqqqquuuuuuuuuuuuuuuuu",
"uuuuuuuuuuuuuuu5.                o4uuuuuuuuuuuuuuu",
"uuuuuuuuuuuuuu7                    8uuuuuuuuuuuuuu",
"uuuuuuuuuuuuuu#                    #uuuuuuuuuuuuuu",
"uuuuuuuuuuuuuuO   .$o        .$o   ouuuuuuuuuuuuuu",
"uuuuuuuuuuuuq8.  &uuy#      @tuu-  o8quuuuuuuuuuuu",
"uuuuuuuuuuu4     0uuu8      8uuur     3uuuuuuuuuuu",
"uuuuuuuuuuu#     euuu9      8uuuw     *uuuuuuuuuuu",
"uuuuuuuuuuu#     :uuu-      :uuu<     @uuuuuuuuuuu",
"uuuuuuuuuuu#      #,#        +,#      @uuuuuuuuuuu",
"uuuuuuuuuuu#                          @uuuuuuuuuuu",
"uuuuuuuuuuu#         .XXXXXX.         @uuuuuuuuuuu",
"uuuuuuuuuuu%        3uuuuuuuu3        @uuuuuuuuuuu",
"uuuuuuuuuuu6       +uuuuuuuuuu+      .7uuuuuuuuuuu",
"uuuuuuuuuuuut8O    .uuuuuuuuuuo    .8tuuuuuuuuuuuu",
"uuuuuuuuuuuuuuO     $88888888>     ouuuuuuuuuuuuuu",
"uuuuuuuuuuuuuu%                    @uuuuuuuuuuuuuu",
"uuuuuuuuuuuuuu8                    8uuuuuuuuuuuuuu",
"uuuuuuuuuuuuuuu6+                @8uuuuuuuuuuuuuuu",
"uuuuuuuuuuuuuuuuuuu,          ,uuuuuuuuuuuuuuuuuuu",
"uuuuuuuuuuuuuuuuuuu,          ,uuuuuuuuuuuuuuuuuuu",
"uuuuuuuuuuuuuuuuuuu3          4uuuuuuuuuuuuuuuuuuu",
"uuuuuuuuuuuuuuuuuuuy*        @tuuuuuuuuuuuuuuuuuuu",
"uuuuuuuuuuuuuuuuuuuuuuuuuuuuuuuuuuuuuuuuuuuuuuuuuu",
"uuuuuuuuuuuuuuuuuuuuuuuuuuuuuuuuuuuuuuuuuuuuuuuuuu",
"uuuuuuuuuuuuuuuuuuuuuuuuuuuuuuuuuuuuuuuuuuuuuuuuuu",
"uuuuuuuuuuuuuuuuuuuuuuuuuuuuuuuuuuuuuuuuuuuuuuuuuu",
"uuuuuuuuuuuuuuuuuuuuuuuuuuuuuuuuuuuuuuuuuuuuuuuuuu",
"uuuuuuuuuuuuuuuuuuuuuuuuuuuuuuuuuuuuuuuuuuuuuuuuuu",
"uuuuuuuuuuuuuuuuuuuuuuuuuuuuuuuuuuuuuuuuuuuuuuuuuu",
"uuuuuuuuuuuuuuuuuuuuuuuuuuuuuuuuuuuuuuuuuuuuuuuuuu",
"uuuuuuuuuuuuuuuuuuuuuuuuuuuuuuuuuuuuuuuuuuuuuuuuuu",
"uuuuuuuuuuuuuuuuuuuuuuuuuuuuuuuuuuuuuuuuuuuuuuuuuu"
};
