/* XPM */
static char *result[] = {
/* columns rows colors chars-per-pixel */
"50 50 29 1 ",
"  c #966730",
". c #9A6C36",
"X c #9F713C",
"o c #9F723C",
"O c #A37642",
"+ c #A77B48",
"@ c #A87B48",
"# c #AC804E",
"$ c #AC804F",
"% c #AC814F",
"& c #B08554",
"* c #B18554",
"= c #B58B5B",
"- c #B99061",
"; c #BE9567",
": c #C29A6D",
"> c #C79F73",
", c #CBA479",
"< c #CFA97F",
"1 c #D0A97F",
"2 c #CFAA80",
"3 c #D4AE85",
"4 c #D4AF85",
"5 c #D4AE86",
"6 c #D4AF86",
"7 c #D8B48B",
"8 c #D8B48C",
"9 c #D9B48C",
"0 c #DDB992",
/* pixels */
"00000000000000000000000000000000000000000000000000",
"00000000000000000000000000000000000000000000000000",
"00000000000000000000000000000000000000000000000000",
"00000000000000000000000000000000000000000000000000",
"00000000000000000000000000000000000000000000000000",
"00000000000000000000000000000000000000000000000000",
"00000000000000000000000000000000000000000000000000",
"00000000000000000000000000000000000000000000000000",
"00000000000000000000000000000000000000000000000000",
"00000000000000000000000000000000000000000000000000",
"00000000000000000000000000000000000000000000000000",
"00000000000000000000000000000000000000000000000000",
"00000000000000000000000000000000000000000000000000",
"00000000000000000000000000000000000000000000000000",
"00000000000000000000000000000000000000000000000000",
"00000000000000000000000000000000000000000000000000",
"00000000000000000000000000000000000000000000000000",
"00000000000000000000000000000000000000000000000000",
"00000000000000000000000000000000000000000000000000",
"00000000000000000000000000000000000000000000000000",
"00000000000000000000000000000000000000000000000000",
"00000000000000000000000000000000000000000000000000",
"00000000000000000000000000000000000000000000000000",
"00000000000000000000000000000000000000000000000000",
"00000000000000000000000000000000000000000000000000",
"00000000000000000000000000000000000000000000000000",
"00000000000000000000000000000000000000000000000000",
"00000000000000000000000000000000000000000000000000",
"00000000000000000000000000000000000000000000000000",
"00000000000000000000000000000000000000000000000000",
"00000000000000000000004@. *30000000000000000000000",
"0000000000000000000000=    =0000000000000000000000",
"0000000000000000000000>    :0000000000000000000000",
"00000000000000000000000:  -00000000000000000000000",
"00000000000000000000000:  :00000000000000000000000",
"000000000000000,*@@@@@@X  O@@@@@@*,000000000000000",
"00000000000000;                    ;00000000000000",
"00000000000000O   .+.        .O.   X00000000000000",
"000000000007;-.  -000=      =800-  .-:800000000000",
"00000000000#     50001      20001     %00000000000",
"00000000000@     #<0,O      O<01#     +00000000000",
"00000000000@                          +00000000000",
"00000000000@        .&&&&&&&&X        +00000000000",
"00000000000;       X8000000009.       -00000000000",
"00000000000083o    .3000000004X    X38000000000000",
"00000000000000@      @@@@@@@O      O00000000000000",
"000000000000006X                  X500000000000000",
"0000000000000000,::$          $::10000000000000000",
"0000000000000000000-          -0000000000000000000",
"00000000000000000006O        +50000000000000000000"
};
