/* XPM */
static char *result[] = {
/* columns rows colors chars-per-pixel */
"50 50 57 1 ",
"  c #EE0E0E",
". c #EE0F0E",
"X c #EE0F0F",
"o c #ED1816",
"O c #ED1916",
"+ c #ED1A16",
"@ c #EC231E",
"# c #EC241E",
"$ c #EA2D27",
"% c #EB2D27",
"& c #EA2E27",
"* c #EB2E27",
"= c #EB2F27",
"- c #E9382F",
"; c #EA382F",
": c #EA392F",
"> c #E84337",
", c #E94337",
"< c #E84437",
"1 c #E94437",
"2 c #E74E3F",
"3 c #E74E40",
"4 c #E84E40",
"5 c #E84F40",
"6 c #E65848",
"7 c #E75848",
"8 c #E65948",
"9 c #E75948",
"0 c #E56350",
"q c #E66350",
"w c #E56450",
"e c #E66450",
"r c #E46E58",
"t c #E46F58",
"y c #E56F58",
"u c #E37860",
"i c #E37960",
"p c #E37961",
"a c #E28269",
"s c #E28369",
"d c #E28469",
"f c #E18D71",
"g c #E18E71",
"h c #E09779",
"j c #E09879",
"k c #E09979",
"l c #DFA280",
"z c #DFA380",
"x c #DFA281",
"c c #DFA381",
"v c #DFA481",
"b c #DEAD89",
"n c #DEAD8A",
"m c #DEAE8A",
"M c #DDB891",
"N c #DDB892",
"B c #DDB992",
/* pixels */
"BBBBBBBBBBBBBBBBBc:o          o4cBBBBBBBBBBBBBBBBB",
"BBBBBBBBBBBBBBBBc@9sgccccccccsd3#mBBBBBBBBBBBBBBBB",
"BBBBBBBBBBBBBBBB63wo tBBBBBB9o d:rBBBBBBBBBBBBBBBB",
"BBBBBBBBBBBBBBBB:u ks;Bd*:kM.vp<03BBBBBBBBBBBBBBBB",
"BBBBBBBBBBBBBBBB2q:1*3mos0=N%4*940BBBBBBBBBBBBBBBB",
"BBBBBBBBBBBBBBBBgOg0rmv@BzXBv8riOvBBBBBBBBBBBBBBBB",
"BBBBBBBBBBBBBBBBB0 :::*O:* :::*odBBBBBBBBBBBBBBBBB",
"BBBBBBBBBBBBBBBBBBvs rppppppwOsmBBBBBBBBBBBBBBBBBB",
"BBBBBBBBBBBBBBBBBBBB:9BBpdBB43BBBBBBBBBBBBBBBBBBBB",
"BBBBBBBBBBBBBBBBBBBBv@45*@9:#vBBBBBBBBBBBBBBBBBBBB",
"BBBBBBBBBBBBBBBBBBBBBv3ogp@0mBBBBBBBBBBBBBBBBBBBBB",
"BBBBBBBBBBBBBBBBBBBBBBB@gp3BBBBBBBBBBBBBBBBBBBBBBB",
"BBBBBBBBBBBBBBBBBBBBBmpogp*dBBBBBBBBBBBBBBBBBBBBBB",
"BBBBBBBBBBkgmBBBBBBBc@-ogp@@*mBBBBBBBmgkBBBBBBBBBB",
"BBBBBBBBg@o@ 1o@tBBB@qB@gp3B,4BBBro*4 @o@cBBBBBBBB",
"BBBBBBBcouBBp@gsogBg@BB@gp3Bb.mBp@gaodBB0+cBBBBBBB",
"BBBBBBB:rBBB03BB,                9BN:uBBB69BBBBBBB",
"BBBBBBB kBBBs@kg@p cccccccccccf p@kfOvBBBs#BBBBBBB",
"BBBBBBBovm:*@$oorv B         #zXB0oo@;#9Bg=BBBBBBB",
"BBBBBBB:9*4gogBBBv B gccccccp*zXBBBBp@s*443BBBBBBB",
"BBBBBBBk 4Bm@gBBBm m,        qj+BBBBr:Bn*+vBBBBBBB",
"BBBBBBB6>Bm**BBBBB:4cmccccccmk*9BBBBn@4Bn*rBBBBBBB",
"BBBBBBB64m**mBBBBBv3         o9BBBBBBc@4B,rBBBBBBB",
"BBBBBBBr  -mBBBBBBBBgO1<cx%8.vBBBBBBBBc@  dBBBBBBB",
"BBBBBBB20cBBBBBBBBBBB0 3BN:orBBBBBBBBBBBc,0BBBBBBB",
"BBBBBBBgOcBBBBBBBBBBBB03BN:gBBBBBBBBBBBBj.vBBBBBBB",
"BBBBBBBB0@xBBBBBBBBBne*@::o*iBBBBBBBBBBjouBBBBBBBB",
"BBBBBBBBB0@4yBBBBBBB:*pppppr@eBBBBBBBe9ouBBBBBBBBB",
"BBBBBBBBBB@9@eBBBBBgOjllccccf.mBBBBB5*,:BBBBBBBBBB",
"BBBBBBBBBB:97 eBBBBp XXX      gBBBB5 t43BBBBBBBBBB",
"BBBBBBBBBBv#Og&mBBBq*NBBBBBBbodBBBg*fo#vBBBBBBBBBB",
"BBBBBBBBBBBv#tBBBBpo#:BBBBBN@$ gBBBBw#vBBBBBBBBBBB",
"BBBBBBBBBBBBvkBBBN,rv BBBBBzXB20BBBBsvBBBBBBBBBBBB",
"BBBBBBBBBBBBBBBBk* uv BBBBBzXB2 :cBBBBBBBBBBBBBBBB",
"BBBBBBBBBBBBBBBc@q2uv BBBBBzXB200:BBBBBBBBBBBBBBBB",
"BBBBBBBBBBBBBBBs;B6:9@BBBBBbor@iMOkBBBBBBBBBBBBBBB",
"BBBBBBBBBBBBBBBp<Bm,@kBBBBBBao9BN%gBBBBBBBBBBBBBBB",
"BBBBBBBBBBBBBBBkOlx;OjBBBBBBio1md#mBBBBBBBBBBBBBBB",
"BBBBBBBBBBBBBBBB0.@>wOBBBBBb p*@odBBBBBBBBBBBBBBBB",
"BBBBBBBBBBBBBBBBBv3:4#BBBBBbo9@9mBBBBBBBBBBBBBBBBB",
"BBBBBBBBBBBBBBBBBBm,@vBBBBBBjo9BBBBBBBBBBBBBBBBBBB",
"BBBBBBBBBBBBBBBBBBc*OsBBBBBBr :mBBBBBBBBBBBBBBBBBB",
"BBBBBBBBBBBBBBBBBB63iOBBBBBb s:rBBBBBBBBBBBBBBBBBB",
"BBBBBBBBBBBBBBBBBB2uh BBBBBzXB,0BBBBBBBBBBBBBBBBBB",
"BBBBBBBBBBBBBBBBBBpoo9BBBBBN*o.kBBBBBBBBBBBBBBBBBB",
"BBBBBBBBBBBBBBBBBBBq*NBBBBBBbodBBBBBBBBBBBBBBBBBBB",
"BBBBBBBBBBBBBBBBBB9OO@mBBBBx@@otBBBBBBBBBBBBBBBBBB",
"BBBBBBBBBBBBBBBBBB vB@gBBBBr<Bg#BBBBBBBBBBBBBBBBBB",
"BBBBBBBBBBBBBBBBBgOll49BBBB,qcj.mBBBBBBBBBBBBBBBBB",
"BBBBBBBBBBBBBBBBBg    wBBBN:   OvBBBBBBBBBBBBBBBBB"
};
