/* XPM */
static char *result[] = {
/* columns rows colors chars-per-pixel */
"50 50 64 1 ",
"  c #FC0000",
". c #FC0100",
"X c #FC0101",
"o c #FA0B09",
"O c #FA0C09",
"+ c #FA0D09",
"@ c #FA0C0A",
"# c #FA0D0A",
"$ c #F81712",
"% c #F81812",
"& c #F6221B",
"* c #F6231B",
"= c #F6241B",
"- c #F42E24",
"; c #F42F24",
": c #F42E25",
"> c #F2392D",
", c #F23A2D",
"< c #F2392E",
"1 c #F23A2E",
"2 c #F04536",
"3 c #F04537",
"4 c #EE503F",
"5 c #EE513F",
"6 c #EE5040",
"7 c #EE5140",
"8 c #EC5C48",
"9 c #EC5C49",
"0 c #ED5D49",
"q c #EB6752",
"w c #EA6852",
"e c #EB6852",
"r c #EB6952",
"t c #E8735B",
"y c #E9735B",
"u c #E9745B",
"i c #E67F64",
"p c #E77F64",
"a c #E78064",
"s c #E4896D",
"d c #E48A6D",
"f c #E58A6D",
"g c #E58B6D",
"h c #E58B6E",
"j c #E29576",
"k c #E39576",
"l c #E29676",
"z c #E39676",
"x c #E39677",
"c c #E39777",
"v c #E1A17F",
"b c #E1A27F",
"n c #DFAD87",
"m c #DFAC88",
"M c #DFAD88",
"N c #DFAC89",
"B c #DFAD89",
"V c #DFAE88",
"C c #DFAE89",
"Z c #DDB891",
"A c #DDB892",
"S c #DDB992",
"D c #E1A180",
"F c #E1A280",
/* pixels */
"SSSSSSSSSSSSSSSSSb-o          o2bSSSSSSSSSSSSSSSSS",
"SSSSSSSSSSSSSSSSb$   &zbbbbfo   %CSSSSSSSSSSSSSSSS",
"SSSSSSSSSSSSSSSS7     9SSSA*     wSSSSSSSSSSSSSSSS",
"SSSSSSSSSSSSSSSS-  O  -i*-k  O   3SSSSSSSSSSSSSSSS",
"SSSSSSSSSSSSSSSS3     :op0&o     9SSSSSSSSSSSSSSSS",
"SSSSSSSSSSSSSSSSg    oh$SD r    OFSSSSSSSSSSSSSSSS",
"SSSSSSSSSSSSSSSSS0   &*O-* -o  oaSSSSSSSSSSSSSSSSS",
"SSSSSSSSSSSSSSSSSSFp etttttt0OpCSSSSSSSSSSSSSSSSSS",
"SSSSSSSSSSSSSSSSSSSS-4SStiSS23SSSSSSSSSSSSSSSSSSSS",
"SSSSSSSSSSSSSSSSSSSSF$23*$7-%FSSSSSSSSSSSSSSSSSSSS",
"SSSSSSSSSSSSSSSSSSSSSF3odt$0CSSSSSSSSSSSSSSSSSSSSS",
"SSSSSSSSSSSSSSSSSSSSSSS$dt3SSSSSSSSSSSSSSSSSSSSSSS",
"SSSSSSSSSSSSSSSSSSSSSVtodt*iSSSSSSSSSSSSSSSSSSSSSS",
"SSSSSSSSSSldVSSSSSSSb$-odt$$=CSSSSSSSVdlSSSSSSSSSS",
"SSSSSSSSd$o$ ,o$wSSS$9S$dt3A>2SSSeo*2 $o%bSSSSSSSS",
"SSSSSSSbouSSt$gpodSg$SS$dt3SmXCSt$gpopSS0+bSSSSSSS",
"SSSSSSS-eSSS93SS,                7SA-tSSS77SSSSSSS",
"SSSSSSS xSSSi$ld$u              u$lsOFSSSi%SSSSSSS",
"SSSSSSSoFV-*$*ooeF             XS0oo$-$4Sg*SSSSSSS",
"SSSSSSS-4*3godSSSF             XSSSSt$p*223SSSSSSS",
"SSSSSSSz 3SV$dSSSB             #SSSSe;SN*+FSSSSSSS",
"SSSSSSS7<SV**SSSSS-            7SSSSm$2SN*wSSSSSSS",
"SSSSSSS72V**CSSSSSF3         o7SSSSSSD$2S,wSSSSSSS",
"SSSSSSSe  -CSSSSSSSSgO,1bv*6.FSSSSSSSSD$  pSSSSSSS",
"SSSSSSS39bSSSSSSSSSSS0 3SA-oeSSSSSSSSSSSv,9SSSSSSS",
"SSSSSSSgObSSSSSSSSSSSS93SA-dSSSSSSSSSSSSk.FSSSSSSS",
"SSSSSSSS0$vSSSSSSSSSM9*$--o&ySSSSSSSSSSkouSSSSSSSS",
"SSSSSSSSS0$2wSSSSSSS-*ttttte$9SSSSSSS95ouSSSSSSSSS",
"SSSSSSSSSS$7$9SSSSSgOjvvbbbbsXCSSSSS3*>;SSSSSSSSSS",
"SSSSSSSSSS-45.9SSSSt XXX     .dSSSS3 e23SSSSSSSSSS",
"SSSSSSSSSSF%Og=CSSS8&ASSSSSSnopSSSg*fo%FSSSSSSSSSS",
"SSSSSSSSSSSF%wSSSSto%-SSSSSZ$*.dSSSS0%FSSSSSSSSSSS",
"SSSSSSSSSSSSFxSSSA,wF SSSSSDXS39SSSSpFSSSSSSSSSSSS",
"SSSSSSSSSSSSSSSSk* tF SSSSSDXS3 -bSSSSSSSSSSSSSSSS",
"SSSSSSSSSSSSSSSb$93tF SSSSSDXS390;SSSSSSSSSSSSSSSS",
"SSSSSSSSSSSSSSSi-S7-7$SSSSSmoq$uZOxSSSSSSSSSSSSSSS",
"SSSSSSSSSSSSSSSt1SB>$xSSSSSSpo7SA*dSSSSSSSSSSSSSSS",
"SSSSSSSSSSSSSSScOvv-OkSSSSSSuo,Ci%CSSSSSSSSSSSSSSS",
"SSSSSSSSSSSSSSSS0.$<0OSSSSSm t*$oaSSSSSSSSSSSSSSSS",
"SSSSSSSSSSSSSSSSSF3-2%SSSSSmo7$7CSSSSSSSSSSSSSSSSS",
"SSSSSSSSSSSSSSSSSSB>$FSSSSSSko7SSSSSSSSSSSSSSSSSSS",
"SSSSSSSSSSSSSSSSSSb*OiSSSSSSe -CSSSSSSSSSSSSSSSSSS",
"SSSSSSSSSSSSSSSSSS73uOSSSSSm p-wSSSSSSSSSSSSSSSSSS",
"SSSSSSSSSSSSSSSSSS3tz SSSSSDXS,9SSSSSSSSSSSSSSSSSS",
"SSSSSSSSSSSSSSSSSSuoo7SSSSSA*o.zSSSSSSSSSSSSSSSSSS",
"SSSSSSSSSSSSSSSSSSS8&ZSSSSSSnopSSSSSSSSSSSSSSSSSSS",
"SSSSSSSSSSSSSSSSSS7O@$CSSSSv$$owSSSSSSSSSSSSSSSSSS",
"SSSSSSSSSSSSSSSSSS FS$dSSSSe1Sf%SSSSSSSSSSSSSSSSSS",
"SSSSSSSSSSSSSSSSSgOvv27SSSS,8bkXCSSSSSSSSSSSSSSSSS",
"SSSSSSSSSSSSSSSSSg    0SSSA-   OFSSSSSSSSSSSSSSSSS"
};
