/* XPM */
static char *result[] = {
/* columns rows colors chars-per-pixel */
"50 50 45 1 ",
"  c #966730",
". c #9A6C36",
"X c #9E713C",
"o c #9F713C",
"O c #9F723C",
"+ c #A37642",
"@ c #A77B48",
"# c #A87B48",
"$ c #AC804E",
"% c #AC814E",
"& c #AC804F",
"* c #AC814F",
"= c #B18554",
"- c #B08555",
"; c #B18654",
": c #B08655",
"> c #B18655",
", c #B58A5A",
"< c #B58B5A",
"1 c #B58B5B",
"2 c #BA8F60",
"3 c #B99061",
"4 c #BA9060",
"5 c #BA9061",
"6 c #BE9467",
"7 c #BE9567",
"8 c #C29A6D",
"9 c #C39A6D",
"0 c #C69F73",
"q c #C79F73",
"w c #C7A073",
"e c #CBA479",
"r c #CBA579",
"t c #CFA97F",
"y c #D0A97F",
"u c #CFAA80",
"i c #D0A980",
"p c #D4AE85",
"a c #D4AF85",
"s c #D4AE86",
"d c #D4AF86",
"f c #D8B48B",
"g c #D8B48C",
"h c #D9B48C",
"j c #DDB992",
/* pixels */
"jjjjjjjjjjjjjjjjja#.          .=pjjjjjjjjjjjjjjjjj",
"jjjjjjjjjjjjjjjjao10rpppppppp0w:ogjjjjjjjjjjjjjjjj",
"jjjjjjjjjjjjjjjj1-5. 7jjjjjj1. q#7jjjjjjjjjjjjjjjj",
"jjjjjjjjjjjjjjjj#8 uq@jw+#tj s8*3-jjjjjjjjjjjjjjjj",
"jjjjjjjjjjjjjjjj:3#$+-h.q3+j+=+1;3jjjjjjjjjjjjjjjj",
"jjjjjjjjjjjjjjjje.e37gdojd jd179.sjjjjjjjjjjjjjjjj",
"jjjjjjjjjjjjjjjjj3 ###+.#+ ###+.wjjjjjjjjjjjjjjjjj",
"jjjjjjjjjjjjjjjjjjdq 68888883.qgjjjjjjjjjjjjjjjjjj",
"jjjjjjjjjjjjjjjjjjjj#<jj8qjj;-jjjjjjjjjjjjjjjjjjjj",
"jjjjjjjjjjjjjjjjjjjjdo=>+o1#osjjjjjjjjjjjjjjjjjjjj",
"jjjjjjjjjjjjjjjjjjjjjd:.e8o3gjjjjjjjjjjjjjjjjjjjjj",
"jjjjjjjjjjjjjjjjjjjjjjjOe8-jjjjjjjjjjjjjjjjjjjjjjj",
"jjjjjjjjjjjjjjjjjjjjjf8.e8+qjjjjjjjjjjjjjjjjjjjjjj",
"jjjjjjjjjjtefjjjjjjjao@.e8oo+gjjjjjjjfetjjjjjjjjjj",
"jjjjjjjjeo.X $.o7jjjo3jOe8-j$=jjj7.+; X.opjjjjjjjj",
"jjjjjjja.8jj8oeq.ejeojjOe8-jh gj8oeq.0jj3.pjjjjjjj",
"jjjjjjj#7jjj3-jj%                1jj#8jjj11jjjjjjj",
"jjjjjjj ujjjqoteo8 pppppppppppe 8ote.sjjjqojjjjjjj",
"jjjjjjj.sf#+o+..7d j         od j3..o#o<je+jjjjjjj",
"jjjjjjj#<+:e.ejjjd j epppppp8+d jjjj8oq+=;-jjjjjjj",
"jjjjjjjy :jfoejjjh g%        3y.jjjj7#jh+.sjjjjjjj",
"jjjjjjj1&jf++jjjjj#=pgppppppgy+1jjjjho=jh+7jjjjjjj",
"jjjjjjj1=f++gjjjjjd:         .1jjjjjjdo=j%7jjjjjjj",
"jjjjjjj7  @gjjjjjjjje.$*pp+1 sjjjjjjjjdo  0jjjjjjj",
"jjjjjjj:3pjjjjjjjjjjj3 -jj#.7jjjjjjjjjjjp%3jjjjjjj",
"jjjjjjje.pjjjjjjjjjjjj3-jj#ejjjjjjjjjjjjy sjjjjjjj",
"jjjjjjjj3opjjjjjjjjjf5+o##.+8jjjjjjjjjjy.8jjjjjjjj",
"jjjjjjjjj3o=7jjjjjjj#+888887o5jjjjjjj5<.8jjjjjjjjj",
"jjjjjjjjjjO1o5jjjjje.tppppppe gjjjjj>+$@jjjjjjjjjj",
"jjjjjjjjjj#<, 5jjjj8          ejjjj> 7;-jjjjjjjjjj",
"jjjjjjjjjjdo.e+gjjj2+jjjjjjjf.0jjje+e.osjjjjjjjjjj",
"jjjjjjjjjjjdo7jjjj8.o#jjjjjjo+ ejjjj5osjjjjjjjjjjj",
"jjjjjjjjjjjjdijjjj%7d jjjjjd j:3jjjjqsjjjjjjjjjjjj",
"jjjjjjjjjjjjjjjjy+ 8d jjjjjd j: #pjjjjjjjjjjjjjjjj",
"jjjjjjjjjjjjjjjao3:8d jjjjjd j:33#jjjjjjjjjjjjjjjj",
"jjjjjjjjjjjjjjjq@j1#1ojjjjjh.7o8j.ujjjjjjjjjjjjjjj",
"jjjjjjjjjjjjjjj8*jh$oijjjjjjq.1jj+ejjjjjjjjjjjjjjj",
"jjjjjjjjjjjjjjji.pa#.tjjjjjj9.$gwogjjjjjjjjjjjjjjj",
"jjjjjjjjjjjjjjjj3 o&3.jjjjjh 8+o.wjjjjjjjjjjjjjjjj",
"jjjjjjjjjjjjjjjjjd:#;ojjjjjh.1o1gjjjjjjjjjjjjjjjjj",
"jjjjjjjjjjjjjjjjjjh$osjjjjjjy.1jjjjjjjjjjjjjjjjjjj",
"jjjjjjjjjjjjjjjjjja+.qjjjjjj7 #gjjjjjjjjjjjjjjjjjj",
"jjjjjjjjjjjjjjjjjj1-8.jjjjjh q#7jjjjjjjjjjjjjjjjjj",
"jjjjjjjjjjjjjjjjjj:8y jjjjjd j%3jjjjjjjjjjjjjjjjjj",
"jjjjjjjjjjjjjjjjjj8..1jjjjjj+. tjjjjjjjjjjjjjjjjjj",
"jjjjjjjjjjjjjjjjjjj2+jjjjjjjf.0jjjjjjjjjjjjjjjjjjj",
"jjjjjjjjjjjjjjjjjj1..ogjjjjaoX.7jjjjjjjjjjjjjjjjjj",
"jjjjjjjjjjjjjjjjjj sjOejjjj7*jeojjjjjjjjjjjjjjjjjj",
"jjjjjjjjjjjjjjjjje.pp;1jjjj%4py gjjjjjjjjjjjjjjjjj",
"jjjjjjjjjjjjjjjjje    3jjjj#   .sjjjjjjjjjjjjjjjjj"
};
