/* XPM */
static char *result[] = {
/* columns rows colors chars-per-pixel */
"50 50 46 1 ",
"  c #966730",
". c #9A6C36",
"X c #9E713C",
"o c #9F713C",
"O c #9F723C",
"+ c #A37642",
"@ c #A77B48",
"# c #A77C49",
"$ c #A87B48",
"% c #AC804E",
"& c #AC814E",
"* c #AC804F",
"= c #AC814F",
"- c #B18554",
"; c #B08555",
": c #B18654",
"> c #B08655",
", c #B18655",
"< c #B58A5A",
"1 c #B58B5A",
"2 c #B58B5B",
"3 c #BA8F60",
"4 c #B99061",
"5 c #BA9060",
"6 c #BA9061",
"7 c #BE9467",
"8 c #BE9567",
"9 c #C29A6D",
"0 c #C39A6D",
"q c #C69F73",
"w c #C79F73",
"e c #C7A073",
"r c #CBA479",
"t c #CBA47A",
"y c #CFA97F",
"u c #D0A97F",
"i c #CFAA80",
"p c #D0A980",
"a c #D4AE85",
"s c #D4AF85",
"d c #D4AE86",
"f c #D4AF86",
"g c #D8B48B",
"h c #D8B48C",
"j c #D9B48C",
"k c #DDB992",
/* pixels */
"kkkkkkkkkkkkkkkkks$.          .-akkkkkkkkkkkkkkkkk",
"kkkkkkkkkkkkkkkkso   +yaaaar.   ohkkkkkkkkkkkkkkkk",
"kkkkkkkkkkkkkkkk2     4kkkk+     8kkkkkkkkkkkkkkkk",
"kkkkkkkkkkkkkkkk$  .  @e+$y  .   ;kkkkkkkkkkkkkkkk",
"kkkkkkkkkkkkkkkk>     #.w4+.     4kkkkkkkkkkkkkkkk",
"kkkkkkkkkkkkkkkkr    .tokf 8    .dkkkkkkkkkkkkkkkk",
"kkkkkkkkkkkkkkkkk4   ++.$+ $.  .ekkkkkkkkkkkkkkkkk",
"kkkkkkkkkkkkkkkkkkfw 79999994.whkkkkkkkkkkkkkkkkkk",
"kkkkkkkkkkkkkkkkkkkk$1kk9wkk:;kkkkkkkkkkkkkkkkkkkk",
"kkkkkkkkkkkkkkkkkkkkfo-,+o2$odkkkkkkkkkkkkkkkkkkkk",
"kkkkkkkkkkkkkkkkkkkkkf>.r9o4hkkkkkkkkkkkkkkkkkkkkk",
"kkkkkkkkkkkkkkkkkkkkkkkOr9;kkkkkkkkkkkkkkkkkkkkkkk",
"kkkkkkkkkkkkkkkkkkkkkg9.r9+wkkkkkkkkkkkkkkkkkkkkkk",
"kkkkkkkkkkyrgkkkkkkkso@.r9oo+hkkkkkkkgrykkkkkkkkkk",
"kkkkkkkkro.X %.o8kkko4kOr9;k%-kkk8.+: X.oakkkkkkkk",
"kkkkkkks.9kk9orw.rkrokkOr9;kj hk9orw.qkk4.akkkkkkk",
"kkkkkkk$8kkk4;kk&                2kk$9kkk22kkkkkkk",
"kkkkkkk ikkkwoyro9              9oyr.dkkkwokkkkkkk",
"kkkkkkk.dg$+o+..8f              k4..o$o1kr+kkkkkkk",
"kkkkkkk$1+>r.rkkkf              kkkk9ow+-:;kkkkkkk",
"kkkkkkku >kgorkkkj             .kkkk8$kj+.dkkkkkkk",
"kkkkkkk2*kg++kkkkk$            2kkkkjo-kj+8kkkkkkk",
"kkkkkkk2-g++hkkkkkf>         .2kkkkkkfo-k&8kkkkkkk",
"kkkkkkk8  @hkkkkkkkkr.%=aa+2 dkkkkkkkkfo  qkkkkkkk",
"kkkkkkk>4akkkkkkkkkkk4 ;kk$.8kkkkkkkkkkka&4kkkkkkk",
"kkkkkkkr.akkkkkkkkkkkk4;kk$rkkkkkkkkkkkku dkkkkkkk",
"kkkkkkkk4oakkkkkkkkkg6+o$$.+9kkkkkkkkkku.9kkkkkkkk",
"kkkkkkkkk4o-8kkkkkkk$+999998o6kkkkkkk61.9kkkkkkkkk",
"kkkkkkkkkkO2o6kkkkkr.yaaaaaar hkkkkk,+%@kkkkkkkkkk",
"kkkkkkkkkk$1< 6kkkk9          rkkkk, 8:;kkkkkkkkkk",
"kkkkkkkkkkfo.r+hkkk3+kkkkkkkg.qkkkr+r.odkkkkkkkkkk",
"kkkkkkkkkkkfo8kkkk9.o$kkkkkko+ rkkkk6odkkkkkkkkkkk",
"kkkkkkkkkkkkfpkkkk&8f kkkkkf k>4kkkkwdkkkkkkkkkkkk",
"kkkkkkkkkkkkkkkku+ 9f kkkkkf k> $akkkkkkkkkkkkkkkk",
"kkkkkkkkkkkkkkkso4>9f kkkkkf k>44$kkkkkkkkkkkkkkkk",
"kkkkkkkkkkkkkkkw@k2$2okkkkkj.8o9k.ikkkkkkkkkkkkkkk",
"kkkkkkkkkkkkkkk9=kj%opkkkkkkw.2kk+rkkkkkkkkkkkkkkk",
"kkkkkkkkkkkkkkkp.as$.ykkkkkk0.%heohkkkkkkkkkkkkkkk",
"kkkkkkkkkkkkkkkk4 o*4.kkkkkj 9+o.ekkkkkkkkkkkkkkkk",
"kkkkkkkkkkkkkkkkkf>$:okkkkkj.2o2hkkkkkkkkkkkkkkkkk",
"kkkkkkkkkkkkkkkkkkj%odkkkkkku.2kkkkkkkkkkkkkkkkkkk",
"kkkkkkkkkkkkkkkkkks+.wkkkkkk8 $hkkkkkkkkkkkkkkkkkk",
"kkkkkkkkkkkkkkkkkk2;9.kkkkkj w$8kkkkkkkkkkkkkkkkkk",
"kkkkkkkkkkkkkkkkkk>9u kkkkkf k&4kkkkkkkkkkkkkkkkkk",
"kkkkkkkkkkkkkkkkkk9..2kkkkkk+. ykkkkkkkkkkkkkkkkkk",
"kkkkkkkkkkkkkkkkkkk3+kkkkkkkg.qkkkkkkkkkkkkkkkkkkk",
"kkkkkkkkkkkkkkkkkk2..ohkkkksoX.8kkkkkkkkkkkkkkkkkk",
"kkkkkkkkkkkkkkkkkk dkOrkkkk8=krokkkkkkkkkkkkkkkkkk",
"kkkkkkkkkkkkkkkkkr.aa:2kkkk&5au hkkkkkkkkkkkkkkkkk",
"kkkkkkkkkkkkkkkkkr    4kkkk$   .dkkkkkkkkkkkkkkkkk"
};
