/* XPM */
static char *result[] = {
/* columns rows colors chars-per-pixel */
"50 50 78 1 ",
"  c blue",
". c #0100FF",
"X c #0101FF",
"o c #0D0BF8",
"O c #0E0BF8",
"+ c #0F0BF8",
"@ c #0E0CF8",
"# c #0F0CF8",
"$ c #0F0DF8",
"% c #1C17F1",
"& c #1D17F1",
"* c #1C17F2",
"= c #1D18F1",
"- c #1D18F2",
"; c #2923EA",
": c #2923EB",
"> c #2A22EB",
", c #2B22EB",
"< c #2A23EB",
"1 c #2B23EB",
"2 c #2A24EB",
"3 c #2B24EB",
"4 c #372EE3",
"5 c #372EE4",
"6 c #382EE4",
"7 c #382FE4",
"8 c #4539DD",
"9 c #453ADC",
"0 c #453ADD",
"q c #463ADD",
"w c #5245D6",
"e c #5345D6",
"r c #5445D6",
"t c #6051CF",
"y c #6151CF",
"u c #6E5CC8",
"i c #6F5CC8",
"p c #6F5DC8",
"a c #6E5CC9",
"s c #6E5DC9",
"d c #6F5DC9",
"f c #6150D0",
"g c #6051D0",
"h c #6151D0",
"j c #7C67C1",
"k c #7C68C1",
"l c #7D68C1",
"z c #7C68C2",
"x c #8973BB",
"c c #8A73BB",
"v c #8974BB",
"b c #8A74BB",
"n c #8B74BB",
"m c #977FB4",
"M c #987FB4",
"N c #9880B4",
"B c #A489AD",
"V c #A589AD",
"C c #A58AAD",
"Z c #A58BAD",
"A c #A68BAD",
"S c #B295A6",
"D c #B395A6",
"F c #B296A6",
"G c #B396A6",
"H c #B397A6",
"J c #B496A6",
"K c #C0A19F",
"L c #C1A29F",
"P c #CEAC99",
"I c #CEAD99",
"U c #CFAD99",
"Y c #CFAE99",
"T c #DCB892",
"R c #DCB992",
"E c #DDB992",
"W c #C0A1A0",
"Q c #C1A2A0",
/* pixels */
"EEEEEEEEEEEEEEEEEQ5O          OeLEEEEEEEEEEEEEEEEE",
"EEEEEEEEEEEEEEEEQ*yMZLLLLLLLLMNe=YEEEEEEEEEEEEEEEE",
"EEEEEEEEEEEEEEEEtedO zEEEEEEgO.M5kEEEEEEEEEEEEEEEE",
"EEEEEEEEEEEEEEEE5c GM5EM:5JTXLc0ueEEEEEEEEEEEEEEEE",
"EEEEEEEEEEEEEEEEeu50<eUOMp1T;e<yeuEEEEEEEEEEEEEEEE",
"EEEEEEEEEEEEEEEEA@AukYQ%EWXEQykv#LEEEEEEEEEEEEEEEE",
"EEEEEEEEEEEEEEEEEp 555<@5< 555<+NEEEEEEEEEEEEEEEEE",
"EEEEEEEEEEEEEEEEEEQM kccccccp#MYEEEEEEEEEEEEEEEEEE",
"EEEEEEEEEEEEEEEEEEEE5fEEcMERerEEEEEEEEEEEEEEEEEEEE",
"EEEEEEEEEEEEEEEEEEEEQ*ee<*h5=LEEEEEEEEEEEEEEEEEEEE",
"EEEEEEEEEEEEEEEEEEEEEQeoCc%pYEEEEEEEEEEEEEEEEEEEEE",
"EEEEEEEEEEEEEEEEEEEEEEE*CceEEEEEEEEEEEEEEEEEEEEEEE",
"EEEEEEEEEEEEEEEEEEEEEYcoCc<MEEEEEEEEEEEEEEEEEEEEEE",
"EEEEEEEEEEGCYEEEEEEEQ*5oCc%*3YEEEEEEEYCGEEEEEEEEEE",
"EEEEEEEEC*O* 0O%zEEE*uE*CceT8rEEEzO<e *O=LEEEEEEEE",
"EEEEEEEQObEEc%AMoCEA%EE*CceEPXYEc&AmOMEEp$LEEEEEEE",
"EEEEEEE5lEEEuwEE9                yET5cEEEyyEEEEEEE",
"EEEEEEE GEEEM%GC*b LLLLLLLLLLLC.n&GB#LEEEM=EEEEEEE",
"EEEEEEEoLY5<%:OOlQ E         =WXEpOO*5*fEZ1EEEEEEE",
"EEEEEEE5f<eAoCEEEQ E CLLLLLLc,WXEEEEc%M:eerEEEEEEE",
"EEEEEEEG eEY*CEEEU Y0        uF$EEEEk7EP:$LEEEEEEE",
"EEEEEEEt8EY<<EEEEE5eLYLLLLLLYF<yEEEEP*rEP:kEEEEEEE",
"EEEEEEEteY<<YEEEEEQe         OyEEEEEEW*rR9kEEEEEEE",
"EEEEEEEk  5YEEEEEEEEA@00LK;fXLEEEEEEEEW* .MEEEEEEE",
"EEEEEEEeuLEEEEEEEEEEEp wET5OlEEEEEEEEEEEK9uEEEEEEE",
"EEEEEEEA@LEEEEEEEEEEEEuwET5CEEEEEEEEEEEESXLEEEEEEE",
"EEEEEEEEp%KREEEEEEEEIa<%55O>cEEEEEEEEEESObEEEEEEEE",
"EEEEEEEEEp%wzEEEEEEE51ccccck*aEEEEEEEayObEEEEEEEEE",
"EEEEEEEEEE*y*aEEEEEA@DKKLLLLVXYEEEERe<87EEEEEEEEEE",
"EEEEEEEEEE6fyXaEEEEc XXX     XCEEERe zerEEEEEEEEEE",
"EEEEEEEEEEQ-@A2YEEEi>TEEEEEEIOMEEEZ<Co=LEEEEEEEEEE",
"EEEEEEEEEEEQ-zEEEEcO-5EEEEET*:XCEEEEd=LEEEEEEEEEEE",
"EEEEEEEEEEEEQGEEET9kQ EEEEEWXReuEEEEMLEEEEEEEEEEEE",
"EEEEEEEEEEEEEEEES: cQ EEEEEWXRe 6LEEEEEEEEEEEEEEEE",
"EEEEEEEEEEEEEEEQ*uecQ EEEEEWXReup7EEEEEEEEEEEEEEEE",
"EEEEEEEEEEEEEEEM5Et5g&EEEEEPoj*bT@GEEEEEEEEEEEEEEE",
"EEEEEEEEEEEEEEEc0EU8%GEEEEEEmoyET;CEEEEEEEEEEEEEEE",
"EEEEEEEEEEEEEEEH@KW4@DEEEEEEvoqYM=YEEEEEEEEEEEEEEE",
"EEEEEEEEEEEEEEEEpX%8p@EEEEEP.c:%+NEEEEEEEEEEEEEEEE",
"EEEEEEEEEEEEEEEEEQe5e=EEEEEPoy*yYEEEEEEEEEEEEEEEEE",
"EEEEEEEEEEEEEEEEEEU8%LEEEEEESoyEEEEEEEEEEEEEEEEEEE",
"EEEEEEEEEEEEEEEEEEQ<@mEEEEEEz 6YEEEEEEEEEEEEEEEEEE",
"EEEEEEEEEEEEEEEEEEteb@EEEEEP.M5kEEEEEEEEEEEEEEEEEE",
"EEEEEEEEEEEEEEEEEEexF EEEEEWXR9uEEEEEEEEEEEEEEEEEE",
"EEEEEEEEEEEEEEEEEEbOOyEEEEET:OXJEEEEEEEEEEEEEEEEEE",
"EEEEEEEEEEEEEEEEEEEi>TEEEEEEIOMEEEEEEEEEEEEEEEEEEE",
"EEEEEEEEEEEEEEEEEEg##%YEEEEW**OzEEEEEEEEEEEEEEEEEE",
"EEEEEEEEEEEEEEEEEE LE*CEEEEkqEC=EEEEEEEEEEEEEEEEEE",
"EEEEEEEEEEEEEEEEEA@KKeyEEER9uLSXYEEEEEEEEEEEEEEEEE",
"EEEEEEEEEEEEEEEEEA    sEEET5   #LEEEEEEEEEEEEEEEEE"
};
