/* XPM */
static char *result[] = {
/* columns rows colors chars-per-pixel */
"50 50 78 1 ",
"  c blue",
". c #0100FF",
"X c #0101FF",
"o c #0D0BF8",
"O c #0E0BF8",
"+ c #0F0BF8",
"@ c #0E0CF8",
"# c #0F0CF8",
"$ c #0F0DF8",
"% c #1C17F1",
"& c #1D17F1",
"* c #1C17F2",
"= c #1D18F1",
"- c #1D18F2",
"; c #2923EA",
": c #2923EB",
"> c #2A22EB",
", c #2A23EB",
"< c #2B23EB",
"1 c #2A24EB",
"2 c #2B24EB",
"3 c #372EE3",
"4 c #372EE4",
"5 c #382EE4",
"6 c #382FE4",
"7 c #4539DD",
"8 c #453ADC",
"9 c #453ADD",
"0 c #463ADD",
"q c #5245D6",
"w c #5345D6",
"e c #5445D6",
"r c #6051CF",
"t c #6151CF",
"y c #6E5CC8",
"u c #6F5CC8",
"i c #6F5DC8",
"p c #6E5CC9",
"a c #6E5DC9",
"s c #6F5DC9",
"d c #6150D0",
"f c #6051D0",
"g c #6151D0",
"h c #7C67C1",
"j c #7C68C1",
"k c #7D68C1",
"l c #7C69C1",
"z c #7C68C2",
"x c #8973BB",
"c c #8A73BB",
"v c #8974BB",
"b c #8A74BB",
"n c #8B74BB",
"m c #977FB4",
"M c #987FB4",
"N c #9880B4",
"B c #A489AD",
"V c #A589AD",
"C c #A58AAD",
"Z c #A58BAD",
"A c #A68BAD",
"S c #B295A6",
"D c #B395A6",
"F c #B296A6",
"G c #B396A6",
"H c #B397A6",
"J c #B496A6",
"K c #C0A19F",
"L c #C1A29F",
"P c #CEAC99",
"I c #CEAD99",
"U c #CFAD99",
"Y c #CFAE99",
"T c #DCB892",
"R c #DCB992",
"E c #DDB992",
"W c #C0A1A0",
"Q c #C1A2A0",
/* pixels */
"EEEEEEEEEEEEEEEEEQ4O          OwLEEEEEEEEEEEEEEEEE",
"EEEEEEEEEEEEEEEEQ*   >JLLLLCo   =YEEEEEEEEEEEEEEEE",
"EEEEEEEEEEEEEEEEr     yEEET;     jEEEEEEEEEEEEEEEE",
"EEEEEEEEEEEEEEEE4  @  4M:4D  @   wEEEEEEEEEEEEEEEE",
"EEEEEEEEEEEEEEEEw     4OMi>o     yEEEEEEEEEEEEEEEE",
"EEEEEEEEEEEEEEEEA    OA%EW l    #LEEEEEEEEEEEEEEEE",
"EEEEEEEEEEEEEEEEEi   >,@4, 4O  +NEEEEEEEEEEEEEEEEE",
"EEEEEEEEEEEEEEEEEEQM jcccccci#MYEEEEEEEEEEEEEEEEEE",
"EEEEEEEEEEEEEEEEEEEE4dEEcMERweEEEEEEEEEEEEEEEEEEEE",
"EEEEEEEEEEEEEEEEEEEEQ*ww,*g4=LEEEEEEEEEEEEEEEEEEEE",
"EEEEEEEEEEEEEEEEEEEEEQwoCc%iYEEEEEEEEEEEEEEEEEEEEE",
"EEEEEEEEEEEEEEEEEEEEEEE*CcwEEEEEEEEEEEEEEEEEEEEEEE",
"EEEEEEEEEEEEEEEEEEEEEYcoCc,MEEEEEEEEEEEEEEEEEEEEEE",
"EEEEEEEEEEGCYEEEEEEEQ*4oCc%*2YEEEEEEEYCGEEEEEEEEEE",
"EEEEEEEEC*O* 9O%zEEE*yE*CcwT7eEEEzO,w *O=LEEEEEEEE",
"EEEEEEEQObEEc%AMoCEA%EE*CcwEPXYEc&AmOMEEi$LEEEEEEE",
"EEEEEEE4kEEEyqEE8                tET4cEEEttEEEEEEE",
"EEEEEEE GEEEM%GC*b             .n&GB#LEEEM=EEEEEEE",
"EEEEEEEoLY4,%:OOkQ             XEiOO*4*dEZ<EEEEEEE",
"EEEEEEE4d,wAoCEEEQ             XEEEEc%M:wweEEEEEEE",
"EEEEEEEG wEY*CEEEU             $EEEEj6EP:$LEEEEEEE",
"EEEEEEEr7EY,,EEEEE4            tEEEEP*eEP:jEEEEEEE",
"EEEEEEErwY,,YEEEEEQw         OtEEEEEEW*eR8jEEEEEEE",
"EEEEEEEj  4YEEEEEEEEA@99LK;dXLEEEEEEEEW* .MEEEEEEE",
"EEEEEEEwyLEEEEEEEEEEEi qET4OkEEEEEEEEEEEK8yEEEEEEE",
"EEEEEEEA@LEEEEEEEEEEEEyqET4CEEEEEEEEEEEESXLEEEEEEE",
"EEEEEEEEi%KREEEEEEEEIp,%44O>cEEEEEEEEEESObEEEEEEEE",
"EEEEEEEEEi%qzEEEEEEE4<cccccj*pEEEEEEEptObEEEEEEEEE",
"EEEEEEEEEE*t*pEEEEEA@DKKLLLLVXYEEEERw,76EEEEEEEEEE",
"EEEEEEEEEE5dtXpEEEEc XXX     XCEEERw zweEEEEEEEEEE",
"EEEEEEEEEEQ-@A1YEEEu>TEEEEEEIOMEEEZ,Co=LEEEEEEEEEE",
"EEEEEEEEEEEQ-zEEEEcO-4EEEEET*:XCEEEEs=LEEEEEEEEEEE",
"EEEEEEEEEEEEQGEEET8jQ EEEEEWXRwyEEEEMLEEEEEEEEEEEE",
"EEEEEEEEEEEEEEEES: cQ EEEEEWXRw 5LEEEEEEEEEEEEEEEE",
"EEEEEEEEEEEEEEEQ*ywcQ EEEEEWXRwyi6EEEEEEEEEEEEEEEE",
"EEEEEEEEEEEEEEEM4Er4f&EEEEEPoh*bT@GEEEEEEEEEEEEEEE",
"EEEEEEEEEEEEEEEc9EU7%GEEEEEEmotET;CEEEEEEEEEEEEEEE",
"EEEEEEEEEEEEEEEH@KW3@DEEEEEEvo0YM=YEEEEEEEEEEEEEEE",
"EEEEEEEEEEEEEEEEiX%7i@EEEEEP.c:%+NEEEEEEEEEEEEEEEE",
"EEEEEEEEEEEEEEEEEQw4w=EEEEEPot*tYEEEEEEEEEEEEEEEEE",
"EEEEEEEEEEEEEEEEEEU7%LEEEEEESotEEEEEEEEEEEEEEEEEEE",
"EEEEEEEEEEEEEEEEEEQ,@mEEEEEEz 5YEEEEEEEEEEEEEEEEEE",
"EEEEEEEEEEEEEEEEEErwb@EEEEEP.M4jEEEEEEEEEEEEEEEEEE",
"EEEEEEEEEEEEEEEEEEwxF EEEEEWXR8yEEEEEEEEEEEEEEEEEE",
"EEEEEEEEEEEEEEEEEEbOOtEEEEET:OXJEEEEEEEEEEEEEEEEEE",
"EEEEEEEEEEEEEEEEEEEu>TEEEEEEIOMEEEEEEEEEEEEEEEEEEE",
"EEEEEEEEEEEEEEEEEEf##%YEEEEW**OzEEEEEEEEEEEEEEEEEE",
"EEEEEEEEEEEEEEEEEE LE*CEEEEj0EC=EEEEEEEEEEEEEEEEEE",
"EEEEEEEEEEEEEEEEEA@KKwtEEER8yLSXYEEEEEEEEEEEEEEEEE",
"EEEEEEEEEEEEEEEEEA    aEEET4   #LEEEEEEEEEEEEEEEEE"
};
