/* XPM */
static char *result[] = {
/* columns rows colors chars-per-pixel */
"50 50 22 1 ",
"  c #966730",
". c #9A6C36",
"X c #9F723C",
"o c #A37642",
"O c #A77B48",
"+ c #A77B49",
"@ c #A87B48",
"# c #AC804E",
"$ c #AC804F",
"% c #AC814F",
"& c #B18554",
"* c #B08655",
"= c #B58B5B",
"- c #B99061",
"; c #C29A6D",
": c #C39A6D",
"> c #CBA479",
", c #CFA97F",
"< c #D0A97F",
"1 c #D4AF86",
"2 c #D9B48C",
"3 c #DDB992",
/* pixels */
"33333333333333333333333333333333333333333333333333",
"33333333333333333333333333333333333333333333333333",
"33333333333333333333333333333333333333333333333333",
"33333333333333333333333333333333333333333333333333",
"33333333333333333333333333333333333333333333333333",
"333333o                        %333333333333333333",
"333333X$;;;;;;;;;;;;;;;;;;;;;;+O333333333333333333",
"333333X-3333333333333333333333*O333333333333333333",
"333333X-3333333333333333333333*O333333333333333333",
"333333X-3333333333333333333333*O333333333333333333",
"333333X-3333333333333333333333*O333333333333333333",
"333333X-3333333333333333333333*O333333333333333333",
"333333X-3333333333333333333333*O333333333333333333",
"333333X-3333333333333333333333*O333333333333333333",
"333333X-3333333333333333333333*O333333333333333333",
"333333X-3333333333333333333333*O33,333333333333333",
"333333X-3333333333333333333333*O33 &33333333333333",
"333333X-3333333333333333333333*O33; &3333333333333",
"333333X-3333333333333333333333*O333; &333333333333",
"333333X-3333333333333333333333*O3333; &33333333333",
"333333X-3333333333333333333333*O33333; &3333333333",
"333333X-33333333333333333333331>333333; &333333333",
"333333X-3333333333333333333333333333333; &33333333",
"333333X-33333333333333333333333333333333; &3333333",
"333333X-33333333333#@@@@@@@@@@@@@@@@@@@@@. &333333",
"333333X-33333333333*OOOOOOOOOOOOOOOOOOOOO. =333333",
"333333X-33333333333333333333333333333333: *3333333",
"333333X-3333333333333333333333333333333: *33333333",
"333333X-3333333333333333333333<>333333: *333333333",
"333333X-3333333333333333333333*O33333: *3333333333",
"333333X-3333333333333333333333*O3333: *33333333333",
"333333X-3333333333333333333333*O333: *333333333333",
"333333X-3333333333333333333333*O33: *3333333333333",
"333333X-3333333333333333333333*O32 *33333333333333",
"333333X-3333333333333333333333*O33>333333333333333",
"333333X-3333333333333333333333*O333333333333333333",
"333333X-3333333333333333333333*O333333333333333333",
"333333X-3333333333333333333333*O333333333333333333",
"333333X-3333333333333333333333*O333333333333333333",
"333333X-3333333333333333333333*O333333333333333333",
"333333X-3333333333333333333333*O333333333333333333",
"333333X-3333333333333333333333*O333333333333333333",
"333333X-3333333333333333333333*O333333333333333333",
"333333X#;;;;;;;;;;;;;;;;;;;;;;@O333333333333333333",
"333333o                        #333333333333333333",
"33333333333333333333333333333333333333333333333333",
"33333333333333333333333333333333333333333333333333",
"33333333333333333333333333333333333333333333333333",
"33333333333333333333333333333333333333333333333333",
"33333333333333333333333333333333333333333333333333"
};
