/* XPM */
static char *result[] = {
/* columns rows colors chars-per-pixel */
"50 50 32 1 ",
"  c #966730",
". c #9A6C36",
"X c #9E713C",
"o c #9F713C",
"O c #A37642",
"+ c #A77B48",
"@ c #A87B48",
"# c #AC804E",
"$ c #AC814F",
"% c #B08554",
"& c #B18554",
"* c #B18654",
"= c #B08655",
"- c #B58B5A",
"; c #B58B5B",
": c #B99061",
"> c #BA9061",
", c #BE9567",
"< c #C29A6D",
"1 c #C69F73",
"2 c #C79F73",
"3 c #CBA479",
"4 c #CFA97F",
"5 c #D0A97F",
"6 c #CFAA80",
"7 c #D4AE85",
"8 c #D4AF85",
"9 c #D4AE86",
"0 c #D4AF86",
"q c #D8B48B",
"w c #D8B48C",
"e c #DDB992",
/* pixels */
"eeeeeeeeeeeeeeeeeeeeeeeeeeeeeeeeeeeeeeeeeeeeeeeeee",
"eeeeeeeeeeeeeeeeeeeeeeeeeeeeeeeeeeeeeeeeeeeeeeeeee",
"eeeeeeeeeeeeeeeeeeeeeeeeeeeeeeeeeeeeeeeeeeeeeeeeee",
"eeeeeeeeeeeeeeeeeeeeeeeeeeeeeeeeeeeeeeeeeeeeeeeeee",
"eeeeeeeeeeeeeeeeeeeeeeeeeeeeeeeeeeeeeeeeeeeeeeeeee",
"eeeee5.                        Oeeeeeeeeeeeeeeeeee",
"eeeee3 X   o&:::::::::::::::::@oeeeeeeeeeeeeeeeeee",
"eeeee3 90,+  O,7eeeeeeeeeeeeee:oeeeeeeeeeeeeeeeeee",
"eeeee3 9eee0<+  o-4eeeeeeeeeee:oeeeeeeeeeeeeeeeeee",
"eeeee3 9eeeeee0<#  o&3eeeeeeee:oeeeeeeeeeeeeeeeeee",
"eeeee3 9eeeeeeeeew2=. oweeeeee:oeeeeeeeeeeeeeeeeee",
"eeeee3 9eeeeeeeeeeeee, 9eeeeee:oeeeeeeeeeeeeeeeeee",
"eeeee3 9eeeeeeeeeeeee3 9eeeeee:oeeeeeeeeeeeeeeeeee",
"eeeee3 9eeeeeeeeeeeee3 9eeeeee:oeeO>eeeeeeeeeeeeee",
"eeeee3 9eeeeeeeeeeeee3 9eeeeee:oee: >eeeeeeeeeeeee",
"eeeee3 9eeeeeeeeeeeee3 9eeeeee:oeee: >eeeeeeeeeeee",
"eeeee3 9eeeeeeeeeeeee3 9eeeeee:oeeee: >eeeeeeeeeee",
"eeeee3 9eeeeeeeeeeeee3 9eeeeee:oeeeee: >eeeeeeeeee",
"eeeee3 9eeeeeeeeeeeee3 9eeeeee<%eeeeee: >eeeeeeeee",
"eeeee3 9eeeeeeeeeeeee3 9eeeeeeeeeeeeeee: >eeeeeeee",
"eeeee3 9eeeeeeeeeeeee3 9eeeeeeeeeeeeeeee: >eeeeeee",
"eeeee3 9eeeeeeeeeeeee3 9eq333333333333333@ >eeeeee",
"eeeee3 9eeeeeeeeeeeee3 9e=                  6eeeee",
"eeeee3 9eeeeeeeeeeeee3 9ee777777777777777* :eeeeee",
"eeeee3 9eeeeeeeeeeeee3 9eeeeeeeeeeeeeeee> :eeeeeee",
"eeeee3 9eeeeeeeeeeeee3 9eeeeeeeeeeeeeee> :eeeeeeee",
"eeeee3 9eeeeeeeeeeeee3 9eeeeee<#eeeeee> :eeeeeeeee",
"eeeee3 9eeeeeeeeeeeee3 9eeeeee:oeeeee> :eeeeeeeeee",
"eeeee3 9eeeeeeeeeeeee3 9eeeeee:oeeee> :eeeeeeeeeee",
"eeeee3 9eeeeeeeeeeeee3 9eeeeee:oeee> :eeeeeeeeeeee",
"eeeee3 9eeeeeeeeeeeee3 9eeeeee:oee> :eeeeeeeeeeeee",
"eeeee3 9eeeeeeeeeeeee3 9eeeeee:oee$:eeeeeeeeeeeeee",
"eeeee3 9eeeeeeeeeeeee3 9eeeeee:oeeeeeeeeeeeeeeeeee",
"eeeee3 9eeeeeeeeeeeee3 9eeeeee:oeeeeeeeeeeeeeeeeee",
"eeeee3 9eeeeeeeeeeeee3 9eeeeee:oeeeeeeeeeeeeeeeeee",
"eeeee3 9eeeeeeeeeeeee3 9eeeeee:oeeeeeeeeeeeeeeeeee",
"eeeee3 9eeeeeeeeeeeee3 9eeeeee:oeeeeeeeeeeeeeeeeee",
"eeeee3 9eeeeeeeeeeeee3 9eeeeee:oeeeeeeeeeeeeeeeeee",
"eeeee3 1eeeeeeeeeeeee3 ;::::::@oeeeeeeeeeeeeeeeeee",
"eeeee8o o&2eeeeeeeeee3 XXXXXXXX#eeeeeeeeeeeeeeeeee",
"eeeeeee3=o .&<qeeeeee3 9eeeeeeeeeeeeeeeeeeeeeeeeee",
"eeeeeeeeee3=o  #<7eee3 9eeeeeeeeeeeeeeeeeeeeeeeeee",
"eeeeeeeeeeeee5;O  @<73 9eeeeeeeeeeeeeeeeeeeeeeeeee",
"eeeeeeeeeeeeeeee0,+  o 9eeeeeeeeeeeeeeeeeeeeeeeeee",
"eeeeeeeeeeeeeeeeeee0<+.weeeeeeeeeeeeeeeeeeeeeeeeee",
"eeeeeeeeeeeeeeeeeeeeeeeeeeeeeeeeeeeeeeeeeeeeeeeeee",
"eeeeeeeeeeeeeeeeeeeeeeeeeeeeeeeeeeeeeeeeeeeeeeeeee",
"eeeeeeeeeeeeeeeeeeeeeeeeeeeeeeeeeeeeeeeeeeeeeeeeee",
"eeeeeeeeeeeeeeeeeeeeeeeeeeeeeeeeeeeeeeeeeeeeeeeeee",
"eeeeeeeeeeeeeeeeeeeeeeeeeeeeeeeeeeeeeeeeeeeeeeeeee"
};
