/* XPM */
static char *result[] = {
/* columns rows colors chars-per-pixel */
"50 50 38 1 ",
"  c #966730",
". c #9A6C36",
"X c #9E713C",
"o c #9F713C",
"O c #9F723C",
"+ c #A37642",
"@ c #A77B48",
"# c #A87B48",
"$ c #AC804E",
"% c #AC814E",
"& c #B08554",
"* c #B18554",
"= c #B08555",
"- c #B18654",
"; c #B08655",
": c #B58A5A",
"> c #B58B5A",
", c #B58B5B",
"< c #B99061",
"1 c #BA9061",
"2 c #BE9467",
"3 c #BE9567",
"4 c #C29A6D",
"5 c #C69F73",
"6 c #C79F73",
"7 c #C7A073",
"8 c #CBA479",
"9 c #CFA97F",
"0 c #D0A97F",
"q c #CFAA80",
"w c #D4AE85",
"e c #D4AF85",
"r c #D4AE86",
"t c #D4AF86",
"y c #D8B48B",
"u c #D8B48C",
"i c #D9B48C",
"p c #DDB992",
/* pixels */
"ppppppppppppppppppy# o9pppp0+ *upppppppppppppppppp",
"pppppppppppppppppp- $o.uppio.$ ,pppppppppppppppppp",
"ppppppppppppppppppO+p3 qpp0 3p+opppppppppppppppppp",
"pppppppppppppppppp% *o.uppi.o> =pppppppppppppppppp",
"ppppppppppppppppppt+ .4pppp6o @rpppppppppppppppppp",
"pppppppppppppppppppt <pppppp< rppppppppppppppppppp",
"pppppppppppppppppppt $>+..+** rppppppppppppppppppp",
"ppppppppppppppppppp0   X$$+   9ppppppppppppppppppp",
"ppppppppppppppppppeo =rppppt; owpppppppppppppppppp",
"ppppppppppppppppppo 4pppppppp3 ouppppppppppppppppp",
"ppppppppppppppppp1 3pppppppppp3 <ppppppppppppppppp",
"ppppppppppppppppio+ppe#uppe$9pp#.upppppppppppppppp",
"pppppppppppppppp6 4pp4 8pp8 4pp4 5pppppppppppppppp",
"pppppppppppppppp< qpp0$rppi$rppt <pppppppppppppppp",
"pppppppppppppppp; pppppppppppppp =pppppppppppppppp",
"pppppppppppppppp; <<<<<<<<<<<<<< =pppppppppppppppp",
"pppppppppppppppp;                =pppppppppppppppp",
"pppppppppppppppp; wwwwwwwwwwwwww =pppppppppppppppp",
"pppppppppppppppp; pppppppppppppp =pppppppppppppppp",
"pppppppppppppi.                    ouppppppppppppp",
"pppppppppy8884 +&&&&&&&&.o&&&&&&&&+ 5888wppppppppp",
"pppppppp1      <pppppppp#@pppppppp<      1pppppppp",
"pppppppe +3.o3 <pppppppp#@pppppppp< 2o 4+ uppppppp",
"ppppppp0 <po+t <pppy1***o.***>wppp< rO+p3 8ppppppp",
"ppppppppo o .+ <ppeo          owpp< #. . opppppppp",
"ppppppppt# +@@ <pp- 4pppppppp3 ,pp< +@@ +rpppppppp",
"ppppppppp< rpt <pp+@pppppppppp+opp< rpt <ppppppppp",
"ppppppppp< rpt <pp#.uppppppppyo@pp< rpt <ppppppppp",
"ppppppppp< rpt <pp4 o<<<<<<<<+ 4pp< rpt <ppppppppp",
"ppppppppp< rpt <ppp<o        .3ppp< rpt <ppppppppp",
"ppppppppp< rpt ,pppppwww+@wwwppppp, upt <ppppppppp",
"ppppppppp< rpp.#pppppppp#@pppppppp+oppt <ppppppppp",
"ppppppppp< rpp< 8ppppppp#@pppppppe =ppt <ppppppppp",
"pppppppp4o *wpt.+upppppp#@ppppppyo rp0# o4pppppppp",
"ppppppp8 .$ opp3 $uppppp#@pppppy+ <pp+ =o qppppppp",
"ppppppp8 4p#oppp< o4pppp#@pppy4o <pppO@p4 8ppppppp",
"ppppppp8 >p%+pppp+  .###..##+.  @pppp#$p: 8ppppppp",
"pppppppio ouppppp#o4# .XXXX. @3O@pppppio .rppppppp",
"ppppppppp4$pppppp#ow6 4pppp4 5yO@pppppi@<upppppppp",
"ppppppppppppppppp#    4pppp4    @ppppppppppppppppp",
"ppppppppppppppppp# =o 4pppp4 +; @ppppppppppppppppp",
"ppppppppppppppppp%.p6 5pppp4 5p.@ppppppppppppppppp",
"ppppppppppppppppp< #. rppppi.o# 4ppppppppppppppppp",
"pppppppppppppppppp, .7pppppp6o <pppppppppppppppppp",
"pppppppppppppppppww $wyppppyw% wwppppppppppppppppp",
"pppppppppppppppp,      qppe      <pppppppppppppppp",
"pppppppppppppppe o<<<$ 8pp8 $<<<+.uppppppppppppppp",
"ppppppppppppppp- 9ppp4 8pp8 4ppp8 >ppppppppppppppp",
"pppppppppppppp> .****# 8pp8 #****. >uppppppppppppp",
"pppppppppppppio       .rppi.       .uppppppppppppp"
};
