/* XPM */
static char *ef7196eac8cc4d8bba16d253879f2d38bdkuHnb3it6PXJyW[] = {
/* columns rows colors chars-per-pixel */
"80 80 249 2 ",
"   c None",
".  c #020202",
"X  c #0A0603",
"o  c #010C02",
"O  c #0D0904",
"+  c #0A0B0B",
"@  c #060809",
"#  c #140D05",
"$  c #160C07",
"%  c #051608",
"&  c #1C1306",
"*  c #1C140C",
"=  c #16120B",
"-  c #131313",
";  c #1A1A18",
":  c #0D1311",
">  c #260A05",
",  c #3D0C01",
"<  c #350B02",
"1  c #25190A",
"2  c #261709",
"3  c #3A1905",
"4  c #251C13",
"5  c #251C14",
"6  c #063B1A",
"7  c #123510",
"8  c #33230B",
"9  c #372709",
"0  c #2A2317",
"q  c #352719",
"w  c #30360E",
"e  c #292929",
"r  c #393939",
"t  c #332E29",
"y  c #1B2923",
"u  c #420D02",
"i  c #490C02",
"p  c #441106",
"a  c #46140B",
"s  c #4A1609",
"d  c #531305",
"f  c #591809",
"g  c #4F190D",
"h  c #661A0A",
"j  c #711E0E",
"k  c #442A0D",
"l  c #49310F",
"z  c #492C13",
"x  c #582716",
"c  c #4B3312",
"v  c #533612",
"b  c #5C3C14",
"n  c #563815",
"m  c #592D0C",
"M  c #67270C",
"N  c #74280C",
"B  c #682412",
"V  c #772915",
"C  c #633A17",
"Z  c #773510",
"A  c #473624",
"S  c #543D2A",
"D  c #663B22",
"F  c #154C04",
"G  c #0D5402",
"H  c #0C5A09",
"J  c #135105",
"K  c #185609",
"L  c #175A13",
"P  c #1E4914",
"I  c #274308",
"U  c #30520B",
"Y  c #087804",
"T  c #0D6519",
"R  c #126B0B",
"E  c #2C6413",
"W  c #0E5528",
"Q  c #2E4F29",
"!  c #0B7429",
"~  c #0D7B3A",
"^  c #0B7733",
"/  c #126C2C",
"(  c #386B2C",
")  c #5C4512",
"_  c #5C4519",
"`  c #43540B",
"'  c #634215",
"]  c #6A4515",
"[  c #674B15",
"{  c #744B17",
"}  c #754C18",
"|  c #795718",
" . c #6D5319",
".. c #5B442D",
"X. c #534A36",
"o. c #5B523B",
"O. c #464D35",
"+. c #6A4E34",
"@. c #69553C",
"#. c #785739",
"$. c #6E4829",
"%. c #54772E",
"&. c #3F3F40",
"*. c #3F434B",
"=. c #444444",
"-. c #4C4C4C",
";. c #545454",
":. c #5C5C5C",
">. c #4E5053",
",. c #6B5C49",
"<. c #756A4F",
"1. c #686868",
"2. c #737373",
"3. c #7C7A7C",
"4. c #6A7073",
"5. c #505661",
"6. c #86230F",
"7. c #8A2712",
"8. c #972B14",
"9. c #843B13",
"0. c #873815",
"q. c #963715",
"w. c #A73518",
"e. c #B4381B",
"r. c #A62F17",
"t. c #C83C1F",
"y. c #9C4C19",
"u. c #964616",
"i. c #8B5B1B",
"p. c #84561B",
"a. c #915E1C",
"s. c #8E4214",
"d. c #A74717",
"f. c #B5481B",
"g. c #8A651A",
"h. c #94621C",
"j. c #9C651D",
"k. c #9A6C1C",
"l. c #99731B",
"z. c #A36A1E",
"x. c #AA6E1E",
"c. c #AF711E",
"v. c #A5791D",
"b. c #B1731F",
"n. c #B97C1F",
"m. c #8B5433",
"M. c #AC5324",
"N. c #8F6435",
"B. c #AD632E",
"V. c #A96E20",
"C. c #BB7C20",
"Z. c #B47520",
"A. c #B06D34",
"S. c #C9451D",
"D. c #D34A1F",
"F. c #D94422",
"G. c #D54D26",
"H. c #EB4A24",
"J. c #F54C25",
"K. c #F2532C",
"L. c #D96D3D",
"P. c #946D47",
"I. c #90724E",
"U. c #B87A48",
"Y. c #A8794F",
"T. c #EA7848",
"R. c #D07241",
"E. c #069805",
"W. c #069919",
"Q. c #0F880A",
"!. c #03A808",
"~. c #00B405",
"^. c #01B308",
"/. c #03A318",
"(. c #13B016",
"). c #059825",
"_. c #09833D",
"`. c #088B35",
"'. c #2C8924",
"]. c #698B53",
"[. c #5B8552",
"{. c #AF821E",
"}. c #BC8521",
"|. c #B5842B",
" X c #C28420",
".X c #C88C21",
"XX c #CD9222",
"oX c #C69422",
"OX c #D29522",
"+X c #D49A23",
"@X c #DA9E23",
"#X c #DDA324",
"$X c #D6A023",
"%X c #E1A624",
"&X c #E5AA24",
"*X c #E9AE24",
"=X c #ECB125",
"-X c #B98758",
";X c #AA8851",
":X c #A7986D",
">X c #BAAD78",
",X c #959560",
"<X c #C88D57",
"1X c #C9935C",
"2X c #D5945B",
"3X c #C8834C",
"4X c #CB9763",
"5X c #D39B63",
"6X c #DA9E64",
"7X c #D19F69",
"8X c #DCA167",
"9X c #DDA469",
"0X c #DBA76D",
"qX c #D9AB73",
"wX c #DDB57A",
"eX c #C6A572",
"rX c #E1A56A",
"tX c #E2B87D",
"yX c #E1AE72",
"uX c #DD9D61",
"iX c #737A87",
"pX c #7A8393",
"aX c #8A8A8A",
"sX c #828282",
"dX c #979797",
"fX c #808999",
"gX c #92B08C",
"hX c #A6A5A7",
"jX c #919CB0",
"kX c #C9B883",
"lX c #D4B98E",
"zX c #E1BC81",
"xX c #C7BABB",
"cX c #DBC589",
"vX c #DECA95",
"bX c #E3C78A",
"nX c #E4CE92",
"mX c #E5D194",
"MX c #E7D599",
"NX c #DFCEBA",
"BX c #ADB9CE",
"VX c #B8C4D8",
"CX c #C8C7C8",
"ZX c #D4D6D6",
"AX c #C6D4EB",
"SX c #E7E9EA",
"DX c #FBFBFC",
"FX c #EDF2F3",
"GX c #DEE2E8",
/* pixels */
"                                                                                                                                                                ",
"                                                                                                                                                                ",
"                                                                                                                                                                ",
"                                                                                                                                                                ",
"                                                                                                                                                                ",
"                                                        @ :               @ .                         , , p                                                     ",
"                                                        ; ;             0 ,.X.                        x m.,.                                                    ",
"                                                      +     X , g   p > - kX<.@                   p u   MXY.u                                                   ",
"                                                  @ ,.:X7Xm.u e.8.f e.V - CXlXP.q > a             u u   MXI.u                                                   ",
"                                                  . ,.bX5Xm.h t.r.h F.7.- ZXNX6X5 > f             x D   MXY.x                                                   ",
"                                                  . +.5XD 8.t.h 8.F.f.m - ZXNX1X5 B F.h , p     x >XcXMXMXkX3Xx     p u p p g                                   ",
"                                                  X S U.V 8.t.j 8.G.0.n S GXNX1X; j H.7.h j   j V eXbXbXzXtX5XC g   D x u p a                                   ",
"                                                  , u d F.8.f F.G.q.# o.vX  zX<X5 j J.H.H.F.d 6.H.uX6X9X9X9X2XB.N s eXmX      u                                 ",
"                                                  7.8.8.S.w.N S.q.c ,.I.MX  wX1X5 B J.F.D.f.d h w.L.T.T.R.A.A.s.c U ].,X    m.u                                 ",
"                                                d F.J.J.d.u.u.y.m = kXMX  mXzX4X5 B K.d.u.q.d u d F.J.H.d.u.s.d w _.H %.mXtXP.u                                 ",
"                                      a g g a 7.e.f.w.6.M Z q.k ..,XlXmXmXzXY.S 7.w.f.V h m w F Q V 7.6.M M m E Q.).! / %.-XB.u                                 ",
"                                      d i u u 8.H.d.M i i M Z > #.bXnXbXcX7X+.$ t.S.9.g u 3 F T ^ 8 3 3 3 p 3 Q.~.^.`.! K ;XN.s                                 ",
"                                    f t.f.0.i N d.h 7.F.F.7.2 e.H.T.8XyX7XA x 0.d.9.f       F T ~ W.E.E.E.'.    (.~.^.W.^ E U p                                 ",
"                                    d F.S.Z i M Z i 8.J.J.w.a w.t.G.3X<XU.4 3 0.9.M u       K T ^ E.E.E.E./.    (.^.~.W./ F 9 u                                 ",
"                                    d H.e.u u u i , 8.J.J.J.F.> k d.y.d.s.$ $ u i g             G G G G G Q.^.~.^.~.~.Q., , , u u u u                           ",
"                                    d H.r., I 9 u j e.J.D.S.w.y q m M M m 7 F w 2 >             K ( [.].].'.E.!.~.~.Q.` 6.m.D a a x #.                          ",
"                                    d F.r.p E.R d F.J.J.d.N 3 ^ W . . o o E.).~ % . - jXAXAX          DXDXgXG !.~.!.9 7.K.yXMX      cXD u                       ",
"                                      7.8.r.` Z e.f.w.6.N c W ~ ! Y Y H Y ^./._.W % @ *.5.>.; + + X 4.GXDXZXgX'.E.!.9 6.J.T.uXmXqXqXqXC p                       ",
"                                      , 6.H.f 8.H.d.N p a P _.^ ).~.~.~.^.^.)._._.W . . . . . . . . >.AXDXDXFX( Y !.8 6.J.J.T.nX0X6X<Xx p                       ",
"                                      u N d.d N d.h m.hXxX2.7 W.^.~.^.~.^.).`.~ _.~ W % ; r A *.r r r *.BXFXFX( Y ~.E.` N w.R.0XrXU.D w I                       ",
"                                      < m Z k m 9.u 1.BXFXaXo Q.E.E.E.!./.`._._._.~ ^ : r 4.;.>.;.4.=.- jXZXFX[.R !.~.R i 9.V.1X<XN.3 F K                       ",
"                                . . . . . # Q.E i $ @ y BXiX. o o o o 6 _.~ _._._.W : A fXGX1.-.:.ZXhX-.- 4.AXFXgXH !.R i 9.y.y.M w ^ H w u p p p               ",
"                                X.X.X.X.O.O.R L 0 @ > x iX1.X.X.X.X.X.Q W W ^ ~ W y y =.aXCX2.1.4.CXhX-.e *.pXSXgXG !.Q.I C Z Z w E _.H F x s u p               ",
"                              ; kXmXmXmXmXcXy 6 ~ % V H.> ,.nXnXmXvXMXI.. . 6 ~ % y -.-.1.aXaXaXaXaX2.;.;.e .   ].G E.~.!.9 i p E./.~ G E mX      u a           ",
"                            O.<.<.:XvX<.,XcXI.( 6 @ 3 V ,.:XnXzXwXzXvX>X<.<.Q 6 o -.hX3.:.=.=.=.=.=.>.2.dX:..     G !.~.~.R E R !./._./ / ].wX  5Xx a           ",
"                          . ,.cX= ,.kX* @.mXMX<.. @ . ; >XmXbX7X5X8XcXmXMXMXI.@ . 4.DXdX-.. X . . . t aXSXaX.     H E.~.~.~.~.~.~./._._.! K >XzX4XC a           ",
"                          . ,.cXg.;XcXN.;XmXmXeX:X:X:X:XqXqX7XS q A 4XzXmXmXeXI.= =.hX&.c p.v.{.v.i...t dX:..       R E.~.~.~.~.~./._.`.! K :XY.V               ",
"                          . ,.bX|.5XbX|.1XnXmXmXnXnXnXbX4X1X-X0 + + Y.qXmXmXwX4X4 r 2.5 v }.%X=X*X X{ = 1.=..       F Y ^.~.~.~.^.)._._.! J ;XN.i               ",
"                          . +.wXzXbXnXcXcXmXmXtX9XyX0X4XA > e CX3.. * ,.mXmXtX1X5 X ; } C.%X&X*X*X%X.Xi.0 @ .       J Y ^.~.~.~.)._._._.! F k x                 ",
"                          . ..Y.zXcXbXbXbXbXbXyX6XY.Y.P.* ; ;.SXdX. . o.mXbXwX1X4 . O i..X*X*X*X*X*XOXz.2 . +       J Y ~.~.~.^.`._._._.! F 8                   ",
"                              4 1X9XuX9X9XuX8XrX1X4 . . . 4.DXDXdX. . o.nX0X9X4X4 . X i.XX*X*X*X*X*XOXz.& .         J Y ~.~.~.^.`._._._.! J                     ",
"                        @   @ O ..+.+.+.+.+.+.+.@.3.I.iX- r 3.sX=.@ ..Y.wX9XY.+.t ; . k g.XX&X*X*X=XOXz.2 .         F Y ~.~.!.)._._._.Q P J                     ",
"                        . . . . o o . . . . . . ; ZXDXFXt X . . . = -X8X8X8X+.o =.t . . l n.#X*X*X*XOXz.& o         K Y ~.~./.~ _.~ ~ 8 8 J                     ",
"                  + + _ l.l.l.l.l.v .   - - aX;.@ -.:.:.dX:.O ,.P.P.4X8X5X+.5 . ; : X | {.@X&X*X*X=XOXz.> @         J Y ~.).`._._./ w w.7.9                     ",
"                0 & # | *X$X#X*X=Xg.#     ; ZXsX: . @ e CXaX5 <X8X8X4X<X-X0 + + X . = {.%X*X*X*X*X*X+Xz.& .         F Y ^.`._._.~ Q f G.f.p                     ",
"              +  .oXoX}.v.8 ] }.*X.Xp.* ;   e ].CXy 1.CX=.,.<X5X8X4Xq ; 0 1.2.2.    O.5 | *X*X*X*X*X+Xz.* .         J T `._._.~ w B G.rXzX  g a                 ",
"              . | =X#X}.| 8 ] }.&XXXj.& @   @ 4.xXy :.CXA +.8X6X1XY.= . + :.2.4.  1.>.; _ oX#X*X*X#XXXz.& @         F T _._._.~ 3 6.K.zXMX  g a                 ",
"              . | *X XC 1 .X#X*X=XOXj.# . . @ @ + . X ; Y.5X6XrXN.X . . . . @ - 2.2.>.>.t 1 XX*X&X}.b.z.> @         J T _._._.~ 8 6.K.tXMXMX    p               ",
"              _ l.XX} )  .#X#XXXl.k.j.# 4 S +.-.X.......4X-XN.<.+.) ) ) ) l 2 X =.;.1.:.e # {.OXOXb.c.z.* .           T / ~ _.~ 3 N G.8XzXzX  $.u               ",
"          . * XXXXj.&  .=X*XOXj.# l j.$ ..rXbXmXnX9X8X6XrX#.. o [ =X=X*X&XC.b . . e aX    # j.b.x.b.b.z.& @             J ^ _.~ 3 M y.<X6X6X0XB.u               ",
"          . O ) h.j.& 8 |  Xh.v b p.x.] _ #.eXzXwX9X8X5X#.$.| ' [ | $X*X&X+Xk.v $ - aX1.=.e c } b.b.i.l X @             G ^ _.~ W _ M m.m.m.m.$.                ",
"          . o . n j.# . = j.b # j.c.V.Z.C = Y.6X4X5X5X1X0  .&XZ.' * oX*X*X=XOXx.1 +   :.;.-.@ k V.x.] . X X O           J ^ _._._.W , < , u u p                 ",
"          X .   q 2 . X   1 v a.c.{ 2 4 0   q q q 0 q q l.}.c.9 ) }.&X=X*X*X%X+Xj.n + =.;.  . O 2 2 # X ] i.p.1           T T _._.~ / F w                       ",
"            +   + . * 1   & v a.a.v . .     X . . . . O oX.X| 8 | =X#X+XoX%X*X&XC.' . =.;.  X O 4 . O 2 j.b.x.9 1         J T _._._.^ H L                       ",
"              + . # i.b = j.C X # +                 + # oXg.2 }.&X&X X .& oX*X*XC.b . =.;.-.@ S -X4 9 x.x.x.c.x.C .       K T _._.! K                           ",
"              X . * } 9 O ] n @ +                     X g.) & oX&XXXi.' v +X%XOXC.' . t r r t +.P.z ]  X Xn.b.b.| 3       L T / ! T J                           ",
"              @     @ . . o -                         . . o & oX+Xk.# ) *X*XOXb.b.' . . . = -Xm.+ a. X*X*XOXx.b.c.V.1 @       J J J J                           ",
"                  : . @ = . :                         . - + X ) a.z.# ) &XOXa.c v 2 X ..,.#.+.$.] }.@X*X*X@XXXb.V.z.2 @           L J                           ",
"                : . .     . :                         X     . . l j.# ) %Xn.C . . . O -X6X4X* z C.%X*X*X*X*X*Xn.x.V.1 .             J                           ",
"                        X . +                           - . .   8 8 . & v z.b X #.I.P.B.B.j.# ) @X&X*X*X*X*X&X#X.Xx.p.n +           J %                         ",
"                        . .                             X . .     . . + y i.b & -X2X2XB.y.s.# ) *X*X*X*X*X*X*X*XOXc.Z.] .           F o @                       ",
"                                                          + . . . . . :.ZXt s s.y.d.M.<X2X-X* ) *X*X*X*X*X*X*X*XOXc.Z.] . . . . o +   @ . . . +                 ",
"                                                          q l q * . q :.hX; l B.B.B.B.1X8X1X* ) *X*X*X*X*X*X*X%X.Xx.i.l . 2 9 2 . .   X . . X +                 ",
"                                                        o [ #XC.C = -XP.. . +.6X6X6X6X6X8X1X* ) *X*X*X*X*X*X&Xn.c.x.2 . X p.Z.j.2 . . . +       X               ",
"                                                        @ [ *XXXh.v #.@.+...P.6X8X6X6X6X<XA.= v OX%X*X*X*X@XOXb.c.x.C 2 X i.Z.V. .[ ) # @       X               ",
"                                                        . [ *X*X+Xj.# ..6X6X6X6X2X6X6XrXU.s.$ z b.#X*X*X*XXXc.c.Z.c.Z.] X p.c.Z.#X*X#X8 . X     .               ",
"                                                        @ [ *X*XOXj.$ z B.B.B.B.B.B.B.B.A.3XP.+.l c. X X XC.c.b.c.c.c.j.{ z ' Z.}.OX&X{.l.l.q X . +             ",
"                                                        o [ #X*XOXV.1 3 s.u.y.y.y.y.y.y.A.rX9XN.O h.b.c.x.b.Z.c.c.c.c.b.V.2 9 Z.c.}.*X*X*X#X9 X X . +           ",
"                                                          0 l +X&X+Xj.C 2 U.2X<X<X2X<X<X2X8X6XN.O h.b.b.b.Z.x.c.c.Z.c.c.V.1 k c.c.Z.C.C.C.C.h.i.i.& +           ",
"                                                            & }.%X@Xn.} 8 P.Y.Y.1X2X6XrX8X8X8XP.q | i.i.i.j.b.c.c.c.b.z.p.= k b.b.c.x.b.b.c.b.z.p.4             ",
"                                                            # k.b.b.b.x.j.2 X $ 9.U.6XrX8XrX8X8X<X5 . X . v b.x.c.c.b.] . . k b.b.c.b.c.b.b.b.] O               ",
"                                                          X X v p.b.b.b.V.b l l x C #.#.#.#.#.#.#.z 2 . 9 i..X.X.X.XXXz.[ v v ] z.b.b.b.h.C ] c :               ",
"                                                        @ . . . l b.c.b.x.Z.b.x.2 . . . . . . . X 9.B O a.XX=X*X*X*X=X*X*X X] X i.b.b.Z.{ . . X                 ",
"                                                    : : . 9 g.g.v.OXb.b.b.b.b.x.{ 9 . :           9 2 O a.h.' ) l.*X| ) [ z.h.' c l l l z                       ",
"                                                  X . . . [ &X=X*X&Xn.b.c.c.c.c.Z.' O             X . O i.C . . _ +X9 o X | c.x.2 . . . @                       ",
"                                                +   + .   q c +X=X*X%X.Xc.c.b.c.Z.z.p.1         -       1 4     t 8       4 b b.h.b .                           ",
"                                                +     %     - {.+X%X%XXXc.c.b.b.c.b.x.& .       +       +         .     VX- q h.V.{ X                           ",
"                                            +     X :         = ) Z.C.n.c.Z.b.b.Z.Z.x.2 .   X -   AXpX@           .           > j.{ X                           ",
"                                            X +   . +         . 3 { { { { { { { { { ] # @   . +   pX5..         : .         : X C l .                           ",
"                                            X . . . . . . . . . . . . . . . . . . . . . X   . . . . X . . . . . . . . . . . . . . . X                           ",
"                                                                                                                                                                ",
"                                                                                                                                                                ",
"                                                                                                                                                                ",
"                                                                                                                                                                ",
"                                                                                                                                                                "
};
