/* XPM */
static char *_02f80d283f141acd0e4bed3b25aaf8aYOHqNyi1fzlLTNZ2[] = {
/* columns rows colors chars-per-pixel */
"80 80 143 2 ",
"   c None",
".  c #010100",
"X  c #0A0500",
"o  c #0F0A01",
"O  c #070809",
"+  c #0D0D0C",
"@  c #150C00",
"#  c #190D00",
"$  c #1E1201",
"%  c #1F1D0A",
"&  c #151515",
"*  c #1B1B1C",
"=  c #331E00",
"-  c #3D2400",
";  c #332F0B",
":  c #3B360D",
">  c #3E390C",
",  c #29241C",
"<  c #252525",
"1  c #2C2925",
"2  c #272728",
"3  c #272828",
"4  c gray18",
"5  c gray20",
"6  c #3D3C3C",
"7  c #4C2E00",
"8  c #403B0E",
"9  c #593600",
"0  c #573D14",
"q  c #693F00",
"w  c #443A2C",
"e  c #463F35",
"r  c #413E3A",
"t  c #4C4611",
"y  c #684302",
"u  c #6B4408",
"i  c #7E4C00",
"p  c #655E17",
"a  c #685C14",
"s  c #6B631F",
"d  c #786F1B",
"f  c #5E4B2F",
"g  c #585324",
"h  c #43403C",
"j  c #494238",
"k  c #5C5938",
"l  c gray25",
"z  c #4C4D4D",
"x  c #5D5649",
"c  c #535353",
"v  c #5A5A5A",
"b  c #635B4F",
"n  c #6F614A",
"m  c #73644E",
"M  c #69645C",
"N  c #7F7059",
"B  c #636363",
"V  c #696969",
"C  c #717172",
"Z  c #834F00",
"A  c #865201",
"S  c #965B01",
"D  c #9A5D00",
"F  c #8E5C10",
"G  c #9C630B",
"H  c #9F6710",
"J  c #877C1F",
"K  c #967916",
"L  c #967E1A",
"P  c #A46501",
"I  c #AB6B0A",
"U  c #BE7301",
"Y  c #BB7E09",
"T  c #855E24",
"R  c #847D3A",
"E  c #C27500",
"W  c #C37902",
"Q  c #CC7D01",
"!  c #95851F",
"~  c #968A22",
"^  c #A49826",
"/  c #B59D22",
"(  c #B2A429",
")  c #B5A82A",
"_  c #BBAD2C",
"`  c #BFB12C",
"'  c #D68300",
"]  c #DC8400",
"[  c #CD9512",
"{  c #E08700",
"}  c #E38800",
"|  c #EF8F00",
" . c #EF9000",
".. c #E6990A",
"X. c #EF9F0B",
"o. c #F59400",
"O. c #FA9600",
"+. c #FF9B00",
"@. c #F19A06",
"#. c #FFA306",
"$. c #FFAB0C",
"%. c #FFB00E",
"&. c #E4AE1A",
"*. c #E8B41C",
"=. c #FCB414",
"-. c #F0B71B",
";. c #F1BC1E",
":. c #FFBB18",
">. c #C4B42C",
",. c #CDBE2F",
"<. c #FFC51F",
"1. c #DCCC33",
"2. c #F2C323",
"3. c #FFC620",
"4. c #FFCC24",
"5. c #FFD126",
"6. c #FFD72C",
"7. c #FFDA2D",
"8. c #E6D535",
"9. c #EFDE37",
"0. c #FDDC30",
"q. c #EFE038",
"w. c #FFE435",
"e. c #F5E338",
"r. c #FAE739",
"t. c #FFEC3B",
"y. c #FFF03C",
"u. c #888073",
"i. c #868686",
"p. c #898A8A",
"a. c #8F8F90",
"s. c #999690",
"d. c gray58",
"f. c #B0AFAE",
"g. c #B3B3B3",
"h. c #BABABA",
"j. c #C2C2C2",
"k. c #CDCDCC",
"l. c #D7D7D7",
"z. c #DDDDDD",
"x. c gray90",
"c. c #EBEBEB",
"v. c #F9F9F9",
/* pixels */
"                                                                                                                                                                ",
"                                                                                                                                                                ",
"                                                                                                                                                                ",
"                                                                                                                                                                ",
"                                                                                                                                                                ",
"                                                                                                                                                                ",
"                                                                                                                                                                ",
"                                                                                                                                                                ",
"                                                                                                                                                                ",
"                                                                                                                                                                ",
"                                                                                                                                                                ",
"                                                                            + . . &                                                                             ",
"                                                                            + . . +                                                                             ",
"                                                                          u.u y a s                                                                             ",
"                                                                        . =  .#.w.q.; .                                                                         ",
"                                                                        . =  .$.w.9.; .                                                                         ",
"                                                                        . = | #.w.9.; .                                                                         ",
"                                                                        O =  .#.w.9.; .                                                                         ",
"                                                                        . = | #.w.9.; .                                                                         ",
"                                                                      d.$ 7 @.$.w.9.t %                                                                         ",
"                                                                    * 0 ] ..0.w.t.t.8.1.g *                                                                     ",
"                                                                    . 7 O.$.r.t.t.t.t.r.t .                                                                     ",
"                                                                  p.. 7 O.$.r.t.t.t.t.r.t .                                                                     ",
"                                                6 l 6 6 6 6 6 6 6 < . 7 O.$.r.t.t.t.t.r.t . < l 6                                                               ",
"                                              & . . . . . . . . . . . 7 O.$.w.t.t.t.t.r.t . . . . . . . . . . . &                                               ",
"                                              & . . . . . . . . . . . 7 O.$.r.t.t.t.t.r.t . . . . . . . . . . . &                                               ",
"                                              & X i S L ~ ~ ~ ~ ~ ~ ~ / 4.4.t.t.t.t.t.t.) ~ ~ ~ ~ ~ K S S S i X &                                               ",
"                                              & @ ' #.7.y.y.y.y.t.y.y.y.t.t.t.t.t.t.t.t.t.y.t.y.y.y.5.+.+.+.' @ &                                               ",
"                                              & @ ' #.7.t.t.t.t.t.t.t.t.t.t.t.t.t.t.t.t.t.t.t.t.t.t.5.+.+.+.' @ &                                               ",
"                                              C M F D &.4.w.t.t.t.t.t.t.t.t.t.t.t.t.t.t.t.t.t.t.t.t.4.+.} S F M C                                               ",
"                                                  < X U +.4.t.t.t.t.t.t.r.e.r.t.t.t.t.t.e.e.t.t.t.t.5.+.U X 3                                                   ",
"                                                  < . E +.5.y.t.t.t.t.r.d : ( t.t.t.t.>.8 p e.t.t.t.5.+.U X 3                                                   ",
"                                                  v r H E *.6.w.t.t.t.r.t . ~ t.t.t.y.( . ; 9.t.w.7.*.E G h v                                                   ",
"                                                      r . P +.4.t.t.t.r.t . ~ y.t.t.t.( . ; q.t.<.+.P X r x.                                                    ",
"                                                      6 . P +.<.t.t.t.r.t . ~ y.t.t.y.( . ; q.y.<.+.P . 6                                                       ",
"                                                      c * G } -.w.w.t.r.t . ~ y.t.t.y.( . ; q.t.;.} G * c                                                       ",
"                                                      x.k.x # S #.<.t.r.t . ~ y.t.t.y.( . ; 9.t.! @ b z.l.                                                      ",
"                                                        c.c . A +.:.t.r.t . ~ t.t.t.t.( . ; 9.y.J . v v.                                                        ",
"                                                        v.v . A +.:.t.r.t . ~ y.t.t.y.( . ; 9.y.J . c c.                                                        ",
"                                                        v.v . A O.:.t.r.t . ~ y.t.t.y.( . ; 9.y.J . c c.                                                        ",
"                                                        c.c . A +.:.t.r.d : ( t.t.t.t.>.> p e.y.J . v v.                                                        ",
"                                                        c.c . A +.:.t.t.r.e.r.t.t.t.t.t.e.r.t.t.J . v v.c.                                                      ",
"                                                      i.B T S [ 4.6.t.t.t.t.t.t.t.t.t.t.t.t.t.t.,.~ R B p.c.                                                    ",
"                                                      6 . P +.<.t.t.t.t.t.t.t.t.t.t.t.t.t.t.t.t.t.y.^ . 6 c.                                                    ",
"                                                      6 . P O.<.t.t.t.t.t.t.t.t.t.t.t.t.t.t.t.t.t.y.^ . 6 c.                                                    ",
"                                                      6 . P +.3.t.t.t.t.t.w.4.4.4.4.w.t.t.t.t.t.t.y.^ . 6 c.                                                    ",
"                                                      6 . P +.3.t.t.t.t.t.0.+.+.O.+.7.t.t.t.t.t.t.y.^ . 6 x.                                                    ",
"                                                      6 . P +.3.t.t.t.t.t.7.#.+.+.#.0.t.t.t.t.t.t.y.^ . l c.                                                    ",
"                                                  j.f.f - Y %.4.t.w.6.0.7.2.W U U W 2.7.6.6.w.t.t.t._ > k g.j.                                                  ",
"                                                  5 o U O.4.t.t.t.4.+.+.+.Q @ X X @ Q +.+.+.4.t.t.t.r.r._ + 4                                                   ",
"                                                l.< . U +.5.t.t.t.4.+.+.+.Q @ . . o Q +.+.+.4.t.t.t.t.y.` X 3                                                   ",
"                                                l.2 . U +.3.w.w.w.;.{ { ] U , * * , U } { { -.w.w.w.w.y.` X 3                                                   ",
"                                                  2 X E +.+.#.#.$.P # $ # w k.k.z.k.w # $ $ P $.#.#.:.y.` X 3                                                   ",
"                                                  2 . E +.+.O.+.+.S . . . 5 c.    x.4 . . . S +.+.O.=.t.` X 3                                                   ",
"                                                  1 o E +.O.o.o.O.S O O . 6 x.    c.6 . O O S O.o.o.=.t.` o 1                                                   ",
"                                              z e I E | +.Z - - - m h.g.h.j.c.      j.g.    n - 7 = A $.X.U I j z                                               ",
"                                              & @ ' +.+.+.9 . . . B                         V . . . 9 O.+.+.' @ &                                               ",
"                                              & @ ' +.+.+.9 . . . B                         V . . . 9 +.+.+.' @ &                                               ",
"                                              & . 9 q q q N a.d.i.                                    q q q 9 . &                                               ",
"                                              & . . . . .                                             . . . . . &                                               ",
"                                              & . . . . .                                             . . . . . &                                               ",
"                                                  B B B B                                                                                                       ",
"                                                                                                                                                                ",
"                                                                                                                                                                ",
"                                                                                                                                                                ",
"                                                                                                                                                                ",
"                                                                                                                                                                ",
"                                                                                                                                                                ",
"                                                                                                                                                                ",
"                                                                                                                                                                ",
"                                                                                                                                                                ",
"                                                                                                                                                                ",
"                                                                                                                                                                ",
"                                                                                                                                                                ",
"                                                                                                                                                                ",
"                                                                                                                                                                ",
"                                                                                                                                                                ",
"                                                                                                                                                                ",
"                                                                                                                                                                ",
"                                                                                                                                                                "
};
