/* XPM */
static char *e8b253d777114402d48152d880070df534lw73qNLu4RykO6[] = {
/* columns rows colors chars-per-pixel */
"80 80 154 2 ",
"   c #00570E",
".  c #015A0F",
"X  c #0A5E0C",
"o  c #005711",
"O  c #005910",
"+  c #0E600A",
"@  c #146406",
"#  c #1A6702",
"$  c #1E6900",
"%  c #136309",
"&  c #186608",
"*  c #216B00",
"=  c #296F00",
"-  c #2D7100",
";  c #337400",
":  c #3A7700",
">  c #3E7900",
",  c #427B00",
"<  c #4A7F00",
"1  c #4D8100",
"2  c #558500",
"3  c #548400",
"4  c #568500",
"5  c #578500",
"6  c #558600",
"7  c #568600",
"8  c #578600",
"9  c #558602",
"0  c #528300",
"q  c #588600",
"w  c #588700",
"e  c #598700",
"r  c #5A8700",
"t  c #5B8700",
"y  c #598700",
"u  c #578900",
"i  c #5A8800",
"p  c #5B8800",
"a  c #5B8A00",
"s  c #5A8A01",
"d  c #5A8902",
"f  c #5C8800",
"g  c #5C8900",
"h  c #5D8900",
"j  c #5E8900",
"k  c #5F8900",
"l  c #5C8A00",
"z  c #5D8A00",
"x  c #5D8B00",
"c  c #5E8A00",
"v  c #5F8A00",
"b  c #5E8B00",
"n  c #5F8B00",
"m  c #5B8A01",
"M  c #608A00",
"N  c #618A00",
"B  c #608B00",
"V  c #618B00",
"C  c #628B00",
"Z  c #608C00",
"A  c #618C00",
"S  c #608D01",
"D  c #628C00",
"F  c #638C00",
"G  c #628D00",
"H  c #638D00",
"J  c #628E00",
"K  c #638F01",
"L  c #608D02",
"P  c #648D00",
"I  c #668D00",
"U  c #658E00",
"Y  c #648F00",
"T  c #668E00",
"R  c #668F00",
"E  c #678F00",
"W  c #618E01",
"Q  c #688E00",
"!  c #688F00",
"~  c #698F00",
"^  c #639001",
"/  c #649100",
"(  c #679000",
")  c #669200",
"_  c #679201",
"`  c #669201",
"'  c #689000",
"]  c #699000",
"[  c #689100",
"{  c #699100",
"}  c #6A9000",
"|  c #6B9000",
" . c #6B9100",
".. c #699200",
"X. c #699300",
"o. c #6C9100",
"O. c #6C9200",
"+. c #6D9200",
"@. c #6D9300",
"#. c #6E9200",
"$. c #6E9300",
"%. c #6F9300",
"&. c #6A9401",
"*. c #6D9400",
"=. c #6D9500",
"-. c #6E9400",
";. c #6F9500",
":. c #6E9501",
">. c #6D9501",
",. c #709400",
"<. c #719400",
"1. c #719500",
"2. c #729500",
"3. c #719700",
"4. c #739600",
"5. c #749600",
"6. c #759600",
"7. c #749700",
"8. c #759700",
"9. c #769700",
"0. c #709701",
"q. c #709801",
"w. c #719801",
"e. c #729800",
"r. c #739800",
"t. c #749800",
"y. c #759800",
"u. c #759900",
"i. c #769800",
"p. c #779800",
"a. c #749A01",
"s. c #769B01",
"d. c #759A01",
"f. c #799900",
"g. c #799A00",
"h. c #799B00",
"j. c #7A9A00",
"k. c #7B9A00",
"l. c #7A9B00",
"z. c #7B9B00",
"x. c #7C9B00",
"c. c #7D9B00",
"v. c #799C00",
"b. c #7A9C00",
"n. c #7D9C00",
"m. c #7E9D00",
"M. c #7F9D00",
"N. c #7C9E00",
"B. c #7F9E00",
"V. c #7E9F00",
"C. c #7F9F00",
"Z. c #819E00",
"A. c #809F00",
"S. c #839F00",
/* pixels */
", , < k.o.C k.H > , , < < , , , , < 3 0 0 : , , 3 , , , , , , , , , , , , , , , , , , , , , , , , , , > < 7 0 < > , , , , , 0 1 3 > < 3 0 < , , , 3 , , > T k.C ",
", , , 1 o.o.C > , , , , , > , , , < - * < , , , 5.t : , , , , , , , , , , , , , , , , , , , , , , , , > ' ' H -.> , , , > 1 : $ > < < = = < , , , k.7 : , , H ' ",
", , , : C 6.< , , , , , , , , , , , $ # ; < , : o.o., , , , , , , > , , , , , , , , , , , , , , , , , > v.p 7 N., > , , , < * $ = 0 > $ $ : < > : a.T : , > < <.",
"1 , , > q 2., , , , , , , , , > < : $ * = < , , p 6., , , , , , , , , , > , , , , , , , , , , , , , > < v.1 < k.1 > , , < , * * $ 0 ; $ $ - < , : H 2.> , > < 2.",
"< , , > q 6.: , , , , , , > , > < ; $ * = < > , , 0 , , , , , , , , , 0 , , , , , , , , , , < 1 > , , < 0 > > 0 < > , , , > $ * $ 1 ; $ $ = < > , < 3 , , , > 6.",
", , , : 0 T > , > , , > , , > < 7 ; $ * $ 0 1 > , 1 q , , , , , , , , 2.< > , , , , , , , > p ' > , , > > , , > , , , > 7 : $ * $ , - $ * = 0 < , , : , , , , T ",
", > , , , < , > 0 p h 1 , , > 0 , * $ * $ ; 7 , < < , 1 : , , , , , < a.< > , , , , , , , : h o.> , , , , , , H < > > 1 1 = * * * = * * * $ : 0 , , , , , , , < ",
", , , , , , , : 6.H -.( : > < , $ * * * * # - 1 < = $ , < , , , , : 1 k.< , , > , , , , , > C <., , , , , > 0 N.< , , < * $ * $ * $ * * $ * $ ; < > , , , , , , ",
", , , , , , , , N.0 H a.> > < ; $ * $ * * * * 1 > $ $ - 1 > , , , : t 9.q : , , , , , , , : o.2.1 > , > , > n v.> , < : $ * * * * * * $ * * $ = < , , , , , , , ",
", , , , , , > 1 r., 1 2., , < - $ * * * * * $ 1 : $ * = < , , , , 1 <.T 5.< , , , , , , , h o.~ ( , , , , > H n : , < ; # * * * $ * * * * * * * < , > , , > , , ",
", > , , , , , , < , > < , , < = $ * * * $ * $ 1 : $ $ = 1 > , > < c.o.C o.Z.< , , , , : h Z.F h k.' > , , , 1 , , > < ; $ * * $ * * * * * * * $ , , , , , , > , ",
"> < q 7 , , , , > , , , , > < = $ * * $ * * $ ; - $ * * 1 0 , > 1 Z.~ h ~ Z.< : , , < : F N.C C C 2.< > , , > , , < 7 = $ * * * $ * * * * * * $ , q , > 0 h 1 > ",
"> 0 ; : 1 > , , , > , , , , < = $ * * * < - $ * * * * $ = 1 < , , 7 6.C 2.7 , , , o.1 > , T <.C C o.1 > , , , , , 1 ; $ * * < = $ * * * * * * * * < < , < - 1 < ",
"1 > # * , < , , , , , , , > < ; $ * $ ; -.= $ * * * $ * # - < > , : q 2.p : , , 0 Z.< , , > o.T h o.1 > , , , > 1 : # * # > -.$ * * * * * * $ * * * < < = # - 1 ",
"3 ; * $ : < , , , , , , , , < > $ * # , &.$ $ * * * * * * * < , , , < k.1 > , : C k.> , , > H ' C ' C : , , , > 1 - * * # 1 ^ # $ * * * * * * $ * $ < < $ $ = < ",
"3 = $ $ ; < > , , , , , , , , 1 > * # , , $ * * * * * * * * , , , > < k.< > , , h 7 > , , > q ' C H 6.p , , , > 1 * $ $ $ 1 : $ * * * * * * * * * $ , , $ $ $ < ",
"3 = $ $ ; < , , , , , , , , , , t ; $ = * * * $ * * * * * $ , , , > < 6.< > , , , , , , , > q o.C C T Z.< > , , < * $ * * = * $ * * * * * * * * * $ > , # * * 1 ",
"; * $ * * 0 < , , , , , , , , : < ; $ * $ * * * * * * * * $ , < , , , 0 , , , , , , , , , > q o.C h 2.6.< , , , < * * * * $ * * $ * * * * * * * * $ - - $ * $ ; ",
"* * * * * * < < , , , , , , , > < : * * * * * * * $ * * * $ , , > , , , > , , , , , , , , > t ~ C T o.< > , , , < = $ * $ * * * * * * * * * * * * * * $ * * * * ",
"* * $ * * $ ; < , , , , , , , , , , $ * * * $ * * * * * $ = < , , , , , , , , , , , , , , > T ~ h o.7 > , , , > < ; $ $ * * * * * * * * $ * * * * * $ * * $ * * ",
"* * * * * $ = < , , , , , , , , , < = * * $ * * * * * * $ ; < > , , , , , , , , , , , , , < <.C C o.< > , , , , < , * * * * * * * * * * * * * $ * $ * * $ * * * ",
"* * * * * * * < , , : , , , , , , < 3 = $ * $ = * $ * $ : 3 , , : , , , , , , , , , , : 1 9.~ C C o.< > , , , , , 0 , * $ * * * * * * * * * = * * * * * * * * $ ",
"* $ * * * * * < < , , , , , , , , > 0 , $ * $ , ; $ * * 0 < > , < 3 , , , , , , , , , : ~ N.h C ' 6., , , , , , : < h = $ * $ * * $ * $ $ = 1 $ * * * * * $ * * ",
"* * * ; * * * : q , , , : 7 < , , , , , $ * $ < : $ $ = < , , < 3 < < , , , , , , , , , 1 k.' H c.q , , , , , , , 0 , * * * * $ = - $ * $ - 0 * $ * * * $ - - $ ",
"* * # 0 1 # * $ ; 1 > > < N.1 : , , , , * * $ 1 : $ $ = < , , < = $ < < , , , , , , , , > < o.o.7 : , , , , , , , , $ * * * * * ^ ; $ * $ - 0 = * * * * $ - ^ * ",
"* * # 0 ( $ * $ * 1 , > 7 A.< , , , , 1 = $ = < < $ $ ; < : < , $ $ ; < : , , , , , , , , > T 2., , , , , , , > < - $ * $ * $ = s.- $ * $ : 0 - $ * $ * $ = a.; ",
"$ * $ ; ^ * $ * $ , < : C o.> , , , , < , * > < < ; = < , , < : $ $ = < , , , , , , , , , , C -.> , , , , , , , < = $ * * * $ ; W * $ $ - 1 < < * * * * $ $ m 1 ",
"* * * * ; = $ * $ > < > < , , , , , , > 0 q 0 > < 7 7 < , > < ; $ * * < , , , , , > , , , : p o.: , > , , , , , < = * * $ * $ ; ; $ $ = 0 1 : 1 1 * * * * $ - ; ",
"* $ * $ $ * * * $ : 7 , > 1 q 1 , , , , , < , , > < < < h < < ; $ * = < , , , , > 1 h < , > q T < , , , , , > 1 1 $ * * * * $ * $ * $ ; n , > 1 n = $ $ $ * $ $ ",
"$ ; : $ * * * * * * , 1 , 1 : 1 , T 1 > , > , , , > , 1 : < 1 ; $ * = < , , , , < 1 ; 0 , < < : 1 , , , , , < 1 - $ * * * * : ; : $ $ * > 1 > 0 ; * * * > = * * ",
"$ H 1 # * * * * * * * < 1 ; # - < 2.' > , , , , , > < ; # - 0 : $ $ = < , , , : < - # ; 1 < $ # > < > , , > 1 - $ * * * $ : ' = q.- $ * $ > 1 ; $ * $ > &.$ $ * ",
"* 2.; # * * * * * * $ : 0 * $ * , T 2.> , , , , , , < * * * < < $ # : < , , , , < * $ * 1 : $ $ ; < , , , > < * * * * * # 1 ' * a.> # * $ ; 9 = $ * # 0 / $ * * ",
"- u * $ * * * * * * $ ; 1 $ * $ , 1 &., > > > > > > 1 $ * $ > 1 : ; < , , , , , , * * $ 1 ; $ $ - 1 > > , < > $ * * * * # 1 , # 1 > $ * $ - 0 = $ * $ 1 > $ * * ",
"= = * * * * * * * $ $ ; 1 $ * $ , < , , > 1 > 1 , 1 > $ * $ , 1 3 t < , , , : < , $ * $ 1 : $ $ = 1 > , : 1 > $ * * * * * - * $ = - $ $ $ - 0 * $ * $ - * $ * * ",
"$ * * $ * * * * * * * - ; $ * $ ; p > > 9 m 1 > , u : $ * $ : u , , , , , , , t ; $ * $ ; - $ * $ 1 7 > , p ; $ * * * * * $ $ * $ $ * * $ = ; $ $ * * $ * * * * ",
"* * * * * * * * * * $ * * * * * $ : 1 1 , = , 1 1 > $ * * * $ : < , , , , , < : * * * $ * * $ * $ * < < 1 : * $ * * $ * * * * * * * * $ * $ * * * * * * * $ * * ",
"* * * * * * * * * * * * * * * * * $ , 1 = # = 1 1 $ $ * $ * * $ < , , , , , , * * * $ * * $ * $ * $ - 1 , $ * * * * * * * * * * * * * * * * $ * * $ * * * * * * ",
"$ * * * * * * * $ * $ * * $ * $ * $ : 1 $ * $ 1 : # * * * * * $ : < : , , < : $ * * * * * * * * * * * 1 : # * $ * * * * * * * * * * * * $ * * * * * $ $ * * $ * ",
"= * * * * * * * * * * * * * * * * $ : 1 $ * # 1 : $ * * * * * $ ; < , , , < ; * * * * * * * * * $ * $ 1 ; $ * * * * * * * * * $ * * * * * * * * * $ = = $ * * * ",
"1 * $ * * * * * * * * * * * * $ * $ ; < $ * # 1 ; # * * $ $ * $ ; 0 , , , < ; $ $ * * * * * * * * * $ 1 ; $ * * * * * * * * * * * * * * * * * * * $ ; : $ * * * ",
"9 = $ * * * * * * * * * * * * * $ $ = = $ * $ - * * * * * - $ * * 0 0 : 1 0 * $ * * * * * * * * * * $ - * $ * * * * * * * * * * * * * * * * * * * # > < # * * * ",
"9 - $ * * * $ * * * $ * * * * * * * * * $ * $ * * * * $ - s = $ * * < < < * * * * * * * * * * * * * * * * * $ * * * * * * * * * * * * * * * * $ * # , < $ * $ * ",
"0 - # * * * * * * * * * * * * * * * * $ * $ * * * * * * * q.> # * $ ; 0 ; # * $ * * * * * * * * * $ * * * * * * * * * * * * * * $ * * * * * $ * * $ < < * * * * ",
"1 1 * $ * * * * * * * * * * * * * * * * * * * * * $ * * $ u 1 $ * * = 0 = $ * * * * * * * * * * * * * * * * * * * * * * * * * $ * * * * * * * * $ ; < < ; $ * * ",
"> 1 1 * $ * * * * * * * * * * * * * * * * * * * * * * * $ - : $ * $ = 3 = $ * * * * * * $ * * * * * * * * * * * * $ * * $ * * * * * * * * * * $ ; 7 , , 7 : $ * ",
", > 0 ; $ * * * $ * $ * * $ * * * * * * * * * * * * * $ * $ * * * * * , * $ * * * $ * * * * * * $ * * * * * * * * * * $ - ; * * * * * * * * * $ < 7 > , < < * $ ",
", , 1 ; $ * * * * * ; = * * * * * * * * * * * * * * * * * * * $ $ * * = * * * * * * * * $ = ; ; = $ * * * * * * * * $ - = = - $ * $ * * * * * $ = 1 < , , < * * ",
"1 > 1 > $ * * * * # u 0 # * * $ * * * * * $ * * * * * * * * * * * * * $ * * * * * * * * # 1 0 > ^ $ * * * * * * * * * = . O * * $ * * * * * * * $ = < , , < = * ",
"1 > , 1 * $ * * * # 1 ) $ * * * * * * * * * * * * * * * * * * * * * * * * * * * * * * * $ ) 1 - a.= * * * * * $ * $ = & . O % - $ * * * * * $ * * $ , < > < ; # ",
"1 : > 1 > $ * * * $ ; p * * * * * * * * * * * * * * * * * * * * $ * * * * * * * * * * $ $ m ; = m - $ * * * * * * * * % . . + = * * * * * * * * * $ : < > < < = ",
"1 > > , q > $ * $ * $ ; = $ * $ * * * * * * * * * * * * * * * * * * $ * $ * * * * * * * * ; $ $ - = $ * * * * * * $ = + O O X = $ * $ * * * * * * $ ; 1 > > 1 7 ",
"1 7 > > u , $ * * * $ * * * * * $ * * * * * * * $ * * * * * * $ * $ - > - * * $ * * * * $ $ * * * * * $ * * $ * $ = ; + O O . - - $ * * * * * * * $ - 7 < > < q ",
"= 1 < < , $ $ * $ $ = 1 : : $ * * * * * * * * * * * * * * * * * * * - % = * $ * * * * * * * * * 1 - 1 $ $ * * * * - % O O . O + - * * * * * * * * * $ : 1 , 1 ; ",
"$ * 1 1 * $ * * * # 1 n ; q.* * * * * * * * * * * * * * * * * * $ = + O + - * * * * * * * * $ : q.= q.- $ * * $ - & O . O O O O + - $ * * $ * * * * * $ > 0 ; # ",
"* $ 1 > $ * * * * $ ^ 1 = r.- $ * * * * * * * * * * * * * * * * * = O O O - * * $ * * * $ * # 1 / # &., # * * $ = + O . . O O O . - * * * * * * * $ * $ ; 0 = $ ",
"* # 1 : # * * * $ $ 0 - # 1 ; $ * * * * * * * $ * * * * $ * $ * * * O O O * * $ * * $ $ * $ $ , > # 1 > # * * * = . O O O O O O O * * $ * * * * * * * $ - 0 $ * ",
"* $ 1 : # * * * * * - $ $ = = $ * * * * * * * * $ $ $ * * $ * $ - * O O O = = $ * * - * $ * * - * $ * - $ * $ = - . O O O . O O . = * * * * * * * * * $ = 0 * * ",
"* $ = = $ * * * * * $ * * $ $ $ $ * * * * * $ * $ = - * $ * * * : % O O O % : * * ; ; ; * * * $ * * $ $ * * $ ; $ O O + = * % O o & : * $ * * * * * * * * ; $ * ",
"* $ * * * * * * $ * * * $ * * $ * * * * * * * $ : 1 > 1 $ * $ - % O O O O O % - = & O * = $ $ * * * * * * $ = & O O O - > ; > O O O & = $ * * * * * * * * * $ * ",
"* * * $ * * * * * * * * * * * * * * * * * * * # m u - r.= * = * O O O O O O O * ; O o X - $ * * * * * * * * - X O O . 9 1 - ^ . O O O = * * * * * $ * $ * * * * ",
"$ * * * $ * * * * * * * * * * * * * $ * * * * $ ^ 1 $ &.- $ = & O O O . O O O & - o O O = * * $ * * * $ $ * = O O O O 1 = & 9 X O . o # = * * * * * * * * * * * ",
"* * $ $ * * * * * * * * * * * $ $ # * * * * * * , = $ > ; # = % O + O O O O O & = o O O * * $ * $ $ * * $ * & O O O X - X O - % O O O & = $ * $ * * $ * $ # $ * ",
"* * - - $ * $ * * * * * * * * $ ; - $ * * * $ * * $ $ * * $ - % O O O O O . O % * O O O * - $ $ = ; * * $ = $ O O O X + O O X X O . O % - $ * * * * * $ = ; * * ",
"$ - - - = * * * * * * * * * * - - - - $ * $ * * * * * * $ $ - % O O O O O . . . X O O O + ; = * - - ; * $ = * O . O O O O O O O . . O . - - $ * * * * * ; = ; $ ",
"* = O . - * * * * * * * * * = * O . - * $ * * * * $ * * * $ = & O O O O O O . O O . O O O X - - & O & - $ * = O O O . O . O O . O . . O . = * $ * * $ - +   # = ",
"- % O O & - $ * * * * * * $ = % O o & = $ * * * * * * * * $ = * O O O O . . O . . O O . O O * - O O O - $ * - O O O O O O O . . O . O . O & - $ * * * = O O X = ",
"= + O O % = $ * * * * * * $ = X O O & = $ * * * * * * * $ * $ - & O O . O O O . . . O O O O & = O O O * * $ - & O O O O O O O . . O O . O X - $ * $ = * O O . = ",
"= + O O + - $ * $ * $ * * $ = X O O % = $ * * * * * * * * * * * ; & O O . O . O O O . O O O & = o O O = * * * ; * O . . O O . O O O O . O X = $ * # = * O . . = ",
"= X O o % = $ $ * : ; * $ - ; . O O X ; = $ $ * * * * * * * * $ : & O . . . . O % + O O . O % & O . o * ; $ * * - . O . O O O O . . O O O X - $ * * = & O O O * ",
"= X . O % - $ $ ; * * = * - + O . O O # - * * * * * * * * * $ - = . . . O . O O = - O O O O . X O O O . = - $ * = . O O O O O O . O O O O X - $ * * = & O O O = ",
"= % O o & - $ = & o O = - % O O O . O o & = $ * * * * * * $ * = . O O O O . . O ; d O O O . O O O O . O . - * $ - + O . O . . . O O O O O % = $ * & * * O O + * ",
"= & O O * * # - % O o # = . O . . . . o % - $ * * * * * * $ = & O . O . O O O O & ` X O . O . O O . O . . & = $ - & O O . O . . . O O O O & = $ * * * - X O % - ",
"* - & # - $ $ = X O O & - O O O O O O O . = $ * $ * * * * $ = & O O O O O O O O + > & O . O . O O O O . O & = $ $ - % O O O O . O . . O & - $ * * * $ - = + - * ",
"$ = : ; * * * - . O O % - O O O O O O O O = * * * * * * * $ - % O . O O O . O O O % + O . O . . O O O . O % - $ $ - ; . O O . & . O O + : * $ * $ * * $ - > - $ ",
"* $ * $ $ $ ; - . O O X @ O . O . * X O O - ; $ * * $ * $ = ; + O . O O . O X & . . O O . O . . O O O . O + ; - * $ - % o O X ; . O O & = $ $ $ = * $ * $ * $ * ",
"* * * * $ = = . O O O O . O O O . , - o o . * = $ * * * $ - + O O . O . . O = , . O . . O O O O O O O O O O + - * $ = % o O X ; + O O & = $ $ 1 ; 1 - $ * * * * ",
"= $ * * $ - + O . O . O O O . O . 1 1 O O O X = $ * * * = & O . O . O . O O 1 0 O O . O . O O O . . O O . . O & = $ = # O O % ; + O . = = # - r.- ^ 0 # * * * $ ",
"- $ * * $ = O O O . . . . O . O o ; 1 O O O O = * * * $ - + O O O O O . O O 1 : O O + O O O . O . O O . . O O X = $ * = O o * = & o . - * # ; -.$ 9 m # * * * * ",
"- $ $ * * * O O O . O . O O O O O % ; X O O o * * * * $ = X O . . O . O O X - % O O O O . O O O . O . O O O O X = $ $ = = = - $ ; * - - * $ ; , $ - 1 * $ * $ = ",
"= $ * $ = = o O . . X O . . O . O O % O O O O * = * * * = . O . . . O O O O @ O O O O O * + O O . O O . + O O X - * * * ; ; * $ * : - & * $ = * $ $ * * * * * - "
};
