/* XPM */
static char *_713250c39f64964fb6f8dad4ce80b8esbp91IJ7t3CjqkCq[] = {
/* columns rows colors chars-per-pixel */
"80 80 227 2 ",
"   c None",
".  c #000000",
"X  c #0A0503",
"o  c #0B0B0B",
"O  c #0B0807",
"+  c #130908",
"@  c #1B1406",
"#  c #190A13",
"$  c #1E1E1E",
"%  c #08081A",
"&  c #271B05",
"*  c #291616",
"=  c #3C1919",
"-  c #2C0C13",
";  c #342200",
":  c #342A16",
">  c #332915",
",  c #391326",
"<  c #2D2525",
"1  c #392828",
"2  c #3E3D3D",
"3  c #4B1E1E",
"4  c #50040D",
"5  c #650101",
"6  c #6A0304",
"7  c #6B0B0B",
"8  c #690607",
"9  c #74060B",
"0  c #6B0915",
"q  c #750C16",
"w  c #74111D",
"e  c #533905",
"r  c #4B2218",
"t  c #782D01",
"y  c #5C1A3B",
"u  c #4A152E",
"i  c #791225",
"p  c #621531",
"a  c #532121",
"s  c #5C2525",
"d  c #4D3D3D",
"f  c #4E2020",
"g  c #6F2D2D",
"h  c #7D5401",
"j  c #734F0E",
"k  c #726038",
"l  c #3B2B7F",
"z  c #501541",
"x  c #642143",
"c  c #762E50",
"v  c #432770",
"b  c #4B214F",
"n  c #584545",
"m  c #4F4545",
"M  c #715656",
"N  c #6F7948",
"B  c #496D6E",
"V  c #777777",
"C  c #890D1A",
"Z  c #9B1325",
"A  c #841E3D",
"S  c #AA1830",
"D  c #903336",
"F  c #A82C2C",
"G  c #B43434",
"H  c #883112",
"J  c #C1203F",
"K  c #8B5802",
"L  c #915505",
"P  c #875D1A",
"I  c #895E1A",
"U  c #884500",
"Y  c #976500",
"T  c #996600",
"R  c #9B6905",
"E  c #9C6A09",
"W  c #906208",
"Q  c #9F6E12",
"!  c #9F7012",
"~  c #89601F",
"^  c #AD6615",
"/  c #A17215",
"(  c #A3751C",
")  c #94472A",
"_  c #B85431",
"`  c #8D6C29",
"'  c #D7463F",
"]  c #C4662B",
"[  c #CF6637",
"{  c #D6653E",
"}  c #892346",
"|  c #8D2D5B",
" . c #932E5C",
".. c #952C59",
"X. c #97334D",
"o. c #B33259",
"O. c #973265",
"+. c #993366",
"@. c #9A3368",
"#. c #9D386B",
"$. c #A23266",
"%. c #A93466",
"&. c #B63366",
"*. c #851F40",
"=. c #C82347",
"-. c #D4254A",
";. c #D8264C",
":. c #D13459",
">. c #E62B57",
",. c #F7375F",
"<. c #D93366",
"1. c #C63366",
"2. c #EC3366",
"3. c #F33366",
"4. c #FE3366",
"5. c #FD3567",
"6. c #98404B",
"7. c #B84A4A",
"8. c #B2474B",
"9. c #B26A4D",
"0. c #987B7B",
"q. c #817171",
"w. c #9B705B",
"e. c #D95758",
"r. c #CD4C4B",
"t. c #EC5E5E",
"y. c #F35F5F",
"u. c #F8415F",
"i. c #DB6745",
"p. c #D5734A",
"a. c #EE6655",
"s. c #C54966",
"d. c #FF5168",
"f. c #CC6F74",
"g. c #FE6565",
"h. c #FF6768",
"j. c #FE696A",
"k. c #F26464",
"l. c #FD7878",
"z. c #D19636",
"x. c #999054",
"c. c #938D52",
"v. c #B38D44",
"b. c #B6934A",
"n. c #A48543",
"m. c #CC984D",
"M. c #DBAB47",
"N. c #D8AE57",
"B. c #E4B85D",
"V. c #F2BC58",
"C. c #D7926C",
"Z. c #D7A57F",
"A. c #F4B063",
"S. c #FF9F67",
"D. c #FFCA67",
"F. c #FFD169",
"G. c #EFC462",
"H. c #362E8B",
"J. c #3A368D",
"K. c #38368E",
"L. c #333399",
"P. c #333B99",
"I. c #39399C",
"U. c #343193",
"Y. c #2F2F92",
"T. c #334399",
"R. c #344B99",
"E. c #335D99",
"W. c #335397",
"Q. c #337A99",
"!. c #347695",
"~. c #4556A2",
"^. c #5769AB",
"/. c #40469F",
"(. c #CA7F98",
"). c #338599",
"_. c #338C99",
"`. c #329399",
"'. c #339999",
"]. c #3C9B9D",
"[. c #3E9FA0",
"{. c #409A9F",
"}. c #48A4A3",
"|. c #55ACAC",
" X c #7ABCBC",
".X c #63B1B1",
"XX c #4291A0",
"oX c #898D8D",
"OX c #928181",
"+X c #B08E8E",
"@X c #B9B9B9",
"#X c #91AFAF",
"$X c #CC8891",
"%X c #FB8787",
"&X c #FC9999",
"*X c #CEB689",
"=X c #D4AC87",
"-X c #FFA4A4",
";X c #FFA8A8",
":X c #E7BABA",
">X c #FDB6B6",
",X c #EFACAC",
"<X c #DCA99B",
"1X c #D7C39D",
"2X c #DDCDAD",
"3X c #8FBEC7",
"4X c #8DC6C6",
"5X c #84C0C1",
"6X c #99CCCC",
"7X c #94C6C9",
"8X c #9AD0D0",
"9X c gray87",
"0X c gray76",
"qX c #FECCCD",
"wX c #F2C3C3",
"eX c #E7DBC4",
"rX c #FFD0D0",
"tX c #FADBDB",
"yX c #F9D2D3",
"uX c #EBE2CF",
"iX c #EDE4D3",
"pX c #FFE5E5",
"aX c #F4F4F4",
"sX c #FFFFFF",
"dX c #FDF7F5",
"fX c #EFEFEF",
"gX c #DFE0E0",
/* pixels */
"                                                                                                                                                                ",
"                                                                                                                                                                ",
"                                                                                                                                                                ",
"                                                                                                                                                                ",
"                                                                              5 6 5 5 5 5 5 5 5 5 5 5 5 8                                                       ",
"                                                                              6 6 6 6 6 6 6 6 6 6 6 6 6 7                                                       ",
"                                                                  6 5 5 5 5 Z -.-.-.-.-.p.m.m.;.-.-.-.-.J 6 6                                                   ",
"                                                                  8 5 5 5 5 Z 4.4.5.5.5.S.F.D.d.4.4.4.4.;.6 6 7                                                 ",
"                                                                  q 9 9 q 9 S 3.3.u.u.u.S.F.D.d.5.5.3.3.-.6 5 7                                                 ",
"                                                            7 5 C ;.>.,.>.>.<.$.$.r.z.z.V.D.D.      %.$...6 5 7                                                 ",
"                                                            5 5 9 ,.4.4.4.4.<.@...9.z.z.D.F.F.      #.@.} 6 6 7                                                 ",
"                                                            Z Z S <.<.<.<.<.o.x y k I k ` n.n.      x y p 4 4 -                                                 ",
"                                                      5 5 9 >.3.2.$.@.@.+.@.y . X X . . . . . . . . . . . . . . . .                                             ",
"                                                      6 5 9 >.4.2.$.O.O.+.@.x . . . . . . . . . . . . . . . . . . .                                             ",
"                                                  5 6 S J J 1.&.o.u , , , , - . . . . . . . . . . . . . . . . . . . . . .                                       ",
"                                                7 5 6 -.4.4.%.O.c X . . . . . . . . . . . . . . . . . . . . . . . . . . .                                       ",
"                                                0 8 9 =.3.2.$.| c X . . . . . . . . . . . . . . . . . . . . . . . . . . .                                       ",
"                                            6 5 A ....$.%...- # + . . . . . . . . . . . . . . . . . . . . . . . . . . . .                                       ",
"                                            5 5 *.@.+.+.@.| # . . . . . . . . . . . . . . . . . . . . . . . . . . . . . .                                       ",
"                                            5 5 *.+.+.+.@.| # . . . . + = = 1 2 2 2 2 d 1 = = 2 2 2 2 2 1 . . . . . O O o                                       ",
"                                            5 5 A ..$.O.@.| # . . . . 3 y.y.&XaXaXaXaXaX%Xy.j.iXaXaXaXaX@Xo . . . .                                             ",
"                                            5 5 c O.O.O.@. .# . . . . 3 k.g.&XsXsXsXsXsX&Xg.l.pXsXsXsXsX0Xo . . . .                                             ",
"                                            G G f.(.$Xc u u O . @ g D 6.g.g.&XsXsX@XV q.$X&X&XOXV oXaXsX9X                                                      ",
"                                            h.g.;XrXyXd . . . . - t.g.g.g.g.-XsXsXV . O +XrX:X< . $ 9XsXsX                                                      ",
"                                            g.g.-XqXqXd . . . . * y.h.h.j.h.-XsXsXV . O +XqX:X1 . $ 9XsXsX                                                      ",
"                                      j.j.{ ^ ^ =XqXqXd . . . . - t.d.S.>X>XqXsXsXV . . +XrX:X< . $ 9XsXdXqXqX=XT R                                             ",
"                                      g.g.[ Y Y =XqXqXd . . . . * a.g.%XqXqXtXsXsXV . . +XqX:X< . $ gXsXdXqXqXZ.T T                                             ",
"                                      g.j.[ Y Y C.>X,Xd . . . . - 7.r.f.qXqXtXdXaX0.= = +X>X,Xn 1 m 9XdXpXqXqXZ.Y T                                             ",
"                                      g.g.[ Y Y i.j.j.3 . . . . . X X n wXqXqXqXqX&Xy.y.j.j.l.>XwXwXqXqXqXqXqXZ.T T                                             ",
"                                      g.h.[ Y Y { h.g.f . . . . . . . d qXqXqXqXrX&Xg.g.g.g.j.>XrXqXqXqXqXqXqX=XY T                                             ",
"                                      j.j.i.] ] a.g.g.D s s + . # n M q.qXrX<X0.0.9.{ i.a.g.j.&X-X-X;X-X-X-X-XC.T T                                             ",
"                                            g.g.g.g.g.g.j.t.* . < wXqXqXqXrXOX. . e T T i.h.g.g.g.g.g.g.g.g.g.{ T T                                             ",
"                                            h.g.g.g.g.h.g.t.- . < :XqXqXqXqX0.. . e T Y i.g.g.g.g.g.g.g.g.g.g.{ Y Y                                             ",
"                                            a a a a a r.j.g.7.8.7.%X%Xf.n m 1 . . @ ; ; 3 a a a 3 a f f a a f r ; ; @ O O                                       ",
"                                            . . . . . 8.j.g.g.g.j.g.g.8.. . . . . . . . . . . . . . . . . . . . . . . . .                                       ",
"                                            . . . . X ) e.e.k.g.h.h.g.7.< * $ * $ o . . . . . . . . . . . . . . . . . . O                                       ",
"                                                o . . + @ - e.h.j.g.g.l.:X:X:X:X:XM . . . . . . . . . . . . . . . . o                                           ",
"                                                o . . . . + e.g.g.g.g.%XqXqXqXwXrXM . . . . . . . . . . . . . . . .                                             ",
"                                                  o o . . O _ i.i.g.g.l.;X;X;X;X;Xw.s s s s s s s s s s a ; r & o o                                             ",
"                                                      O . X h T ^ k.g.g.g.g.g.g.g.g.g.g.g.g.g.g.g.g.g.g.i.R Y E                                                 ",
"                                                      . . X h T ^ g.h.g.j.g.g.g.g.g.g.g.g.h.g.h.g.h.g.h.a.R T E                                                 ",
"                                                            t t H 7.s.s.s.s.o.F F F F F _ ] ] ] ] ] ] ] ]                                                       ",
"                                                            6 5 q  .+.O.O.@.A 5 5 5 8 5 U Y Y Y Y Y Y Y Y                                                       ",
"                                                            9 7 q  .$.+. .O.A 6 8 8 8 8 L ! ! ! ! / ! ! (                                                       ",
"                                                      7 8 9 =.>.>.2.2.=.0 0 i ..| ) K K *XiXuXuXuXuXuXuX2XE R                                                   ",
"                                                      5 5 6 >.5.4.4.4.-.5 5 i #.O.) T T 2XsXsXsXsXsXsXsXeXR Y R                                                 ",
"                                                      q w i >.4.4.4.4.;.C C Z X.6.9.n.v.eXsXsXsXsXsXsXsXiXb.v.v.                                                ",
"                                                7 6 6 } O.$.2.4.4.4.4.4.4.3.r.T Y *XdXdXsXsXsXsXsXsXsXsXsXaXdX1XR T                                             ",
"                                                7 5 5 } +.$.2.4.4.4.4.4.4.4.' T Y *XsXsXsXsXsXsXsXsXsXsXsXsXsX1XY T                                             ",
"                                                7 5 5 } +.@.1.1.<.4.4.4.4.4.' T Y *XsXsXsXsXsXsXsXsXsXsXsXsXsX1XY T                                             ",
"                                                7 5 5 } @.+.O.+.%.3.4.4.4.4.' T Y *XsXsXsXsXsXsXsXsXsXsXsXsXsX1XT T                                             ",
"                                                0 5 6 } @. .+. .%.3.4.4.4.4.r.T Y *XsXaXsXsXsXsXsXsXsXsXsXsXdX1XT T                                             ",
"                                                v v v p q i | O.+.&.&.1.4.4.:.6.6.9.v.b.eXsXsXsXsXsXsXsXiXb.v.v.                                                ",
"                                                I.L.L.u 6 6 ..O.+.O.O.&.4.4.<.@.@.) Y Y 2XsXsXsXsXsXsXsXeXE Y R                                                 ",
"                                                I.L.L.z 0 0 } |  .O.O.&.2.2.1.| X.) K L <XiXiXiXiXiXiXiX2XQ R Q                                                 ",
"                                                I.L.L.U.Y.H.p 5 q  .+.O.$.%.A 6 6 8 8 8 L / / / / / / / (                                                       ",
"                                                I.L.L.L.L.U.4 5 0  .$.O.O.+.A 5 5 5 5 8 h Y Y Y Y T Y T R                                                       ",
"                                                I.L.L.W.E.W.b z y A A c A A i 5 6 g M 6.c.x.x.c.x.c.N N N                                                       ",
"                                                I.L.L.Q.]._.R.L.H.5 5 5 5 5 5 5 5 q.6X6X7X6X6X6X6X4X[.'.Q.P.L.I.                                                ",
"                                                I.L.L.Q.'.`.R.L.l 8 5 5 8 5 6 5 6 q.6X6X6X6X6X6X6X4X[.'.).L.L.I.                                                ",
"                                                I.L.L.!.'.'.Q.Q.!.B B B oXoXoXoXoX#X6X7X6X6X6X6X6X4X{.'.Q.P.L.I.                                                ",
"                                                I.L.L.Q.'.'.'.'.'.'.'.|.6X6X8X8X6X6X6X6X6X6X6X6X6X4X[.'.).P.L.I.                                                ",
"                                                I.L.L.!.`._.'.'.'.'.'.}.4X4X4X6X6X6X6X6X7X3X3X4X4X5X]._.Q.P.L.I.                                                ",
"                                                      T.P.R._.'.'.'.'.'.[.}..X6X6X6X6X6X^./.~.XX[.XXR.T.T.                                                      ",
"                                                      L.L.P.).'.'.'.'.`.'.'.|.6X6X6X6X6X^.Y.L.).'._.P.L.L.                                                      ",
"                                                      L.L.P.).'.'.'.'.'.'.'.}. X X X X X~.L.P.).'._.P.L.P.                                                      ",
"                                                      I.L.P.).'.'.'.'.'.'.`.'.'.'.'.'.'.R.L.P.).'._.P.L.I.                                                      ",
"                                                      L.L.P.).'.'.'.'.'.'.'.'.'.'.'.'.`.W.L.P._.'.`.T.L.L.                                                      ",
"                                                            E.E.E.E.E.E.E.E.E.E.E.E.W.E.P.L.L.W.E.E.                                                            ",
"                                                            I.L.L.L.L.L.L.L.L.L.L.U.L.L.L.L.L.L.L.L.                                                            ",
"                                                            J.J.J.J.J.J.J.J.J.J.J.J.J.K.U.Y.Y.L.J.J.                                                            ",
"                                                            ~ P P P P P P P I I I I I P > % # j ~ j @ . o                                                       ",
"                                                            R T R T T T T T T T T T T Y ; . X h R K X . o                                                       ",
"                                                            h h h Y T T T T T T T T T Y e > : j K j : > :                                                       ",
"                                                            O X & K T Y T R T T T T Y T M.G.N.> X & N.G.b.o O o                                                 ",
"                                                            O . @ K T R T T T T T T Y Y M.F.G.> . @ B.F.m.o . o                                                 ",
"                                                              O & W R R R E E E E E E E M.F.B.1 o > B.F.m.o o                                                   ",
"                                                                                                                                                                ",
"                                                                                                                                                                ",
"                                                                                                                                                                "
};
