/* XPM */
static char *_a3cb2fd41e94238aad9e9f0cd72ae80AmFrXTokWBuHC2f3[] = {
/* columns rows colors chars-per-pixel */
"32 32 7 1 ",
"  c None",
". c #A40703",
"X c #AA1C0F",
"o c #B02C1C",
"O c #F8EDEB",
"+ c #F9EEED",
"@ c #FFFEFE",
/* pixels */
"                                ",
" .......XO........XO........XO..",
" .......XO........XO........XO..",
" .......XO........XO........XO..",
" XXXXXXXo+XXXXXXXXo+XXXXXXXXo+XX",
" OO+@OOOOOOOO+@OOOOOOOO+@OOOOOOO",
" ..XO........XO........XO.......",
" ..XO........XO........XO.......",
" ..XO........XO........XO.......",
" XXo+XXXXXXXXo+XXXXXXXXo+XXXXXXX",
" OOOOOOO+@OOOOOOOO+@OOOOOOOO+@OO",
" .......XO........XO........XO..",
" .......XO........XO........XO..",
" .......XO........XO........XO..",
" XXXXXXXo+XXXXXXXXo+XXXXXXXXo+XX",
" OO+@OOOOOOOO+@OOOOOOOO+@OOOOOOO",
" ..XO........XO........XO.......",
" ..XO........XO........XO.......",
" ..XO........XO........XO.......",
" XXo+XXXXXXXXo+XXXXXXXXo+XXXXXXX",
" OOOOOOO+@OOOOOOOO+@OOOOOOOO+@OO",
" .......XO........XO........XO..",
" .......XO........XO........XO..",
" .......XO........XO........XO..",
" XXXXXXXo+XXXXXXXXo+XXXXXXXXo+XX",
" OO+@OOOOOOOO+@OOOOOOOO+@OOOOOOO",
" ..XO........XO........XO.......",
" ..XO........XO........XO.......",
" ..XO........XO........XO.......",
" XXo+XXXXXXXXo+XXXXXXXXo+XXXXXXX",
" OOOOOOO+@OOOOOOOO+@OOOOOOOO+@OO",
"........XO........XO........XO.."
};
