/* XPM */
static char *_735d582ede44d71efa86a6dd62a0bb4aceacloHXuFqDkmA[] = {
/* columns rows colors chars-per-pixel */
"32 32 210 2 ",
"   c None",
".  c black",
"X  c #0D0000",
"o  c #0F0000",
"O  c #330D00",
"+  c #20140A",
"@  c #3D1600",
"#  c #002800",
"$  c #1E3100",
"%  c #003016",
"&  c #33261B",
"*  c #38261A",
"=  c #001B22",
"-  c #000037",
";  c #282828",
":  c #362D27",
">  c #3D2E25",
",  c #243B2C",
"<  c #3D342F",
"1  c #410000",
"2  c #450000",
"3  c #431000",
"4  c #592F00",
"5  c #59350F",
"6  c #59391D",
"7  c #783A00",
"8  c #7E3B00",
"9  c #523F31",
"0  c #703B20",
"q  c #004D00",
"w  c #005800",
"e  c #205800",
"r  c #007100",
"t  c #267109",
"y  c #3A7516",
"u  c #3E7618",
"i  c #485000",
"p  c #4D653E",
"a  c #006C42",
"s  c #355461",
"d  c gray31",
"f  c #5B5C5C",
"g  c #5B7670",
"h  c #646664",
"j  c #6B6562",
"k  c #8C5200",
"l  c #9E5900",
"z  c #8A5315",
"x  c #8F521D",
"c  c #87591D",
"v  c #9B5F1B",
"b  c #B65100",
"n  c #BF6800",
"m  c #BB6D0C",
"M  c #8D5629",
"N  c #8F5A2E",
"B  c #915A25",
"V  c #925C29",
"C  c #9C632A",
"Z  c #986230",
"A  c #897234",
"S  c #AC6824",
"D  c #A46428",
"F  c #AD7A25",
"G  c #B77227",
"H  c #B17239",
"J  c #B5763F",
"K  c #BF713E",
"L  c #C06400",
"P  c #C77200",
"I  c #CB7300",
"U  c #CF7200",
"Y  c #C6730F",
"T  c #D47000",
"R  c #D17700",
"E  c #D87400",
"W  c #D67B0D",
"Q  c #C26C11",
"!  c #C66B17",
"~  c #D87F1C",
"^  c #D07B24",
"/  c #8F6C4F",
"(  c #966945",
")  c #BD7A41",
"_  c #B87749",
"`  c #0D9500",
"'  c #009800",
"]  c #00AF0D",
"[  c #379C33",
"{  c #34856D",
"}  c #4FA554",
"|  c #60BA75",
" . c #79B77E",
".. c #DF8217",
"X. c #ED800D",
"o. c #FA8000",
"O. c #FD8200",
"+. c #FE8B00",
"@. c #FB8E00",
"#. c #FF8D00",
"$. c #FE9000",
"%. c #FF9100",
"&. c #FB9004",
"*. c #FF9308",
"=. c #F28D1C",
"-. c #FF9413",
";. c #FC931F",
":. c #D9832C",
">. c #DE8631",
",. c #D28338",
"<. c #DF8A3C",
"1. c #E78B2E",
"2. c #FE9627",
"3. c #FF9C22",
"4. c #FF9928",
"5. c #FF9A2E",
"6. c #FF9F2D",
"7. c #E08A37",
"8. c #E38A3B",
"9. c #EF8E3B",
"0. c #EF943D",
"q. c #F89734",
"w. c #F69738",
"e. c #F4963A",
"r. c #FF9C3B",
"t. c #FFA135",
"y. c #FFA734",
"u. c #BA8B50",
"i. c #89817C",
"p. c #A98266",
"a. c #A08572",
"s. c #AC8A74",
"d. c #BB9071",
"f. c #C78142",
"g. c #CE8648",
"h. c #C9864F",
"j. c #D78B49",
"k. c #C48655",
"l. c #EB9443",
"z. c #FF9A42",
"x. c #FE9E42",
"c. c #FFA540",
"v. c #FFA441",
"b. c #FFA148",
"n. c #FFA248",
"m. c #FFB149",
"M. c #FFA250",
"N. c #FFA454",
"B. c #FFA854",
"V. c #D49A6F",
"C. c #EBA269",
"Z. c #FEAE6C",
"A. c #FFB167",
"S. c #FFB576",
"D. c #FFBF72",
"F. c #7B878E",
"G. c #858281",
"H. c #8A8E8F",
"J. c #899398",
"K. c #909395",
"L. c #919597",
"P. c #979595",
"I. c #969695",
"U. c #989598",
"Y. c #97999A",
"T. c #91999D",
"R. c #919C9E",
"E. c #9C9C9B",
"W. c #98989C",
"Q. c #B19895",
"!. c #81B195",
"~. c #B1A194",
"^. c #9EA1A3",
"/. c #ADA9AE",
"(. c #BBAFA8",
"). c #AFB1B2",
"_. c #CCA285",
"`. c #DEAD90",
"'. c #FFBA86",
"]. c #F9B889",
"[. c #FFBF90",
"{. c #C0B1A7",
"}. c #FFC493",
"|. c #FFCDA4",
" X c #FFCEA7",
".X c #FFCFA8",
"XX c #FFD4B1",
"oX c #FFD3B6",
"OX c #FFD5B6",
"+X c #BCC0C2",
"@X c #BFC4C7",
"#X c #BACED8",
"$X c #CCCACC",
"%X c #D6CFCB",
"&X c #DFD3CF",
"*X c #CBCFD0",
"=X c #F1DBD0",
"-X c #FFE1C8",
";X c #FFE1CF",
":X c #FBE4D5",
">X c #DDDFE7",
",X c #E2E9ED",
"<X c #F7F2EE",
"1X c #E8EFF3",
"2X c #ECF0F2",
"3X c #F5F6F6",
"4X c #F9F5F7",
"5X c #FAFEFF",
"6X c #FEFFFF",
"7X c white",
/* pixels */
"                                                                ",
"                                                                ",
"                                                                ",
"                                                                ",
"                    E.H.1 J a.v v a.J 2 H.E.                    ",
"                    I.1XO V.=XX.X.=XV.O 2XP.                    ",
"                    Y.<X3 W.u.e e u.W.3 <XY.                    ",
"                    h /.f.! q ] ] q ! f./.h                     ",
"                      p G $.9.y y 9.$.G p                       ",
"                      r g &XY 0 0 Y &Xg r                       ",
"                I.*X@ 7 L.7XG.k k G.7XL.7 @ *XU.                ",
"                U.$X~ y.k.K.'.5.5.'.K.k.y.~ $XU.                ",
"                , $ 5.,.W #.U >.>.U #.W ,.q.$ ,                 ",
"                ` w K P i._.N.b.b.N._.i.Q ^ w `                 ",
"              # t 4X#XE j.- %Xj j %X- j.W #X4Xt #               ",
"              X >X@Xp.S e.5 . + + . 5 e.G / $X>XX               ",
"              = / R =.B ..n (.F.F.(.n ..B =.R / =               ",
"              D 6.m.m ) (.T D.g.g.D.T {.) m m.6.D               ",
"            * e.z.L _ ,X7X).b s.s.b ).7X,X_ L z.w.*             ",
"            C r.i !.{ `.OX7X+X3X3X+X7XOX`.{ !.i r.C             ",
"            x A | [ c 2 ;.b.A.M.M.A.b.;.2 c [ | A x             ",
"              }  .l v.7.( :.#.@.@.+.:.( <.v.l  .}               ",
"              R.N t.q.-.d.^.].[.[.].^.d.-.q.t.N R.              ",
"              . u 8.B.l.f 5X7X7X7X7X5Xf l.B.8.u .               ",
"                ' a Q.~.h.XX:X;X;X:XXXh.~.Q.a '                 ",
"                % F Q 4 1.*.O.o.o.O.*.1.4 Q F %                 ",
"                M v.x.0.V H  X X.X XH V 0.x.v.M                 ",
"                z 4.&.2.3.<.J.T.T.J.<.3.2.&.4.z                 ",
"                s C.}.Z.S.^ 8 $.$.8 ^ S.Z.}.C.s                 ",
"              o 1X.X7XoX-XI 9 Z C 9 I -XoX7X X1XX               ",
"              ; d & < > : 6         6 : > < & d ;               ",
"                                                                "
};
