/* XPM */
static char *result[] = {
/* columns rows colors chars-per-pixel */
"32 32 196 2 ",
"   c black",
".  c #0C0000",
"X  c #1B0000",
"o  c #000816",
"O  c #3B1D00",
"+  c #002600",
"@  c #003200",
"#  c #002F14",
"$  c #003016",
"%  c #32261C",
"&  c #392719",
"*  c #001122",
"=  c #001B22",
"-  c #001C31",
";  c #29282B",
":  c #3B2E26",
">  c #3D342F",
",  c #4A0000",
"<  c #4F1100",
"1  c #592F00",
"2  c #4B381A",
"3  c #54361B",
"4  c #582F0E",
"5  c #6F3200",
"6  c #0E4500",
"7  c #065F00",
"8  c #006200",
"9  c #1E7700",
"0  c #2A7000",
"q  c #33631E",
"w  c #287814",
"e  c #3E7618",
"r  c #396B00",
"t  c #18503E",
"y  c #2B6021",
"u  c #317A30",
"i  c #474F00",
"p  c #485000",
"a  c #724F19",
"s  c #5E422D",
"d  c #785233",
"f  c #52763F",
"g  c #68672B",
"h  c #003052",
"j  c #006C42",
"k  c #1B7343",
"l  c #355461",
"z  c #494F4F",
"x  c #56595A",
"c  c #4E5050",
"v  c #6C5D53",
"b  c #486877",
"n  c #74716F",
"m  c #6E7073",
"M  c #9E5900",
"N  c #874814",
"B  c #8C541B",
"V  c #8A4500",
"C  c #AF5D00",
"Z  c #A15300",
"A  c #BA5702",
"S  c #AD6200",
"D  c #BA6806",
"F  c #B66B17",
"G  c #8F592E",
"H  c #8D5629",
"J  c #945A2B",
"K  c #855E38",
"L  c #9C632A",
"P  c #897234",
"I  c #87642C",
"U  c #A6672B",
"Y  c #AD7A25",
"T  c #B9712A",
"R  c #A36834",
"E  c #B47236",
"W  c #B66820",
"Q  c #C15C00",
"!  c #C66A00",
"~  c #CA7308",
"^  c #D77900",
"/  c #C26C11",
"(  c #D87E1C",
")  c #D57E23",
"_  c #CA7B33",
"`  c #DD7B37",
"'  c #8F6C4F",
"]  c #966844",
"[  c #A76A4B",
"{  c #B5794B",
"}  c #A27A59",
"|  c #9B7F6C",
" . c #008300",
".. c #1C8200",
"X. c #019300",
"o. c #009900",
"O. c #00A414",
"+. c #379C32",
"@. c #33856D",
"#. c #5F8259",
"$. c #4FA554",
"%. c #61BB76",
"&. c #79B77E",
"*. c #8B8B11",
"=. c #A28D30",
"-. c #DF831F",
";. c #ED8400",
":. c #FC8100",
">. c #FE8E00",
",. c #F18600",
"<. c #FF930A",
"1. c #FB9004",
"2. c #FE9618",
"3. c #DC862E",
"4. c #DB8226",
"5. c #DD8A3C",
"6. c #CA813F",
"7. c #E88A2D",
"8. c #F18D20",
"9. c #FE9627",
"0. c #FF9B2B",
"q. c #F99628",
"w. c #E28B3A",
"e. c #ED923B",
"r. c #E7913F",
"t. c #F59638",
"y. c #FF9B3C",
"u. c #F89738",
"i. c #FFA32B",
"p. c #FFA43D",
"a. c #FFA93B",
"s. c #FFA135",
"d. c #B08452",
"f. c #AF8A71",
"g. c #BB9071",
"h. c #B68562",
"j. c #C7854D",
"k. c #D4894C",
"l. c #EC9442",
"z. c #FF9C42",
"x. c #FB9D48",
"c. c #FFA442",
"v. c #FEA24D",
"b. c #FFA854",
"n. c #FFAB5A",
"m. c #FFB149",
"M. c #DE9C68",
"N. c #FEAE6A",
"B. c #FFB469",
"V. c #FFB774",
"C. c #EBA269",
"Z. c #737F86",
"A. c #7B8788",
"S. c #7A8C95",
"D. c #868889",
"F. c #939392",
"G. c #939B9D",
"H. c #999A99",
"J. c #959798",
"K. c #938C8A",
"L. c #A69D9D",
"P. c #B19895",
"I. c #AC978A",
"U. c #81B398",
"Y. c #B1A194",
"T. c #ACA49F",
"R. c #9E9BA5",
"E. c #9EA1A3",
"W. c #A4A5A7",
"Q. c #B4AFB1",
"!. c #D9AB91",
"~. c #F9B889",
"^. c #FFBF90",
"/. c #C8B4A7",
"(. c #FFC492",
"). c #FFCEA6",
"_. c #FFCFA8",
"`. c #FFD0A8",
"'. c #FFD4B4",
"]. c #EEC8AF",
"[. c #B2BFC6",
"{. c #C4C4C6",
"}. c #DFCFC3",
"|. c #D8DADB",
" X c #C6D3DA",
".X c #F9DBC7",
"XX c #FFE1CD",
"oX c #FFE9CD",
"OX c #FCE4D4",
"+X c #DDDEE7",
"@X c #D2E2EA",
"#X c #E7E6EA",
"$X c #FEFEFF",
"%X c #FEF9F5",
"&X c #E8EFF3",
"*X c None",
/* pixels */
"*X*X*X*X*X*X*X*X*X*X*X*X*X*X*X*X*X*X*X*X*X*X*X*X*X*X*X*X*X*X*X*X",
"*X*X*X*X*X*X*X*X*X*X*X*X*X*X*X*X*X*X*X*X*X*X*X*X*X*X*X*X*X*X*X*X",
"*X*X*X*X*X*X*X*X*X*X*X*X*X*X*X*X*X*X*X*X*X*X*X*X*X*X*X*X*X*X*X*X",
"*X*X*X*X*X*X*X*X*X*X*X*X*X*Xv O *X*X*X*X*X*X*X*X*X*X*X*X*X*X*X*X",
"*X*X*X*X*X*X*X*X*X*X*X*XH.G.I.e.f.| *X*X{.H.*X*X*X*X*X*X*X*X*X*X",
"*X*X*X*X*X*X*X*X*X*X*X*XH.#X, d.}..X[ R.$XD.*X*X*X*X*X*X*X*X*X*X",
"*X*X*X*X*X*X*X*X*X*X*X*XF.$X#Xk 2 s 8 #.W.*X*X*X*X*X*X*X*X*X*X*X",
"*X*X*X*X*X*X*X*X*X*X*X*X*X#X#X[ 7.t.y X.7 *X*X*X*X*X*X*X*X*X*X*X",
"*X*X*X*X*X*X*X*X*X*X*X*X*Xy w 0 N ~ A q =.Z *X*X*X*X*X*X*X*X*X*X",
"*X*X*X*X*X*X*X*X*X*XH.F. .O.O.o.m  XP.0 ..W.z *X*X*X*X*X*X*X*X*X",
"*X*X*X*X*X*X*X*XH.{.n D.8 J g X.J.$Xc *.I N W.E.*X*X*X*X*X*X*X*X",
"*X*X*X*X*X*X*X*XJ. X@ 6 ` a.y.a z K.3.y.p.~ h.x *X*X*X*X*X*X*X*X",
"*X*X*X*X*X*X*X*X; X.8 6.a.6.4.<.q.;.0.T e.7.2.N *X*X*X*X*X*X*X*X",
"*X*X*X*X*X*X*X*XX.0 t k.a.D n XXE b.N.c.q.B.!.r *X*X*X*X*X*X*X*X",
"*X*X*X*X*X*X*X+ w &X$Xx -.a.d h   T.|.n   L.Q.u + *X*X*X*X*X*X*X",
"*X*X*X*X*X*X*X. +X{.} D ; L e.4.%       S.m Q.#X. *X*X*X*X*X*X*X",
"*X*X*X*X*X*X*X= ' ^ 8.E C ;.M 7.w.5 /.S.n (.X } * *X*X*X*X*X*X*X",
"*X*X*X*X*X*X*XU 0.m.F T oX.XOXb S i.V.k.;.F r.i.U *X*X*X*X*X*X*X",
"*X*X*X*X*X*X& t.z.D { #X$X$X$X$X@XR Q f.d.1 D y.t.& *X*X*X*X*X*X",
"*X*X*X*X*X*XL y.i U.@.!.'.$X%X%X$X|.[.].F #.S.i y.L *X*X*X*X*X*X",
"*X*X*X*X*X*XB P %.+.B , 9.v.x.v.x.n.B.9.4 I +.%.P B *X*X*X*X*X*X",
"*X*X*X*X*X*X*X$.&.M p.5.] 3.>.>.>.>.) ] 3.p.M &.$.*X*X*X*X*X*X*X",
"*X*X*X*X*X*X*XG.G s.t.2.g.E.~.(.^.~.E.g.2.u.s.G G.*X*X*X*X*X*X*X",
"*X*X*X*X*X*X*X  e w.b.e.x $X$X$X$X$X$Xx l.b.w.e   *X*X*X*X*X*X*X",
"*X*X*X*X*X*X*X*Xo.j P.Y.j.'.OXoXoXOX'.j.Y.P.j o.*X*X*X*X*X*X*X*X",
"*X*X*X*X*X*X*X*X$ Y / 1 7.<.:.:.:.:.1.7.1 / Y $ *X*X*X*X*X*X*X*X",
"*X*X*X*X*X*X*X*XG c.z.l.J E ).`._.).E L e.x.p.H *X*X*X*X*X*X*X*X",
"*X*X*X*X*X*XA.Z.V 0.1.9.9.5.S.G.G.J.5.9.9.1.9.B *X*X*X*X*X*X*X*X",
"*X*X*X*X*X*XK e.{ M.(.N.V.) C 1.,.< ) V.N.(.C.l *X*X*X*X*X*X*X*X",
"*X*X*X*X*XU a.F @X`.$X'..X~ j._ d - ^ .X'.$X_.&X. *X*X*X*X*X*X*X",
"*X*X*X*X*X2 & * c & > : : 3 o *X*X*X3 : : > & c ; *X*X*X*X*X*X*X",
"*X*X*X*X*X*X*X*X*X*X*X*X*X*X*X*X*X*X*X*X*X*X*X*X*X*X*X*X*X*X*X*X"
};
