/* XPM */
static char *_7e742e747e94229b09a3e50fa90a6f8PQyVAfp3lez8xuFn[] = {
/* columns rows colors chars-per-pixel */
"32 32 192 2 ",
"   c None",
".  c #000000",
"X  c #06090A",
"o  c #110D0B",
"O  c #001F00",
"+  c #000016",
"@  c #161917",
"#  c #2B1400",
"$  c #002600",
"%  c #35220E",
"&  c #2B221C",
"*  c #3B291B",
"=  c #33251A",
"-  c #001C2A",
";  c #0B1921",
":  c #001432",
">  c #291629",
",  c #292929",
"<  c #383939",
"1  c #430000",
"2  c #520500",
"3  c #620000",
"4  c #442D1B",
"5  c #54361D",
"6  c #633500",
"7  c #603F21",
"8  c #004200",
"9  c #005400",
"0  c #005B00",
"q  c #105100",
"w  c #006B00",
"e  c #037900",
"r  c #007C17",
"t  c #367716",
"y  c #00592A",
"u  c #38523B",
"i  c #2F642E",
"p  c #414000",
"a  c #435600",
"s  c #784200",
"d  c #536000",
"f  c #62611F",
"g  c #734820",
"h  c #40733C",
"j  c #537B35",
"k  c #706B2B",
"l  c #357245",
"z  c #265061",
"x  c gray31",
"c  c #57514E",
"v  c #595754",
"b  c #445158",
"n  c #497E42",
"m  c #607D5F",
"M  c #5F6365",
"N  c #587464",
"B  c #6F6D6D",
"V  c #6C6A70",
"C  c #7C7E7C",
"Z  c #767E76",
"A  c #854400",
"S  c #955000",
"D  c #96581E",
"F  c #8E551B",
"G  c #895728",
"H  c #955C26",
"J  c #925F32",
"K  c #9B612B",
"L  c #956F33",
"P  c #B06B26",
"I  c #B96F31",
"U  c #A8713E",
"Y  c #BC7130",
"T  c #AB6630",
"R  c #C66800",
"E  c #D17500",
"W  c #DC7D00",
"Q  c #D17A18",
"!  c #C66E31",
"~  c #D16E30",
"^  c #C97A32",
"/  c #936A4A",
"(  c #9E7F72",
")  c #A47D6B",
"_  c #C67A44",
"`  c #008300",
"'  c #008605",
"]  c #009500",
"[  c #009B00",
"{  c #179200",
"}  c #008612",
"|  c #009D1D",
" . c #328B1F",
".. c #259F12",
"X. c #03A500",
"o. c #16A400",
"O. c #1CAA00",
"+. c #1CA208",
"@. c #1CA416",
"#. c #2BAE00",
"$. c #23A800",
"%. c #27A618",
"&. c #3BA631",
"*. c #38A62E",
"=. c #508E00",
"-. c #40A138",
";. c #3FBD5D",
":. c #4F874C",
">. c #51B349",
",. c #7A8779",
"<. c #72997B",
"1. c #68BA65",
"2. c #76BA72",
"3. c #F78B04",
"4. c #FF9309",
"5. c #F98E17",
"6. c #E98815",
"7. c #D98229",
"8. c #FF9420",
"9. c #FB942B",
"0. c #FF9E2E",
"q. c #E48C38",
"w. c #EF9238",
"e. c #F69534",
"r. c #FE9C34",
"t. c #F8963A",
"y. c #FE9C39",
"u. c #F49539",
"i. c #FFA33C",
"p. c #FFA53A",
"a. c #B78358",
"s. c #81957C",
"d. c #B0856E",
"f. c #C88854",
"g. c #FF9E41",
"h. c #ED9648",
"j. c #FFA443",
"k. c #FFA848",
"l. c #E1A353",
"z. c #CB9973",
"x. c #FAA564",
"c. c #EAA978",
"v. c #677884",
"b. c #6D808A",
"n. c #799184",
"m. c #898D89",
"M. c #978C86",
"N. c #91948F",
"B. c #938D93",
"V. c #8E9497",
"C. c #88949B",
"Z. c #939395",
"A. c #9B9692",
"S. c #BE9B84",
"D. c #9EB99D",
"F. c #BBA099",
"G. c #A8A9A9",
"H. c #B8B6B6",
"J. c #A3B3A2",
"K. c #FFBD8A",
"L. c #FFBE82",
"P. c #E0AC88",
"I. c #D9BCA8",
"U. c #CABBB2",
"Y. c #8BC588",
"T. c #92C68F",
"R. c #98CF97",
"E. c #B1DAAF",
"W. c #B2C0B1",
"Q. c #B4DAB2",
"!. c #ADD8AB",
"~. c #FFC092",
"^. c #FFD3A5",
"/. c #EDC8B0",
"(. c #F4C4A8",
"). c #B7C4C9",
"_. c #C3CED1",
"`. c #D5D3D4",
"'. c #DBD7D9",
"]. c #CFCDCE",
"[. c #E0D7DF",
"{. c #F0D8C9",
"}. c #D0E5CF",
"|. c #D3E7D5",
" X c #F0E4DD",
".X c #E1DFE2",
"XX c #E9EBEB",
"oX c #EAE7E9",
"OX c #FFF3E2",
"+X c #F6FEFF",
"@X c #FFFFFF",
"#X c #F8F4F7",
/* pixels */
"                                                                ",
"                                                                ",
"                                                                ",
"                                                                ",
"                        U.z.. oXv                               ",
"                    . U c.F oX@X:   v                           ",
"                ; e.t.2 H.+X+XV.3  XH.                          ",
"              D 7.7.L =.H.+X'.a.^.S.                            ",
"            + # ].#Xy X.e i f 3.~.{.M.#                         ",
"          H q.6 H.@Xi #.%.$.} ! p.x.c./.z                       ",
"        H 7.j.5.d.n.] r @.%.@.a x.OXH.A.B                       ",
"        G k.9.4.e.d k ~ t @.#.l (.0.#XB                         ",
"          '.c.~.j.8.5.p.! } o.. V K.3./.v                       ",
"          V C.@Xs I.I.6.^ $ s.[.V.2 F.d.                        ",
"              - X / a.7.< [.@X,.e | |.n.u A.,.                  ",
"              D w.p.P . Z.@Xm -.E.[ ] ] Y.@XoX                  ",
"              g 5 & . - @XV.` Q.Q.[ T.Y.[ E.W.                  ",
"                    S F @XN.e [ ] &.@X@X-.X.`                   ",
"                    ) l.m.@XN.:.%.[ 2.}.-.[ R.].                ",
"            c %     N ;.:.'.@XB.0 >.o.] [ ] >.J.>               ",
"            I.8.H K E j T.q @X#X9 E.|.[ T.Y.O.$                 ",
"            A i.y.i.i.H |  .H.@Xu { 2.%.@X@X%.D.                ",
"          M.k.9.t.t.y.5.s.1.,.@XU.$ O.[ 2.}.%.h                 ",
"          b.f.k.p.y.y.I % 9 < XX@XV w [ o.X.'                   ",
"            v.P.W G ; @ ! T R G.@X@X`.Z w e v.                  ",
"                        5 t.k.A G.+X@X@X'. X[..                 ",
"                        K p.e.y.Q / ].).`._.b XX<               ",
"                        4 q.y.r.i.P 1 E R R a.m.m.v.            ",
"                      A.u.y.y.y.i.P   ^ q.j.p.3.h.U             ",
"                  o XX@Xg.r.y.y.y.i.*     g H J F H &           ",
"                  , x , * * * * * =                             ",
"                                                                "
};
