/* XPM */
static char *result[] = {
/* columns rows colors chars-per-pixel */
"32 32 210 2 ",
"   c black",
".  c #0D0000",
"X  c #0F0000",
"o  c #330D00",
"O  c #20140A",
"+  c #3D1600",
"@  c #002800",
"#  c #1E3100",
"$  c #003016",
"%  c #33261B",
"&  c #38261A",
"*  c #001B22",
"=  c #000037",
"-  c #282828",
";  c #362D27",
":  c #3D2E25",
">  c #243B2C",
",  c #3D342F",
"<  c #410000",
"1  c #450000",
"2  c #431000",
"3  c #592F00",
"4  c #59350F",
"5  c #59391D",
"6  c #783A00",
"7  c #7E3B00",
"8  c #523F31",
"9  c #703B20",
"0  c #004D00",
"q  c #005800",
"w  c #205800",
"e  c #007100",
"r  c #267109",
"t  c #3A7516",
"y  c #3E7618",
"u  c #485000",
"i  c #4D653E",
"p  c #006C42",
"a  c #355461",
"s  c gray31",
"d  c #5B5C5C",
"f  c #5B7670",
"g  c #646664",
"h  c #6B6562",
"j  c #8C5200",
"k  c #9E5900",
"l  c #8A5315",
"z  c #8F521D",
"x  c #87591D",
"c  c #9B5F1B",
"v  c #B65100",
"b  c #BF6800",
"n  c #BB6D0C",
"m  c #8D5629",
"M  c #8F5A2E",
"N  c #915A25",
"B  c #925C29",
"V  c #9C632A",
"C  c #986230",
"Z  c #897234",
"A  c #AC6824",
"S  c #A46428",
"D  c #AD7A25",
"F  c #B77227",
"G  c #B17239",
"H  c #B5763F",
"J  c #BF713E",
"K  c #C06400",
"L  c #C77200",
"P  c #CB7300",
"I  c #CF7200",
"U  c #C6730F",
"Y  c #D47000",
"T  c #D17700",
"R  c #D87400",
"E  c #D67B0D",
"W  c #C26C11",
"Q  c #C66B17",
"!  c #D87F1C",
"~  c #D07B24",
"^  c #8F6C4F",
"/  c #966945",
"(  c #BD7A41",
")  c #B87749",
"_  c #0D9500",
"`  c #009800",
"'  c #00AF0D",
"]  c #379C33",
"[  c #34856D",
"{  c #4FA554",
"}  c #60BA75",
"|  c #79B77E",
" . c #DF8217",
".. c #ED800D",
"X. c #FA8000",
"o. c #FD8200",
"O. c #FE8B00",
"+. c #FB8E00",
"@. c #FF8D00",
"#. c #FE9000",
"$. c #FF9100",
"%. c #FB9004",
"&. c #FF9308",
"*. c #F28D1C",
"=. c #FF9413",
"-. c #FC931F",
";. c #D9832C",
":. c #DE8631",
">. c #D28338",
",. c #DF8A3C",
"<. c #E78B2E",
"1. c #FE9627",
"2. c #FF9C22",
"3. c #FF9928",
"4. c #FF9A2E",
"5. c #FF9F2D",
"6. c #E08A37",
"7. c #E38A3B",
"8. c #EF8E3B",
"9. c #EF943D",
"0. c #F89734",
"q. c #F69738",
"w. c #F4963A",
"e. c #FF9C3B",
"r. c #FFA135",
"t. c #FFA734",
"y. c #BA8B50",
"u. c #89817C",
"i. c #A98266",
"p. c #A08572",
"a. c #AC8A74",
"s. c #BB9071",
"d. c #C78142",
"f. c #CE8648",
"g. c #C9864F",
"h. c #D78B49",
"j. c #C48655",
"k. c #EB9443",
"l. c #FF9A42",
"z. c #FE9E42",
"x. c #FFA540",
"c. c #FFA441",
"v. c #FFA148",
"b. c #FFA248",
"n. c #FFB149",
"m. c #FFA250",
"M. c #FFA454",
"N. c #FFA854",
"B. c #D49A6F",
"V. c #EBA269",
"C. c #FEAE6C",
"Z. c #FFB167",
"A. c #FFB576",
"S. c #FFBF72",
"D. c #7B878E",
"F. c #858281",
"G. c #8A8E8F",
"H. c #899398",
"J. c #909395",
"K. c #919597",
"L. c #979595",
"P. c #969695",
"I. c #989598",
"U. c #97999A",
"Y. c #91999D",
"T. c #919C9E",
"R. c #9C9C9B",
"E. c #98989C",
"W. c #B19895",
"Q. c #81B195",
"!. c #B1A194",
"~. c #9EA1A3",
"^. c #ADA9AE",
"/. c #BBAFA8",
"(. c #AFB1B2",
"). c #CCA285",
"_. c #DEAD90",
"`. c #FFBA86",
"'. c #F9B889",
"]. c #FFBF90",
"[. c #C0B1A7",
"{. c #FFC493",
"}. c #FFCDA4",
"|. c #FFCEA7",
" X c #FFCFA8",
".X c #FFD4B1",
"XX c #FFD3B6",
"oX c #FFD5B6",
"OX c #BCC0C2",
"+X c #BFC4C7",
"@X c #BACED8",
"#X c #CCCACC",
"$X c #D6CFCB",
"%X c #DFD3CF",
"&X c #CBCFD0",
"*X c #F1DBD0",
"=X c #FFE1C8",
"-X c #FFE1CF",
";X c #FBE4D5",
":X c #DDDFE7",
">X c #E2E9ED",
",X c #F7F2EE",
"<X c #E8EFF3",
"1X c #ECF0F2",
"2X c #F5F6F6",
"3X c #F9F5F7",
"4X c #FAFEFF",
"5X c #FEFFFF",
"6X c white",
"7X c None",
/* pixels */
"7X7X7X7X7X7X7X7X7X7X7X7X7X7X7X7X7X7X7X7X7X7X7X7X7X7X7X7X7X7X7X7X",
"7X7X7X7X7X7X7X7X7X7X7X7X7X7X7X7X7X7X7X7X7X7X7X7X7X7X7X7X7X7X7X7X",
"7X7X7X7X7X7X7X7X7X7X7X7X7X7X7X7X7X7X7X7X7X7X7X7X7X7X7X7X7X7X7X7X",
"7X7X7X7X7X7X7X7X7X7X7X7X7X7X7X7X7X7X7X7X7X7X7X7X7X7X7X7X7X7X7X7X",
"7X7X7X7X7X7X7X7X7X7XR.G.< H p.c c p.H < G.R.7X7X7X7X7X7X7X7X7X7X",
"7X7X7X7X7X7X7X7X7X7XL.1Xo B.*X....*XB.o 1XL.7X7X7X7X7X7X7X7X7X7X",
"7X7X7X7X7X7X7X7X7X7XU.,X2 E.y.w w y.E.2 ,XU.7X7X7X7X7X7X7X7X7X7X",
"7X7X7X7X7X7X7X7X7X7Xg ^.d.Q 0 ' ' 0 Q d.^.g 7X7X7X7X7X7X7X7X7X7X",
"7X7X7X7X7X7X7X7X7X7X7Xi F #.8.t t 8.#.F i 7X7X7X7X7X7X7X7X7X7X7X",
"7X7X7X7X7X7X7X7X7X7X7Xe f %XU 9 9 U %Xf e 7X7X7X7X7X7X7X7X7X7X7X",
"7X7X7X7X7X7X7X7XP.&X+ 6 K.6XF.j j F.6XK.6 + &XP.7X7X7X7X7X7X7X7X",
"7X7X7X7X7X7X7X7XI.#X! t.j.J.`.4.4.`.J.j.t.! #XI.7X7X7X7X7X7X7X7X",
"7X7X7X7X7X7X7X7X> # 4.>.E @.I :.:.I @.E >.4.# > 7X7X7X7X7X7X7X7X",
"7X7X7X7X7X7X7X7X_ q J L u.).M.v.v.M.).u.L J q _ 7X7X7X7X7X7X7X7X",
"7X7X7X7X7X7X7X@ r 3X@XR h.= $Xh h $X= h.R @X3Xr @ 7X7X7X7X7X7X7X",
"7X7X7X7X7X7X7X. :X+Xi.A w.4   O O   4 w.A i.+X:X. 7X7X7X7X7X7X7X",
"7X7X7X7X7X7X7X* ^ T *.N  .b /.D.D./.b  .N *.T ^ * 7X7X7X7X7X7X7X",
"7X7X7X7X7X7X7XS 5.n.n ( [.Y S.f.f.S.Y [.( n n.5.S 7X7X7X7X7X7X7X",
"7X7X7X7X7X7X& q.l.K ) >X6X(.v a.a.v (.6X>X) K l.q.& 7X7X7X7X7X7X",
"7X7X7X7X7X7XV e.u Q.[ _.oX6XOX2X2XOX6XoX_.[ Q.u e.V 7X7X7X7X7X7X",
"7X7X7X7X7X7Xz Z } ] x 1 -.b.Z.m.m.Z.b.-.1 x ] } Z z 7X7X7X7X7X7X",
"7X7X7X7X7X7X7X{ | k c.6./ ;.O.+.+.O.;./ 6.c.k | { 7X7X7X7X7X7X7X",
"7X7X7X7X7X7X7XT.M r.0.=.s.~.'.].].'.~.s.=.0.r.M T.7X7X7X7X7X7X7X",
"7X7X7X7X7X7X7X  y 7.N.k.d 4X6X5X5X6X4Xd k.N.7.y   7X7X7X7X7X7X7X",
"7X7X7X7X7X7X7X7X` p W.!.g..X;X-X-X;X.Xg.!.W.p ` 7X7X7X7X7X7X7X7X",
"7X7X7X7X7X7X7X7X$ D W 3 <.&.o.X.X.o.&.<.3 W D $ 7X7X7X7X7X7X7X7X",
"7X7X7X7X7X7X7X7Xm x.z.9.B G }. X X}.G B 9.z.x.m 7X7X7X7X7X7X7X7X",
"7X7X7X7X7X7X7X7Xl 3.%.1.2.,.H.Y.Y.H.,.2.1.%.3.l 7X7X7X7X7X7X7X7X",
"7X7X7X7X7X7X7X7Xa V.{.C.A.~ 7 $.$.7 ~ A.C.{.V.a 7X7X7X7X7X7X7X7X",
"7X7X7X7X7X7X7XX <X|.6XXX=XP 8 C C 8 P =XXX6X|.<XX 7X7X7X7X7X7X7X",
"7X7X7X7X7X7X7X- s % , : ; 5 7X7X7X7X5 ; : , % s - 7X7X7X7X7X7X7X",
"7X7X7X7X7X7X7X7X7X7X7X7X7X7X7X7X7X7X7X7X7X7X7X7X7X7X7X7X7X7X7X7X"
};
