/* XPM */
static char *_53d41474d4e4c85eef89f94d8e96b65B6rstJ0DdPIt5mBp[] = {
/* columns rows colors chars-per-pixel */
"32 32 196 2 ",
"   c None",
".  c black",
"X  c #0C0000",
"o  c #1B0000",
"O  c #000816",
"+  c #3B1D00",
"@  c #002600",
"#  c #003200",
"$  c #002F14",
"%  c #003016",
"&  c #32261C",
"*  c #392719",
"=  c #001122",
"-  c #001B22",
";  c #001C31",
":  c #29282B",
">  c #3B2E26",
",  c #3D342F",
"<  c #4A0000",
"1  c #4F1100",
"2  c #592F00",
"3  c #4B381A",
"4  c #54361B",
"5  c #582F0E",
"6  c #6F3200",
"7  c #0E4500",
"8  c #065F00",
"9  c #006200",
"0  c #1E7700",
"q  c #2A7000",
"w  c #33631E",
"e  c #287814",
"r  c #3E7618",
"t  c #396B00",
"y  c #18503E",
"u  c #2B6021",
"i  c #317A30",
"p  c #474F00",
"a  c #485000",
"s  c #724F19",
"d  c #5E422D",
"f  c #785233",
"g  c #52763F",
"h  c #68672B",
"j  c #003052",
"k  c #006C42",
"l  c #1B7343",
"z  c #355461",
"x  c #494F4F",
"c  c #56595A",
"v  c #4E5050",
"b  c #6C5D53",
"n  c #486877",
"m  c #74716F",
"M  c #6E7073",
"N  c #9E5900",
"B  c #874814",
"V  c #8C541B",
"C  c #8A4500",
"Z  c #AF5D00",
"A  c #A15300",
"S  c #BA5702",
"D  c #AD6200",
"F  c #BA6806",
"G  c #B66B17",
"H  c #8F592E",
"J  c #8D5629",
"K  c #945A2B",
"L  c #855E38",
"P  c #9C632A",
"I  c #897234",
"U  c #87642C",
"Y  c #A6672B",
"T  c #AD7A25",
"R  c #B9712A",
"E  c #A36834",
"W  c #B47236",
"Q  c #B66820",
"!  c #C15C00",
"~  c #C66A00",
"^  c #CA7308",
"/  c #D77900",
"(  c #C26C11",
")  c #D87E1C",
"_  c #D57E23",
"`  c #CA7B33",
"'  c #DD7B37",
"]  c #8F6C4F",
"[  c #966844",
"{  c #A76A4B",
"}  c #B5794B",
"|  c #A27A59",
" . c #9B7F6C",
".. c #008300",
"X. c #1C8200",
"o. c #019300",
"O. c #009900",
"+. c #00A414",
"@. c #379C32",
"#. c #33856D",
"$. c #5F8259",
"%. c #4FA554",
"&. c #61BB76",
"*. c #79B77E",
"=. c #8B8B11",
"-. c #A28D30",
";. c #DF831F",
":. c #ED8400",
">. c #FC8100",
",. c #FE8E00",
"<. c #F18600",
"1. c #FF930A",
"2. c #FB9004",
"3. c #FE9618",
"4. c #DC852E",
"5. c #DB8226",
"6. c #DD8A3C",
"7. c #CA813F",
"8. c #E88A2D",
"9. c #F18D20",
"0. c #FE9627",
"q. c #FF9B2B",
"w. c #F99628",
"e. c #E28B3A",
"r. c #ED923B",
"t. c #E7913F",
"y. c #F59638",
"u. c #FF9B3C",
"i. c #F89738",
"p. c #FFA32B",
"a. c #FFA43D",
"s. c #FFA93B",
"d. c #FFA135",
"f. c #B08452",
"g. c #AF8A71",
"h. c #BB9071",
"j. c #B68562",
"k. c #C7854D",
"l. c #D4894C",
"z. c #EC9442",
"x. c #FF9C42",
"c. c #FB9D48",
"v. c #FFA442",
"b. c #FEA24D",
"n. c #FFA854",
"m. c #FFAB5A",
"M. c #FFB149",
"N. c #DE9C68",
"B. c #FEAE6A",
"V. c #FFB469",
"C. c #FFB774",
"Z. c #EBA269",
"A. c #737F86",
"S. c #7B8788",
"D. c #7A8C95",
"F. c #868889",
"G. c #939392",
"H. c #939B9D",
"J. c #999A99",
"K. c #959798",
"L. c #938C8A",
"P. c #A69D9D",
"I. c #B19895",
"U. c #AC978A",
"Y. c #81B398",
"T. c #B1A194",
"R. c #ACA49F",
"E. c #9E9BA5",
"W. c #9EA1A3",
"Q. c #A4A5A7",
"!. c #B4AFB1",
"~. c #D9AB91",
"^. c #F9B889",
"/. c #FFBF90",
"(. c #C8B4A7",
"). c #FFC492",
"_. c #FFCEA6",
"`. c #FFCFA8",
"'. c #FFD0A8",
"]. c #FFD4B4",
"[. c #EEC8AF",
"{. c #B2BFC6",
"}. c #C4C4C6",
"|. c #DFCFC3",
" X c #D8DADB",
".X c #C6D3DA",
"XX c #F9DBC7",
"oX c #FFE1CD",
"OX c #FFE9CD",
"+X c #FCE4D4",
"@X c #DDDEE7",
"#X c #D2E2EA",
"$X c #E7E6EA",
"%X c #FEFEFF",
"&X c #FEF9F5",
"*X c #E8EFF3",
/* pixels */
"                                                                ",
"                                                                ",
"                                                                ",
"                                + b                             ",
"                    J.}.     .g.z.U.K.J.                        ",
"                    L.%XW.{ [.|.f.< $XJ.                        ",
"                      Q.$.9 d d l $X%XG.                        ",
"                      9 o.u c.8.{ $X$X                          ",
"                    N -.w ! ^ 6 q e u                           ",
"                  x P.0 q I..XM O.+.+...G.J.                    ",
"                Q.Q.B U =.v %XJ...h H 9 S. .}.P.                ",
"                c j.^ a.u.4.L.x h u.v.' 7 # }.K.                ",
"                B 3.8.i.R q.:.w.,.5.` s.` 9 O.:                 ",
"                t ~.B.w.v.V.m.R oXM F s.l.y X.o.                ",
"              @ i {.P.. m  XR.. j f s.) c %X*Xe @               ",
"              X #X!.M S.. . . & _ r.E : ( | }.@XX               ",
"              = | o ).m D.(.6 6.;.N :.Z R 9./ ] -               ",
"              Y p.z.G / l.C.p.D n +X+XOXR G M.q.Y               ",
"            * y.x.D 5 k.g.S E  X%X%X%X%X$X} F x.y.*             ",
"            P a.p Y.g Q [.{. X%X&X&X%X].~.#.Y.a u.P             ",
"            V I &.@.h 5 0.V.m.c.b.b.b.0.< V @.&.I V             ",
"              %.D.D s.8.[ ) ,.,.,.,.4.[ 6.v.N *.%.              ",
"              H.H d.d.3.h.Q.^.)./.^.W.h.1.y.d.H H.              ",
"              . r e.n.t.c %X%X%X%X%X%Xc z.n.e.r .               ",
"                O.k I.I.k.].+X+XOX+X].k.I.I.k O.                ",
"                $ T ( 2 8.1.>.>.>.>.1.8.2 ( T %                 ",
"                J s.x.z.K W ).'.`._.W K r.v.v.H                 ",
"                V q.2.0.p.6.H.H.H.D.6.q.0.2.q.C A.S.            ",
"                z Z.).B.C._ 1 <.,.Z 5.C.B.).N.} z.L             ",
"              X *X_.%X].XX/ ; f ` k.^ XX].%X'.#XG s.Y           ",
"              : v & , > > 4       O 4 > > , * v = * 3           ",
"                                                                "
};
