/* XPM */
static char *_3970310beb146cdcf876b456a1406caW28xcGOMErPTMINM[] = {
/* columns rows colors chars-per-pixel */
"80 80 189 2 ",
"   c None",
".  c #000000",
"X  c #0E0E0E",
"o  c #070808",
"O  c #131313",
"+  c #161818",
"@  c #1C1D1D",
"#  c #1F2121",
"$  c #2F2F2F",
"%  c #222425",
"&  c #2D3031",
"*  c #3A3E3E",
"=  c #353737",
"-  c #6E1411",
";  c #7E1514",
":  c #7B1815",
">  c #6B0E0B",
",  c #5C2E2D",
"<  c #5A3837",
"1  c #6B2422",
"2  c #7A2524",
"3  c #56403D",
"4  c #77413F",
"5  c #3D4243",
"6  c #45494A",
"7  c #434647",
"8  c #584C4B",
"9  c #515555",
"0  c #555A5B",
"q  c #595D5E",
"w  c #575757",
"e  c #714848",
"r  c #595F60",
"t  c #5D6364",
"y  c #606666",
"u  c #606768",
"i  c #646B6C",
"p  c #6C696A",
"a  c #676F70",
"s  c #686F70",
"d  c #6B7374",
"f  c #6F7778",
"g  c #757575",
"h  c #737B7C",
"j  c #7B7D7E",
"k  c #737778",
"l  c #756A6B",
"z  c #8F140F",
"x  c #881C1C",
"c  c #921F20",
"v  c #882324",
"b  c #962325",
"n  c #823634",
"m  c #FC3643",
"M  c #FD3945",
"N  c #F93A46",
"B  c #B85F5A",
"V  c #BE7976",
"C  c #FB434D",
"Z  c #F94D57",
"A  c #FC545E",
"S  c #FB5C65",
"D  c #E36E73",
"F  c #FB6C75",
"G  c #767F80",
"H  c #797F80",
"J  c #FA7D85",
"K  c #778082",
"L  c #7B8385",
"P  c #7E8788",
"I  c #7F8889",
"U  c #828283",
"Y  c #828B8D",
"T  c #898B8B",
"R  c #858F90",
"E  c #879092",
"W  c #8A9495",
"Q  c #8D9799",
"!  c #8F999A",
"~  c #919C9D",
"^  c #B9908F",
"/  c #AB9A98",
"(  c #949FA0",
")  c #96A1A2",
"_  c #99A4A5",
"`  c #9CA7A8",
"'  c #9EA9AB",
"]  c #A1ACAE",
"[  c #AAAAAA",
"{  c #A3AFB1",
"}  c #A6B2B4",
"|  c #A8B4B6",
" . c #ABB7B9",
".. c #ADB9BB",
"X. c #B1BCBE",
"o. c #BAB9BA",
"O. c #D58184",
"+. c #C49E9D",
"@. c #FC9DA3",
"#. c #D9B7B6",
"$. c #FAAFB4",
"%. c #B2BFC1",
"&. c #B5C2C4",
"*. c #B8C5C7",
"=. c #B9C6C9",
"-. c #BDCBCD",
";. c #BFCDD0",
":. c #C2CBCF",
">. c #DCCDCD",
",. c #C1CED1",
"<. c #C4D2D5",
"1. c #C8D6D7",
"2. c #C7D5D8",
"3. c #C8D7D9",
"4. c #CCDADD",
"5. c #D2D2D2",
"6. c #F9D5D8",
"7. c #CFDEE0",
"8. c #D0DFE1",
"9. c #F9DEE0",
"0. c #D3E2E5",
"q. c #D9E6E7",
"w. c #D6E6E8",
"e. c #D8E7E9",
"r. c #DAEAEC",
"t. c #DEEEF1",
"y. c #E3EDED",
"u. c #E5E3E3",
"i. c #F6ECED",
"p. c #F6E2E3",
"a. c #E0EFF2",
"s. c #E2F2F5",
"d. c #EDF4F5",
"f. c #E5F5F8",
"g. c #E7F7FA",
"h. c #E6F6F9",
"j. c #E6F6F9",
"k. c #EAF7F9",
"l. c #E7F8FB",
"z. c #E7F8FB",
"x. c #E9F9FA",
"c. c #E9F9FC",
"v. c #EAFAFD",
"b. c #EBFBFE",
"n. c #E9FAFD",
"m. c #EBFCFF",
"M. c #ECFDFE",
"N. c #EDFEFF",
"B. c #EDFEFE",
"V. c #EEFEFF",
"C. c #EFFEFF",
"Z. c #EFFEFE",
"A. c #EEFDFE",
"S. c #ECFCFD",
"D. c #F4F3F4",
"F. c #F5FAFA",
"G. c #F0FEFF",
"H. c #F1FFFF",
"J. c #F0FFFF",
"K. c #F2FFFF",
"L. c #F3FFFF",
"P. c #F3FEFE",
"I. c #F1FDFD",
"U. c #F4FFFF",
"Y. c #F5FFFF",
"T. c #F4FEFE",
"R. c #F6FFFF",
"E. c #F7FFFF",
"W. c #F6FEFF",
"Q. c #F5FDFD",
"!. c #F3FFFF",
"~. c #FBFBFB",
"^. c #F9F9F9",
"/. c #F8FFFF",
"(. c #F9FFFF",
"). c #F8FEFE",
"_. c #FAFFFF",
"`. c #FBFFFF",
"'. c #FBFEFE",
"]. c #FAFDFD",
"[. c #FDFDFD",
"{. c gray99",
"}. c #FCFFFF",
"|. c #FDFFFF",
" X c #FDFEFE",
".X c #FEFEFE",
"XX c #FEFFFF",
"oX c white",
"OX c #FBFFFF",
/* pixels */
"                                                                                                                                                                ",
"                                                                                                                                                                ",
"                                                                                                                                                                ",
"                                                                                                                                                                ",
"                                                                                                                                                                ",
"                                                                                                                                                                ",
"                                                                                                                                                                ",
"                                                                                                                                                                ",
"                                                                                                                                                                ",
"                                                                                                                                                                ",
"                                                    ^.~.|.|.|.|.|.~.|.~.^.            ~.~.~.|.|.|.|.|.|.~.~.^.                                                  ",
"                                            ~.~.|.|.|.|.|.|.|.|.|.|.|.|.|.|.|.~.~.~.|.|.|.|.|.|.|.|.|.|.|.|.|.|.|.~.                                            ",
"                                        ~.~.|.|.|.|.|.|.|.|.|.|.|.|.|.|.|.|.|.|.|.|.|.|.|.|.|.|.|.|.|.|.|.|.|.|.|.].].I.                                        ",
"                                      |.|.|.|.|.|.|.|.|.|.|.|.|.|.|.|.|.|.|.|.|.|.|.|.|.|.|.|.|.|.|.|.|.|.|.|.|.|.].].P.C.k.                                    ",
"                                  ~.~.|.|.|.|.|.|.|.|.|.|.|.|.|.|.|.|.|.|.|.|.|.|.|.|.|.|.|.|.|.|.|.|.|.|.|.|.|.|.].].P.C.S.g.                                  ",
"                                ~.|.|.|.|.|.|.|.|.|.|.|.|.|.|.|.|.|.|.|.|.|.|.|.|.|.|.|.|.|.|.|.|.|.|.|.|.|.|.|.].].T.P.C.S.f.y.                                ",
"                              ~.|.|.|.|.|.|.|.|.|.|.|.|.|.|.|.|.|.|.|.|.|.|.|.|.|.|.|.|.|.|.|.|.|.|.|.|.|.|.|.].T.T.P.P.C.l.f.t.q.                              ",
"                            F.|.|.|.|.|.|.|.|.|.|.|.|.|.|.|.|.|.|.|.|.|.].|.|.|.|.|.|.|.|.|.|.|.|.|.|.|.].].].T.T.T.C.S.b.g.f.r.w.0.                            ",
"                            ].|.|.|.|.|.|.|.|.|.|.|.|.|.|.|.|.|.].].].].].].|.|.|.|.|.|.|.|.|.|.|.].|.].].T.P.P.P.C.C.b.z.f.a.r.w.4.4.                          ",
"                          I.].].|.|.|.|.|.|.|.|.].|.|.].].].].T.].T.T.].].].|.|.|.|.|.|.|.|.|.|.].].].T.P.P.P.C.C.b.l.l.f.a.t.e.0.4.<.                          ",
"                          P.T.T.].|.].].|.].].].].].T.].].T.T.T.T.].T.].].].].|.|.|.|.|.|.].].].T.T.P.P.C.C.C.b.n.z.f.s.a.t.e.w.0.4.,.,.                        ",
"                        x.P.P.P.T.T.].T.T.].].T.T.T.T.T.P.P.P.P.T.T.T.T.].|.|.|.|.|.|.|.|.].T.T.T.P.C.S.S.S.l.l.z.f.s.t.t.e.e.8.4.1.,.-.                        ",
"                        x.C.C.P.P.T.P.P.P.P.P.P.C.P.C.C.C.C.C.C.P.T.T.].|.|.|.|.|.|.|.|.].].T.P.P.S.S.S.l.l.g.f.s.a.t.t.e.w.0.7.4.<.:.=.                        ",
"                        f.l.S.C.C.P.P.C.P.C.C.C.C.S.C.S.C.C.C.C.P.T.].|.|.|.|.|.|.|.|.|.|.].T.P.C.S.S.l.l.f.s.s.t.t.t.e.w.0.8.4.1.<.-.&.&.                      ",
"                      r.s.g.l.b.S.C.C.S.S.C.S.S.S.S.S.S.S.S.C.P.T.].|.|.|.|.|.|.|.|.|.|.|.].T.T.S.b.l.f.f.f.s.s.t.r.r.w.0.8.7.4.<.;.=.%...                      ",
"                      q.t.s.l.b.S.C.C.S.S.C.S.S.S.S.S.S.C.C.P.T.|.|.|.|.|.|.|.|.|.|.|.|.|.].].T.C.S.l.f.f.s.t.t.t.r.w.w.0.0.7.3.1.;.*.X.|                       ",
"                      q.r.s.g.b.S.C.S.S.b.b.b.b.S.l.S.S.C.T.].|.|.|.|.|.|.|.|.|.|.|.|.|.|.].].T.P.C.b.l.s.t.t.r.r.e.w.w.0.8.7.3.2.;.*...} :.                    ",
"                    F.q.e.s.l.C.C.C.C.C.C.b.b.b.b.S.C.P.].].|.|.|.|.|.|.|.|.|.|.|.|.|.|.].].T.T.P.P.C.b.l.f.s.r.r.r.r.w.w.0.8.7.2.;.*. .' ,.0.                  ",
"                  ].I.0.r.v.T.].T.].|.].].T.T.C.S.C.T.].].].|.|.|.|.|.|.|.|.|.|.|.].].].].T.P.P.P.C.S.S.x.g.f.s.a.f.g.f.z.s.s.t.e.7.,.%.] =.4.                  ",
"                F.].I.s.v.].|.|.|.|.|.|.|.|.|.T.P.P.].T.].].|.|.|.|.|.|.|.|.|.|.].].].T.T.P.P.C.C.S.S.S.x.f.f.f.l.S.S.C.n.n.z.f.s.r.7.,...=.4.3.                ",
"                T.T.C.A.].|.|.|.|.|.|.|.|.|.|.|.T.T.].].].].].|.|.|.].|.].].].].T.].T.P.P.P.C.C.S.S.l.l.s.s.x.v.C.P.P.C.C.C.n.z.s.r.w.4.<.=.<.2.<.              ",
"              v.P.P.C.P.].|.|.|.|.|.|.|.|.|.|.|.].].T.].].].].].~.|.].].].].T.T.T.T.T.C.P.C.C.S.C.l.l.j.s.s.x.T.T.T.P.P.C.S.n.z.f.t.e.0.2.-.:.2.-.              ",
"              S.C.C.C.T.].|.|.|.|.|.|.|.|.|.|.|.].T.T.T.T.T.F.[ q j y.].T.T.T.P.C.P.C.C.S.x.) 0 L q.f.f.s.a.S.T.T.].P.P.C.C.S.l.f.r.e.8.4.-.-.;.-.              ",
"              x.S.b.C.P.].].|.|.|.|.|.|.|.|.|.].].].T.P.T.Q.o.$ 7 X k P.P.P.P.P.C.S.S.S.C.} O = $ H s.s.t.a.B.Q.T.T.P.C.C.S.l.l.f.t.e.0.4.;.*.-.*.&.            ",
"            s.k.l.l.C.P.T.].].|.|.|.].|.|.].].].].T.P.P.P.P.i U D.8 = y.C.S.S.S.S.S.n.l.b.s # 5.o.* 4.r.r.f.B.C.P.P.P.C.S.x.l.f.a.r.e.8.3.;.*.*.*.X.            ",
"            r.f.f.f.C.P.T.T.].T.].].].].].].T.T.T.P.P.C.C.h.7 q [ $ # 4.C.S.S.S.n.j.j.f.s.9 X T U % &.r.e.f.C.C.P.C.C.S.b.l.f.a.t.e.0.7.2.;.*.%.&...            ",
"            r.s.s.f.S.C.P.P.P.T.T.T.].T.P.T.P.P.P.C.C.S.n.t.= o + . + 2.S.l.l.g.f.f.s.s.t.7 . O X X  .e.e.z.S.C.S.S.S.l.g.f.a.t.r.w.8.4.2.-.&..... .            ",
"            e.t.r.f.l.S.C.C.P.P.P.P.P.P.P.C.C.C.C.C.b.b.n.r.* . . . + <.l.f.f.s.f.a.t.t.e.7 . . . X | q.e.s.S.S.S.l.l.j.s.t.r.e.e.0.4.4.<.-.&. . .| }           ",
"            w.e.e.s.f.x.S.S.C.S.C.C.C.C.C.S.S.S.S.x.l.g.f.s.6 . . . + <.f.s.s.a.a.t.t.r.w.6 . . . + &.0.q.t.l.n.l.l.f.s.a.r.r.e.0.7.4.2.:.*.%.| | } '           ",
"            7.0.w.r.s.l.l.l.n.n.n.S.l.S.b.x.l.l.l.f.f.f.f.s.t . . . & 0.s.t.t.t.r.r.r.e.r.t . . . % -.8.w.r.s.f.f.f.a.a.r.e.0.0.7.4.2.<.;.*...} ' ' '           ",
"          4.4.4.0.r.t.s.f.f.j.j.l.l.j.l.j.j.j.f.s.s.s.s.t.s.( o . . a t.a.t.r.r.r.r.w.0.e.) X . . 0 4.7.w.t.s.s.a.r.r.r.w.0.8.7.4.1.<.;.=.&...] ] _ _           ",
"          1.2.4.7.w.r.r.t.s.s.s.s.s.s.s.s.s.s.s.s.t.t.t.t.t.w.K 5 i 3.t.r.r.r.r.w.w.w.0.0.4.L * 0 %.4.4.w.e.t.t.r.r.e.w.0.8.4.4.2.<.-.-.*.X. .' ) ) )           ",
"            ;.2.3.0.e.e.r.t.t.t.t.r.a.t.t.t.t.r.r.r.r.r.r.r.r.t.e.r.r.r.r.r.e.e.w.0.0.0.0.8.8.2.4.3.3.4.w.e.e.e.e.e.0.8.7.4.3.2.<.:.-.*.&. .} ` ~ ~ ~           ",
"            -.-.3.4.0.0.w.w.r.w.r.r.r.r.r.r.r.r.r.e.e.e.w.w.r.r.r.r.e.e.e.e.e.w.0.0.0.0.8.4.4.4.3.3.2.4.0.w.e.e.0.0.0.7.4.3.2.;.-.-.*.%... .] ) ! ~ Q           ",
"            =.-.;.4.4.8.0.0.0.w.w.w.w.w.0.0.e.w.0.0.w.0.0.w.e.e.e.e.w.w.w.w.0.0.0.7.8.7.4.4.4.2.1.<.<.4.0.0.0.8.8.7.4.4.2.<.;.-.-.*.&.X. .] ] ~ W E ~           ",
"            &.&.-.<.3.4.4.7.8.8.8.8.8.0.0.0.0.0.0.0.0.8.0.0.0.0.0.0.0.0.8.8.8.4.7.7.4.4.3.2.2.<.<.;.,.3.0.7.7.7.4.3.2.<.<.-.-.=.*.X.X. .| ] ) ! E T             ",
"            X...&.-.<.3.3.3.4.4.4.4.4.7.4.7.4.7.8.7.4.4.4.8.8.8.8.4.8.4.4.4.4.4.2.2.2.3.<.<.;.;.;.;.;.3.7.4.4.4.3.<.<.;.-.-.*.&.X.X. .| ] _ ~ W Y Y             ",
"               .&.=.-.;.<.<.<.2.2.2.3.3.3.3.3.3.3.3.1.<.<.1.3.4.4.4.3.3.3.2.2.<.;.2.;.;.;.-.-.-.=.*.*.,.2.2.2.<.<.;.-.-.*.&.%..... .| ] _ ) Q Y L Y             ",
"              }  .X.*.-.-.,.<.,.;.;.<.<.<.;.;.<.<.;.;.;.-.-.,.<.,.<.,.,.,.,.,.,.;.-.-.=.=.*.*.&.%... .*.;.;.;.;.-.-.=.&.%.X... .| } ] ` ) ! E P K               ",
"              ] ]  .%.&.=.=.-.-.-.-.-.-.-.;.-.-.-.-.-.-...{ %.=.=.=.*.*.*.*.&.&.%.*.%.%.X... . .} ] ~ ..-.=.-.=.&.&.%.%... .| } { ] ` ) ~ W Y h h               ",
"                _ }  ...&.&.&.*.&.=.*.=.=.=.=.*.=.&.&...{ k L ` |  . .| ..X..... . . .| { ] ` _ Q j g  .&.&.&.%.%..... .| } { ] ` _ ) ~ W Y L h j               ",
"                ~ _ }  .....X.X.%.%.%.%.&.%.%.%.%.%.%.| ] T 4 e l H Y W ! ( ) ) ) ( ! Q I L k p e n / %.X.%.%... .} } } ] ] ` _ _ ( ! W R P h d                 ",
"                  ! _ { }  . . . . ... ... . ....... .{ ] 1.^ : - 1 , < 8 w q t t q w 8 3 < 1 : z B u.=... .| } } { ] ` ` _ ) ) ~ ! W R Y h d                   ",
"                    ~ _ ' { ] } | | | | | | | | | } { '  .4.y.+.n > : x b b v 2 1 2 b b c z ; x V u.0.=. .} { ] ' ` ` ) ) ( ~ ~ W W Y L h d d                   ",
"                      ~ ) ` ` ` ' ] ' { ] { { { ] ' ' ` ..-.7.s.>.O.Z N M M M m m m M m m C D #.d.8.=...{ ] ] ` _ _ ( ~ ~ ~ Q E Y Y L H k d                     ",
"                      ~ ! ~ ) _ _ ` ` ` ` ` ` ` ` ` ) ( } X.=.;.e.k.9.$.O.S Z C C Z A F @.6.D.t.<.%.| ] _ _ ) ( ~ ~ ~ Q W E R Y Y L h d d                       ",
"                        W W ~ ~ ~ ( ( ) ) ) _ _ ( ( ~ ! _ { | ..&.<.e.h.d.i.p.6.6.p.i.D.x.t.3.*.| ' _ ( ~ ( ~ ~ ! Q W W E I I I K k d s                         ",
"                          Y R W Q ! ! ! ~ ~ ~ ~ ~ Q W W ~ ) ` ' ] } X.*.<.4.8.0.w.0.3.<.=.%.} _ ~ ~ Q E E W Q Q W E E I I L K G d d i d                         ",
"                          W P Y Y E E Q Q Q Q Q W E W Q Q Q ! ~ ( ( ) ` ' { } | | } { ' _ ( ! Q E I I I W W E R R I I L K G h d a i i                           ",
"                            Y L I I Y R R E E E R E Q ~ ~ Q R R R W Q Q ! ! ! ~ ~ ! Q W E R Y I L L I R Q Q R I I L L G h f d a i u d                           ",
"                            ~ Y I I I I I I I I E Q ~ ( ( ~ W I L L P I I I Y Y I I P L K h G h h L E ! ~ Q E I L K h f d d a i i a                             ",
"                              W E I I I R I W W Q ! ! ~ ! ~ Q R L h h h h h h h h h f f d d d d K E W W W W R R I K h f d d a i i k                             ",
"                                Y Y Y E Q Q Q W W W Q W W E W E I G d a a i i a i i i i i i d L I I R R R Y I I L K K h d d i i i                               ",
"                                L L P I Y I Y Y R R R R R I I I L K h a i t t r r r r t d h L I I I I I L I L K G h f d a i u u                                 ",
"                                    h h K L L L L L L L L K H G h h f d s i t t t t s d h h K K K K G G G h h f d d i i t t i                                   ",
"                                      h d f h f h h h h h f f d d d d i i t t t a a a d d d d f f d f d d d a a i i t t t                                       ",
"                                          d i i a a d d a d a i i t i t t t q 0 r t t i i i i i i a a i i t t t t 0 q y                                         ",
"                                              i y t t t t t t t r t q 0 0 0 9 0 0 0 r t t t t t t t t t t t 0 0 q t                                             ",
"                                                    t r q 0 0 0 9 0 0 0 t             u q r q 0 0 0 9 0 q 0 r                                                   ",
"                                                                                                                                                                ",
"                                                                                                                                                                ",
"                                                                                                                                                                ",
"                                                                                                                                                                ",
"                                                                                                                                                                ",
"                                                                                                                                                                ",
"                                                                                                                                                                ",
"                                                                                                                                                                ",
"                                                                                                                                                                ",
"                                                                                                                                                                ",
"                                                                                                                                                                "
};
