/* XPM */
static char *_3b893f4d4be4afcbfa222e58ccb244flVmSpcbXUGDY3LmQ[] = {
/* columns rows colors chars-per-pixel */
"32 32 4 1 ",
"  c None",
". c gray12",
"X c #BA6111",
"o c #FFAA47",
/* pixels */
"                                ",
"                                ",
"                                ",
"             oXX.               ",
"            ooXX..              ",
"            ooXX..              ",
"            ooXX..              ",
"            ooXX..              ",
"            ooXX..              ",
"            ooXX..              ",
"            ooXX..              ",
"            ooXX..              ",
"            ooXX..              ",
"            ooXX..              ",
"            ooXX..              ",
"            ooXX..              ",
"            ooXX..              ",
"            ooXX..              ",
"            ooXX..              ",
"            ooXX..              ",
"            ooXX..              ",
"            ooXX..              ",
"            ooXX..              ",
"            ooXX..              ",
"            ooXX..              ",
"            ooXX..              ",
"            ooXX..              ",
"            ooXX..              ",
"             oXX.               ",
"                                ",
"                                ",
"                                "
};
