/* XPM */
static char *b7aafd00a3e84424f0e3af9777b365132pQIuk40TwKs7nkx[] = {
/* columns rows colors chars-per-pixel */
"32 32 4 1 ",
"  c None",
". c gray12",
"X c #BA6111",
"o c #FFAA47",
/* pixels */
"                                ",
"                                ",
"                                ",
"             ooo....            ",
"           ooooooo....          ",
"          oooXXXooo....         ",
"         ooXXooo..oo....        ",
"        ooXooooooo.oo....       ",
"        oXooooooooo.o....       ",
"       ooXooooooooo.oo....      ",
"       oXoXX.ooXX.oo.o....      ",
"       oXoXX.oXXXX.o.o....      ",
"      ooXooX.oX.oX.o.oo....     ",
"      oXoooX.oX.oX.oo.o....     ",
"      oXoooX.oX.oX.oo.o....     ",
"      oXoooX.oX.oX.oo.o....     ",
"      oXoooX.oX.oX.oo.o....     ",
"      oXoooX.oX.oX.oo.o....     ",
"      oXoooX.oX.oX.oo.o....     ",
"      ooXooX.oX.oX.o.oo....     ",
"       oXooX.oXXXX.o.o....      ",
"       oXooX.ooXX.oo.o....      ",
"       ooXooooooooo.oo....      ",
"        oXooooooooo.o....       ",
"        ooXooooooo.oo....       ",
"         ooXXooo..oo....        ",
"          ooo...ooo....         ",
"           ooooooo....          ",
"             ooo....            ",
"                                ",
"                                ",
"                                "
};
