/* XPM */
static char *_87829cb0eff4b12f19bce3a0eb0cc72iGDEs4hrDz9nSmVh[] = {
/* columns rows colors chars-per-pixel */
"32 32 4 1 ",
"  c None",
". c gray12",
"X c #BA6111",
"o c #FFAA47",
/* pixels */
"                                ",
"                                ",
"                                ",
"            ooooXXX             ",
"          ooooXXXXXXX           ",
"         ooooXXX...XXX          ",
"        ooooXX..XXX..XX         ",
"       ooooXX.XXXXXXX.XX        ",
"       ooooX.XXXXXXXXX.X        ",
"      ooooXX.XXXXXXXXX.XX       ",
"      ooooX.X...XX...XX.X       ",
"      ooooX.X...X.....X.X       ",
"     ooooXX.XX..X..X..X.XX      ",
"     ooooX.XXX..X..X..XX.X      ",
"     ooooX.XXX..X..X..XX.X      ",
"     ooooX.XXX..X..X..XX.X      ",
"     ooooX.XXX..X..X..XX.X      ",
"     ooooX.XXX..X..X..XX.X      ",
"     ooooX.XXX..X..X..XX.X      ",
"     ooooXX.XX..X..X..X.XX      ",
"      ooooX.XX..X.....X.X       ",
"      ooooX.XX..XX...XX.X       ",
"      ooooXX.XXXXXXXXX.XX       ",
"       ooooX.XXXXXXXXX.X        ",
"       ooooXX.XXXXXXX.XX        ",
"        ooooXX..XXX..XX         ",
"         ooooXXX...XXX          ",
"          ooooXXXXXXX           ",
"            ooooXXX             ",
"                                ",
"                                ",
"                                "
};
