/* XPM */
static char *f180a5ef2b554a128673429ba4d83f250eFwEKN1TLTffYwI[] = {
/* columns rows colors chars-per-pixel */
"32 32 4 1 ",
"  c None",
". c gray12",
"X c #BA6111",
"o c #FFAA47",
/* pixels */
"                                ",
"                                ",
"                                ",
"           ooooooo....          ",
"         ooooooooooo....        ",
"       ooooXXXXXXXoooo...       ",
"      oooXXooooooo..ooo...      ",
"     oooXooooooooooo.ooo...     ",
"    oooXooooooooooooo.ooo...    ",
"    ooXooooooooooooooo.oo...    ",
"   ooXooXXX.ooXXXXX.ooo.oo...   ",
"   ooXooXXX.oXXXXXXX.oo.oo...   ",
"  ooXooooXX.oXX.ooXX.ooo.oo...  ",
"  ooXooooXX.oXX.ooXX.ooo.oo...  ",
"  ooXooooXX.oXX.ooXX.ooo.oo...  ",
"  ooXooooXX.oXX.ooXX.ooo.oo...  ",
"  ooXooooXX.oXX.ooXX.ooo.oo...  ",
"  ooXooooXX.oXX.ooXX.ooo.oo...  ",
"  ooXooooXX.oXX.ooXX.ooo.oo...  ",
"  ooXooooXX.oXX.ooXX.ooo.oo...  ",
"   ooXoooXX.oXXXXXXX.oo.oo...   ",
"   ooXoooXX.ooXXXXX.ooo.oo...   ",
"    ooXooooooooooooooo.oo...    ",
"    oooXooooooooooooo.ooo...    ",
"     oooXooooooooooo.ooo...     ",
"      oooXXooooooo..ooo...      ",
"       oooo.......oooo...       ",
"         ooooooooooo....        ",
"           ooooooo....          ",
"                                ",
"                                ",
"                                "
};
