/* XPM */
static char *_978649304a149dcbcf77f18041281619xGybuUUrmwwBiH1[] = {
/* columns rows colors chars-per-pixel */
"32 32 5 1 ",
"  c None",
". c gray12",
"X c #BA6111",
"o c #FFAA47",
"O c #93BBEC",
/* pixels */
"                                ",
"                                ",
"                                ",
"           ooooooo....          ",
"         ooooooooooo....        ",
"       ooooXXXXXXXoooo...       ",
"      oooXXooooooo..ooo...      ",
"     oooXooooooooooo.ooo...     ",
"    oooXooooooooooooo.ooo...    ",
"    ooXooooooooooooooo.oo...O   ",
"   ooXooXXX.ooXXXXX.ooo.oo...O  ",
"   ooXooXXX.oXXXXXXX.oo.oo...O  ",
"  ooXooooXX.oXX.ooXX.ooo.oo...O ",
"  ooXooooXX.oXX.ooXX.ooo.oo...O ",
"  ooXooooXX.oXX.ooXX.ooo.oo...O ",
"  ooXooooXX.oXX.ooXX.ooo.oo...O ",
"  ooXooooXX.oXX.ooXX.ooo.oo...O ",
"  ooXooooXX.oXX.ooXX.ooo.oo...O ",
"  ooXooooXX.oXX.ooXX.ooo.oo...O ",
"  ooXooooXX.oXX.ooXX.ooo.oo...  ",
"   ooXoooXX.oXXXXXXX.oo.oo...O  ",
"   ooXoooXX.ooXXXXX.ooo.oo...   ",
"    ooXooooooooooooooo.oo...    ",
"    oooXooooooooooooo.ooo...    ",
"     oooXooooooooooo.ooo...     ",
"      oooXXooooooo..ooo...      ",
"        ooo.......oooo...       ",
"         ooooooooooo....        ",
"           ooooooo...           ",
"                                ",
"                                ",
"                                "
};
