/* XPM */
static char *_25ff58181c04cdeac0fc48c6323d34flV2M0Ub1DbIEqlmw[] = {
/* columns rows colors chars-per-pixel */
"32 32 7 1 ",
"  c None",
". c #4C4C4C",
"X c #F73910",
"o c #21AD10",
"O c #BCBCBC",
"+ c #93BBEC",
"@ c white",
/* pixels */
"       ..                       ",
"      .@o                       ",
"      @ooo                      ",
"      ooo                       ",
"       o                        ",
"       .                        ",
"       @XXXXXXXXXXXXXXXX        ",
"       @XXXXXXXXXXXXXXX         ",
"       @XXX@@XXXXX @XXX         ",
"       @XXXX@@XXX@@XXX+         ",
"       @XXXX@@@X  @XXX+         ",
"       @XXXX@X@ @X@XX+          ",
"       @XXXX@XX@XX@XX+          ",
"       @XXXX@XXXXX@XXX+         ",
"       @XXXX@XXXXX@XXX+         ",
"       @XXX@@@XXX@@@XXX+        ",
"       @XXXXXXXXXXXXXXX+        ",
"       @X XXXXXXXXXXXXXX+       ",
"       @                        ",
"       @                        ",
"       @                        ",
"       @                        ",
"       @                        ",
"       @                        ",
"       @                        ",
"       @                        ",
"       @                        ",
"       @                        ",
"                                ",
"       @                        ",
"     @OOOO                      ",
"     .....                      "
};
