/* XPM */
static char *_9f1544c5e57496dedbe3ec0353c0b36rjJBbafCrcXnr5jT[] = {
/* columns rows colors chars-per-pixel */
"32 32 5 1 ",
"  c None",
". c #4C4C4C",
"X c #21AD10",
"o c #BCBCBC",
"O c white",
/* pixels */
"       ..                       ",
"      .OX.                      ",
"      OXXX.                     ",
"     .XXXX.                     ",
"      .XX.                      ",
"       ..                       ",
"       O................        ",
"       O...............         ",
"       O..OOOOO.......          ",
"       O.OO.O.OO.....           ",
"       O.O..O..O....            ",
"       O.O.OOO.O...             ",
"       O.OOO.OOO..              ",
"       O...OOO...               ",
"       O........                ",
"       O.......                 ",
"       O......                  ",
"       O.....                   ",
"       O....                    ",
"       O...                     ",
"       O..                      ",
"       O.                       ",
"       Oo                       ",
"       Oo                       ",
"       Oo                       ",
"       Oo                       ",
"       Oo                       ",
"       Oo                       ",
"       ..                       ",
"     OOOOOo                     ",
"     Ooooo.                     ",
"     ......                     "
};
