/* XPM */
static char *_8936156c31e415dc105242d19b2ab41Xn12HRLaGj3Lg1SF[] = {
/* columns rows colors chars-per-pixel */
"32 32 8 1 ",
"  c None",
". c #4B4B4B",
"X c #4C4C4C",
"o c gray30",
"O c #21AD10",
"+ c #BCBCBC",
"@ c #93BBEC",
"# c white",
/* pixels */
"      @XX@                      ",
"     @X#OX@                     ",
"     X#OOOX                     ",
"     XOOOOX                     ",
"      XOOX                      ",
"       XX                       ",
"       #XXXXXXXXXXXXXXX         ",
"       #XXXXXXXXXXXXXX          ",
"       #XX#####XXXXXX           ",
"       #X##X#X##XXXX            ",
"       #X#XX#XX#XXX             ",
"       #X#X###X#XX              ",
"       #X###X###X               ",
"       #XXX###XX                ",
"       #XXXXXXX                 ",
"       #XXXXXX                  ",
"       #XXXXX                   ",
"       #XXXX                    ",
"       #XXX                     ",
"       #XX                      ",
"       #X                       ",
"       #                        ",
"       #                        ",
"       #                        ",
"       #                        ",
"       #                        ",
"       #                        ",
"       #                        ",
"       X                        ",
"       #                        ",
"     #++++                      ",
"    @XXXXXX                     "
};
