/* XPM */
static char *bce59142c24c4b3db68bfab7e7100cbczgpncSdtr1ArEfM9[] = {
/* columns rows colors chars-per-pixel */
"32 32 6 1 ",
"  c None",
". c #4C4C4C",
"X c #F73910",
"o c #21AD10",
"O c #BCBCBC",
"+ c white",
/* pixels */
"       ..                       ",
"      .+o.                      ",
"     .+ooo.                     ",
"     .oooo.                     ",
"      .oo.                      ",
"       ..                       ",
"       +XXXXXXXXXXXXXXXX        ",
"       +XXXXXXXXXXXXXXX         ",
"       +XXX++XXXXX++XXX         ",
"       +XXXX++XXX++XXX          ",
"       +XXXX+++X+++XXX          ",
"       +XXXX+X+++X+XX           ",
"       +XXXX+XX+XX+XX           ",
"       +XXXX+XXXXX+XXX          ",
"       +XXXX+XXXXX+XXX          ",
"       +XXX+++XXX+++XXX         ",
"       +XXXXXXXXXXXXXXX         ",
"       +XXXXXXXXXXXXXXXX        ",
"       +O                       ",
"       +O                       ",
"       +O                       ",
"       +O                       ",
"       +O                       ",
"       +O                       ",
"       +O                       ",
"       +O                       ",
"       +O                       ",
"       +O                       ",
"       ..                       ",
"     +++++O                     ",
"     +OOOO.                     ",
"     ......                     "
};
