/* XPM */
static char *_03ae73712ce452f9314065773ad294bmWw0jbxgO41mrZP2[] = {
/* columns rows colors chars-per-pixel */
"64 64 176 2 ",
"   c #3B3B3E",
".  c #46423E",
"X  c #3E3C42",
"o  c #3E3E48",
"O  c #413F45",
"+  c #443E48",
"@  c #3F4140",
"#  c #434345",
"$  c #4A4646",
"%  c #474946",
"&  c #4A4945",
"*  c #45444B",
"=  c #49464D",
"-  c #47494B",
";  c #4B4A4D",
":  c #52514E",
">  c #59564F",
",  c #464552",
"<  c #494652",
"1  c #464A54",
"2  c #4C4B54",
"3  c #4A475A",
"4  c #4D4C59",
"5  c #514E55",
"6  c #524E5A",
"7  c #4E5154",
"8  c #4E515B",
"9  c #535255",
"0  c #595556",
"q  c #575852",
"w  c #5A5B57",
"e  c #54535B",
"r  c #59565C",
"t  c #57595B",
"y  c #5B5A5D",
"u  c #605C5E",
"i  c #5F605B",
"p  c #63615D",
"a  c #524F60",
"s  c #555461",
"d  c #5A5661",
"f  c #575A62",
"g  c #5D5B62",
"h  c #5D5B69",
"j  c #615E64",
"k  c #635E6A",
"l  c #5D6069",
"z  c #646265",
"x  c #696566",
"c  c #6B6A65",
"v  c #65636A",
"b  c #6A656B",
"n  c #65696C",
"m  c #6C6A6C",
"M  c #706768",
"N  c #716D6E",
"B  c #6F706A",
"V  c #72716D",
"C  c #676471",
"Z  c #6B6671",
"A  c #6D6B72",
"S  c #6F6E78",
"D  c #726E73",
"F  c #726F7B",
"G  c #747274",
"H  c #797475",
"J  c #777873",
"K  c #7B7976",
"L  c #75747A",
"P  c #7A767A",
"I  c #79787D",
"U  c #7D7A7C",
"Y  c #7F7D7E",
"T  c #7C7A7C",
"R  c #817D76",
"E  c #807C7B",
"W  c #837F7F",
"Q  c #827D7C",
"!  c #81817D",
"~  c #83827E",
"^  c #8A847F",
"/  c #777781",
"(  c #7B7581",
")  c #7C7680",
"_  c #7F7B82",
"`  c #7E7884",
"'  c #7E7B82",
"]  c #837D81",
"[  c #827E82",
"{  c #807A86",
"}  c #837E86",
"|  c #827E83",
" . c #887F82",
".. c #807D88",
"X. c #818082",
"o. c #868082",
"O. c #878185",
"+. c #878286",
"@. c #878586",
"#. c #858283",
"$. c #888482",
"%. c #888387",
"&. c #8B8585",
"*. c #8B8786",
"=. c #898586",
"-. c #8C8784",
";. c #898584",
":. c #8C8986",
">. c #86848A",
",. c #888389",
"<. c #8B868D",
"1. c #89868B",
"2. c #8B898A",
"3. c #8A898A",
"4. c #8F8B88",
"5. c #8E8D89",
"6. c #8B8B8D",
"7. c #8A898E",
"8. c #8C8A8C",
"9. c #928C85",
"0. c #928E8B",
"q. c #948F8C",
"w. c #928D8B",
"e. c #939087",
"r. c #94908F",
"t. c #93918E",
"y. c #9A948E",
"u. c #8B8591",
"i. c #888590",
"p. c #8E8C92",
"a. c #938F90",
"s. c #928D92",
"d. c #938D9B",
"f. c #948E9C",
"g. c #948E98",
"h. c #959396",
"j. c #959394",
"k. c #9A9595",
"l. c #999894",
"z. c #9C9A96",
"x. c #969499",
"c. c #9A969A",
"v. c #9D9A9B",
"b. c #A19C95",
"n. c #A29E9B",
"m. c #A1A09E",
"M. c #A4A29D",
"N. c #A9A19E",
"B. c #ACA89F",
"V. c #9E9CA1",
"C. c #9F9BA9",
"Z. c #A19EA2",
"A. c #A19EA9",
"S. c #A5A2A3",
"D. c #AAA5A4",
"F. c #A7AAA3",
"G. c #ACAAA5",
"H. c #A6A4A9",
"J. c #AAA6A9",
"K. c #ADAAAC",
"L. c #B2ADA6",
"P. c #B2ADAB",
"I. c #AFB1AC",
"U. c #B4B0A7",
"Y. c #B4B1AB",
"T. c #B9B2AF",
"R. c #ADACB0",
"E. c #B2AEB2",
"W. c #B4B2B3",
"Q. c #B9B5B6",
"!. c #B7B8B3",
"~. c #BDBAB3",
"^. c #BCBABB",
"/. c #C1BBBB",
"(. c #C1BFC4",
"). c #D0CBC7",
/* pixels */
"h 7 1 1 , 1 f h f f r t j m m x i % : q 7 l g d C C Z v j j k j j 0 z y z 9 # 1 9 e r y z P  .o.{ ( C k k d 6 d a 6 k  .f.( C C ",
"f 8 8 e 2 3 e e y j z n m m V J B q : : 9 t e d k C Z A b v b x p j x y y v t - 2 7 9 t k m P  .} ( Z C C j j k 6 6 a E } } Z h ",
"r e 1 2 2 < 6 k h j b G D G H ! ! c & ; 9 7 e h e d k Z D D D G N H m G v J m 2 7 ; 2 y u j m P ,.} L D F N v v d r 0 u {  .( k ",
"f f 1 - 2 < 6 Z L m m G Y ! $.5.3.K : - 9 7 r f d g h b P &.&.o.W Q H -.X.X.I 8 2 2 9 r y j b G ]  .] P H D m m x j j 0 E  .Z Z ",
"h g r 6 6 = < k _ L H W ;.:.q.l.m.3.9 # 9 5 d e d g 0 g U t.t.w.q.9.&.q.j.6.7.y 1 2 9 8 r z n A H %.3.X.T I B D m m y 0 E } Z N ",
"h y 6 6 2 < r S | O.s.k.l.l.n.G.W.3.9 # * 2 5 5 2 e 2 y $.z.b.b.n.n.n.k.S.V.x.l - 2 2 2 e h b n G 8.l.j.:.$.! T ! c p m  . .H H ",
"k e 6 6 < 3 Z  .p.c.S.D.D.G.Y.!.J.A * # 1 5 ; 5 5 0 r G M.P.K.T.L.P.T.K.P.J.X.r * 1 8 8 8 f l C P c.S.v.j.j.3.#.X.J m @.c.8.] D ",
"b j j k u j E g.s.g.g.j.n.M.D.M.j.2 X ; r 9 = e 9 0 j $.P.P.M.Y.T.L.W./.Q.S.h @ - 1 8 s e s h A | v.J.v.j.j.1.' Y ' W x.x.&.} H ",
"D D g.k.} j d r 9 0 0 0 0 u 0 0 5 ; ; 2 5 0 h x L N z u M p M R W 9.N.P.a.j = ; 2 e e 8 / / i.n d 0 r e 5 9 0 r r 0 9 y v z j m ",
"P E g.<.Z = = = = = = $ $ $ $ $ ; 1 2 2 e g h b D j : ; > > u M R W b.q.b ; ; 2 1 d f l L / S f * * * = = = 1 3 , * + = 6 5 5 h ",
"k M { { r 3 e 6 5 2 < = ; ; ; = , , 3 5 e r h b D 0 ; : 0 0 u M M  . .E = X ; 7 , f f v Z ` 0 < * , ; 2 2 6 4 e 2 3 , 1 6 e d v ",
"M F { E 5 0 e < 6 5 2 2 5 < 5 ; * = 2 6 e r z A A 2 $ 5 0 u j u M  . .M # * 9 3 1 f s h Z } 6 < 3 < 3 , 3 4 e s e 4 3 2 s s d h ",
"b E { Q e e e 2 4 1 3 8 2 < , * = , 2 6 e d k D G e = 5 6 0 u r Z E } F 5 # 4 4 4 e g g S ' j < 2 2 2 , 3 2 e r 2 4 , = 4 6 e d ",
"0 Z } } v d e h s a s s s 6 4 3 < 1 6 6 6 d v F _ z 5 2 5 r u u k M ] L r O @ e 6 1 g g L _ D 6 2 2 6 e e e d f s r 2 , 6 e d h ",
"y m  .,.' l 6 f s s s a s 8 4 1 3 1 2 4 e d v S ( D e = = 6 r g j Z P P A 1 o e 2 3 y h A P } b ; 1 2 5 e e r y h y 2 - 1 2 e t ",
"x m P } x.G g h f f s s s a a 8 , 3 2 e e g v A >.,.b 2 6 e e r j Z D P } v + 2 r e y b v P c.} 9 9 9 e r t h v m v 0 = ; 2 8 r ",
"h g G 3.m.l.B n k x j h g d r e 8 2 2 5 0 r k M P j.p.h = 5 f r t v A ` 8.b 1 = 5 5 0 g M P <.c.N 9 r y 9 g A h m S I f * 2 r , ",
"t g A I j.M.~ B c k j j h g t r t 2 ; 9 r u x D } s.Z.O.- = h e f v C A >.<.v - 5 5 r j Z E 8.c.k.z ; y l i c m G T / b * * r f ",
"r z D B ~ B.b.K H M k b m v g g y 9 2 9 r u x G O.8.K.C.g * e 2 r h v v ' V.' 2 2 5 r j M P s.Z.W.K q y x z x G ' 3.6.7.j O 5 e ",
"r h A B ~ B.G.5.W E P P L m v n v t 2 9 r u b G { h.H.H.X.5 * 8 d f f S / >.<.h 5 5 r j Z P } n.K.e.c i c m V W 3.6.j.S.U = 2 ; ",
"e r c K ^ b.B.b.9. .{  .I G D D G h 5 5 6 r x G _ j.K.E.1.e # r e h g I L L p.C 2 5 r k Z E s.Z.Y.z.J u B R E $.a.y.b.A.W $ 9 0 ",
"0 y p R ^ e.M.M.y.k.g.<.,.} I U I v 5 5 u r k H  .<.E.W.S ; 2 2 2 h e C A S i.s = 5 e j Z P s.Z.~.z.V c R ^ %.q.b.Z.P.K.J $ 5 0 ",
"5 k u M ^ ^ b.B.N.N.Z.c.s.s.8.} L f 5 5 r j k R  .8.J.v.y - e 2 2 r t h v G D 5 2 9 r j N P s.V.G.5.V H ^ -.w.c.Z.K.T.n.k $ ; : ",
"; k u > R y.U.U.D.P.A.c.x.c.a. .A e $ 6 r u j N o.c.c.U g 5 5 e t 7 x z x G y 9 y y j b D { a.v.&.E K U &.9.a.n.P.A.Z.E ; + 5 5 ",
"5 5 + & R B.B.n.y.9.E M b k u r 2 - * 2 0 r 0 r r E A.K.A.Z.g.8.! T B J 5.m.F.F.M.S.v.l.c.v.a.o.j u r r 0 u r 5 r 5 r 6 5 6 6 + ",
"+ 5 + > Y.U.n.b.9.W E b k r 9 ; 1 1 1 2 5 5 6 0 j n./.P.Z.V.c.8.! J B J z.!.!.F.I.F.z.j.z.l.W x j r 0 6 5 5 5 2 + < 6 6 + + 6 6 ",
"< = $ M ).L.z.t. .D Z k d 0 5 = - 1 2 2 2 5 0 0 G K.E.A.Z.c.g.] ! V c ! F.F.m.l.5.5.;.$.;.$.K N x u r 0 = 5 2 * r r k d a + 6 6 ",
"r * $ -.Y.D.b.9.E E M k g 0 5 , @ 1 1 2 2 0 u r E A.n.n.Z. .] P G i i ^ M.j.3.l.3.:.$.T K G K H b j r r 5 5 2 - d r a d a a d + ",
"6 = - Y n.M.z.o.E E M k j r 5 * 1 1 7 1 e y j y H A.c.k.g.N Z H c i i K 5.3.! @.*.' G m D G G G H z f y e t 7 2 9 e g f d a d 6 ",
"3 < 7 y S.n.5.K E k k j a r 2 < 1 1 1 1 e y j u M k.w.{  .E D M b n i y J >.T n b b z z k A G I P x y i t q 7 2 1 t n n j d d r ",
"6 3 r ; *.j.#.J k k d a s r 6 2 1 1 1 8 e r y z M { W E E E M j 0 y 7 2 v T L n v Z Z C j d b L K n n i t 7 9 7 - t n z t e 6 6 ",
"h , y 2 0 @.! P M k j a a a 2 < 1 1 8 8 e e j c E E  .E M j r j y t r 9 f g l b k k k d d d h n Y J B n i 7 q t ; 7 l n v v z y ",
"g f 9 : q n G S A h a a s s 2 * 1 1 7 8 y j p x E  .g.E k j j r r 8 8 7 7 t l l C s a h h 4 2 0 A o.U x z g 9 9 2 2 9 l G n y n ",
"h g t 9 q z m m C h s a a 6 2 , 1 1 7 8 r p c M R 9.y. .M j j r e 8 7 ; 7 7 7 t e s a a 4 e 9 2 y G P z z g r e ; ; 2 g G L m G ",
"v z g y 9 t g m k h s s 6 4 2 2 1 8 7 8 t p M J E  .n.f.H j d d 8 7 1 7 7 ; 8 7 4 s s 4 4 e 9 2 9 N U G m v z y e r 5 e S I m n ",
"S v z l q 0 y z h h s s 6 < 1 2 - 7 8 0 y z N K 9.9.D.A.E 0 r r 2 7 ; ; ; : : 7 6 4 2 4 4 , * ; & x W E m v j 9 9 r ; = m @.Y m ",
"L n v z i y f l h d 6 4 6 2 , ; @ 1 t t i x V K 9.w.P.E. .r 2 < 7 ; ; : - - - ; 2 2 2 6 2 ; ; ; . p ^ ^ J N x t y y - - G p.>.J ",
"' L m n m x z g h 6 4 3 5 < , = @ 7 7 i p c J R <.b.Q.E. .j 2 < 7 1 - - % % % - ; 2 4 , ; 2 ; ; . c ^ ^ ! J m x g h 7 t ' x.1./ ",
">.' G S N m z g d 6 4 3 2 < = - - : q i z M R W y.Z.P.c.F 6 < 4 1 1 - @ % % : : * * * * * - - . > R ^ ^ ~ K m n y 0 t C h.A.V.p.",
"p.@.' G G N x g d 6 6 6 2 1 = ; i i i l x M R  .b.A.n.{ d + + r 1 - % % % - q i y = - 9 9 = - : R B.U.b.y.$.G J m m n X.H.R.V.x.",
"6 e 5 ; N j.I G M d a 6 6 + : &.I.F.m.e.:.! ! J R k 0 5 < + < < * 1 - @ J F.l.l.j./ / I g m y e./.~.~.Y.Y.Y.W.W.(.C.X.v t y y y ",
"2 X = 0 n.c.@.L Z k j 6 < 6 F J.I.F.l.5.! J B B j u < ; 3 5 < 5 1 - * i m.~.m.l.t.3.I n r 0 P J.U.U.U.G.G.K.K.R.H.' y 9 9 2 2 - ",
"4 * 2 F ^.V.*./ Z k d 6 + u s.Q.F.F.t.@.! G n n 5 ; + + < 3 < 3 , - # I ^.^.M.l.6.3.G l D y g.D.b.b.M.z.v.m.S.S.V.P g g z y y 9 ",
"2 d 5 E Q.H.*.' Z M 6 6 = r x.W.m.l.3.! J G c z u 5 = < 5 5 < < , 3 1 ' I.F.l.5.J I z i Z 0  .&.e.e.5.5.3.6.p.6.X.A z l 0 2 2 2 ",
"+ 6 $ H K.J.w.{ D k r d ; 5 3.G.x.3.U G D m v k u 6 2 < 2 2 3 < 6 6 3 L S.m.l.$.I T L j g r G 4.R ! E T P Y Y ' ' I I A y 0 y 0 ",
"d + $ j J.S.c.| F j 6 r 5 ; G l.j.*.U D m v k u u 6 2 6 6 4 e s a 4 < b j.M.l.! c n j 0 5 0 0 N V G V D A G G G A S L m l l i 9 ",
"k + 5 9 <.v.v.{ P j r 5 5 $ 0 P 3.X.P N k j u r 6 6 6 6 e e e d a 3 4 r I t.:.K G z y g d j 2 j x c b c v b b b m A L S m x l t ",
"6 r r ; r k.c. .G j j r 0 5 - x T G Z k j d r r 6 6 6 e e 4 6 d h a s e n ! J K m x y g 0 = = k j j k j g j h g g v L ' A h j i ",
"d 6 r 5 ; G j.*.S b j r 5 1 = 2 l m n h y f d 6 4 6 < d k u x u r j j 0 y N G m n g r r r 2 3 9 e 9 0 r 0 r r r 5 e b ) I D 5 b ",
"j r 0 6 - y Y a.I m r 5 e 6 6 = 0 g z t r y r 2 4 < $ 6 k j b b N c m b b N A x z r 8 7 8 - - ; 2 5 5 e 6 0 e e 0 5 5 Z _ F b b ",
"k r 6 r ; ; m 7.Y m y e r 6 2 , 2 t f y r f r 5 6 5 2 5 b F m F m z N H N D L n z t e r e 4 3 1 , 1 2 4 6 5 5 6 6 5 = 0 ] F P b ",
"j j u 6 r 9 y P L m g y 6 6 2 + - 9 t r e e 1 1 = + < ; b <.E O.-.K o.-.U W X.v r e 6 5 4 2 < , 2 2 2 4 6 2 < < , 5 5 5 Z P E v ",
"k k g r y 5 y I U D j r r 6 2 < - 9 r q 9 9 ; = = 5 = O b q.,.*.c.w.a.q.*.x.p.v e e 6 2 4 4 4 , , 2 3 3 2 2 2 < = 5 5 = k g.E M ",
"F Z j g r ; y 7.<.D g 6 6 d 6 5 ; 7 9 9 5 5 2 ; ; 5 = ; L v.c.v.n.k.n.c.c.K.v.b r r e 2 4 4 4 , + < , , , 2 < 2 < ; + ; N Z.} E ",
"H A v g y y A p.>.S d e e e 6 2 - ; 7 ; ; ; ; ; + $ + j n.E.E.Q.W.W.W.P.R.K.8.g 5 6 4 * + 3 4 + 3 , , , 3 2 2 < 5 + ; v s.Z.8. .",
"D D b d h L >.p.G A v h 6 2 , 2 9 9 0 9 0 0 y g 9 u 9  .^.E.Z.Z.S.J.J.K.R.Z.P 5 e d e 6 a h h a 3 3 3 3 , , , < = = 6 } P.a.<.Q ",
"9 9 2 2 2 6 e 7 8 2 2 2 , , 6 r k M L P | a.c.l.S.j.y : y y y 9 t y y g x z r g k Z ` ` i.C.A./ 3 4 6 3 , < = , + 0 L ' U D 0 z ",
"5 2 = - 1 ; 1 ; , * * 1 , 2 e h M Z L E ,.a.c.v.S.Y 9 # ; # # #   X X O ; 9 e g v v F ` p.C.i.d 4 6 3 2 2 2 2 2 , L p.P N b 0 0 ",
"7 2 ; ; ; 1 3 2 , , * 1 1 2 e r j j M F L ' 3.p.@.r   # ; ; ; 9 9 9 2 = 2 e e d k j Z { x.s.F 4 6 6 4 3 3 5 2 < j h.V.' D x u : ",
"9 7 1 ; ; 2 2 1 4 4 4 1 4 1 4 r d j j M L L | 3._ ; - ; 2 9 1 2 1 2 , ; 5 e 5 e d j b F >.` b d d 6 2 2 6 2 = - D Z.c.@.P c u 0 ",
"9 7 ; - ; 3 1 4 4 4 4 4 e e s f j a j k D G P O.I 9 7 7 2 9 * * , , , , 2 4 2 e 6 j k M P | D z d e 2 5 7 2 2 ; z h.c.p.E x u u ",
"9 7 ; 1 3 1 7 4 4 4 8 8 e e e r 6 r r j j n D G D y 9 - - e 8 2 s f d 4 6 6 2 e 0 j j x L O.P u g e 9 r r e 5 9 2 @.Z.s.H x x 0 ",
"q 8 2 ; 1 e 8 a 4 s s s r f f e s d r r j v m D L S y 2 1 2 8 a 4 a 3 4 3 3 3 9 r r j v D W | n z 0 r t y q 9 9 = m v.c.] G b u ",
"t 7 2 2 1 4 a 4 a s f s f h g f + r r 6 0 j n v G L g y h 8 f h a h h s t e 3 e 6 9 j b x H $.G c l y y y 0 9 r 9 0  .Z.<.E x u "
};
