/* XPM */
static char *a6df998f6d35411d898c94764867a672xkrs5bETK4ecxwVa[] = {
/* columns rows colors chars-per-pixel */
"32 32 15 1 ",
"  c None",
". c black",
"X c #3E0001",
"o c #744613",
"O c #181F75",
"+ c #9E134E",
"@ c #FC235D",
"# c #FC5856",
"$ c #CE902B",
"% c #FED15D",
"& c #336D86",
"* c #70D1BC",
"= c #FEC5B3",
"- c #82ABE7",
"; c white",
/* pixels */
"                                ",
"                                ",
"                                ",
"                                ",
"               XXXXX            ",
"             XX@@%@@X           ",
"            X@@+$%;+X           ",
"          -X@++.......          ",
"         -X@+..........         ",
"         X++...........         ",
"        -X++..#;;#;;..          ",
"        -#=..##;.=.;-           ",
"       -#o=..#=;.=.;=o          ",
"       -#o#...==##===o          ",
"        -###.==.o####o          ",
"         ..###........          ",
"         -..##==.....           ",
"           .o#######            ",
"            X++XXooo            ",
"           X@@X+o;;;            ",
"          X+@@@o;;;;;           ",
"          X++@@o;;;;;o          ",
"          OX++@+o;;;o           ",
"          OOX++XXooo            ",
"          O&OXXX***&            ",
"          O&&&*****&O           ",
"          -O&&&**O&O            ",
"          -O&&&&&O&O            ",
"           -OOOOOOO             ",
"           -ooooo.o             ",
"            .oooo%.%            ",
"            .........           "
};
