/* XPM */
static char *_47a45c2c8ea4e3ff3b47d0306f3a824HFLuYW4UMg1SaOfL[] = {
/* columns rows colors chars-per-pixel */
"32 32 14 1 ",
"  c None",
". c black",
"X c #3E0001",
"o c #744613",
"O c #181F75",
"+ c #9E134E",
"@ c #FC235D",
"# c #FC5856",
"$ c #CE902B",
"% c #FED15D",
"& c #336D86",
"* c #70D1BC",
"= c #FEC5B3",
"- c white",
/* pixels */
"                                ",
"                                ",
"                                ",
"                                ",
"               XXXXX            ",
"             XX@@%@@X           ",
"            X@@+$%-+X           ",
"           X@++.......          ",
"          X@+..........         ",
"         X++...........         ",
"         X++..#--#--..          ",
"         #=..##-.=.-            ",
"        #o=..#=-.=.-=o          ",
"        #o#...==##===o          ",
"         ###.==.o####o          ",
"         ..###.........         ",
"          ..##==......          ",
"           .o#######o           ",
"            X++XXooo            ",
"           X@@X+o---o           ",
"          X+@@@o-----o          ",
"          X++@@o-----o          ",
"          OX++@+o---o           ",
"          OOX++XXooo-           ",
"          O&OXXX***&O           ",
"          O&&&*****&O           ",
"           O&&&**O&O            ",
"           O&&&&&O&O            ",
"            OOOOOOO             ",
"            ooooo.o.            ",
"            .oooo%.%.           ",
"            .........           "
};
