/* XPM */
static char *_b36c1d800a14cc1d456cdd1b370be246jClAHxglcIHoDrx[] = {
/* columns rows colors chars-per-pixel */
"80 80 145 2 ",
"   c None",
".  c #010101",
"X  c #000B00",
"o  c #090909",
"O  c #051404",
"+  c #071C06",
"@  c #081F07",
"#  c #022301",
"$  c #022900",
"%  c #0B2909",
"&  c #033C00",
"*  c #0B3708",
"=  c gray14",
"-  c #034500",
";  c #0D420A",
":  c #12410F",
">  c #13490F",
",  c #055C00",
"<  c #164E12",
"1  c #185514",
"2  c #1B5E16",
"3  c #056200",
"4  c #056E00",
"5  c #0A6E05",
"6  c #067000",
"7  c #097503",
"8  c #0B7B04",
"9  c #0E7008",
"0  c #0E7C09",
"q  c #117B0B",
"w  c #237B1C",
"e  c #0D8006",
"r  c #0F8408",
"t  c #10860A",
"y  c #138C0C",
"u  c #15910D",
"i  c #198E12",
"p  c #179510",
"a  c #199412",
"s  c #1A9B12",
"d  c #1F9618",
"f  c #229B1A",
"g  c #1DA215",
"h  c #20A717",
"j  c #20A817",
"k  c #24A31C",
"l  c #22AD1A",
"z  c #25B41C",
"x  c #27B81E",
"c  c #29BB1F",
"v  c #278C20",
"b  c #288C20",
"n  c #2EB524",
"m  c #2ABC21",
"M  c #2DC423",
"N  c #2FC925",
"B  c #31C127",
"V  c #31CC26",
"C  c #36C72C",
"Z  c #35CA2B",
"A  c #3ACE2F",
"S  c #33D128",
"D  c #34D229",
"F  c #34D329",
"G  c #35D32A",
"H  c #34D429",
"J  c #35D52A",
"K  c #35D62A",
"L  c #35D62B",
"P  c #36D72B",
"I  c #34D229",
"U  c #37DB2C",
"Y  c #37DA2C",
"T  c #38DB2D",
"R  c #38DC2D",
"E  c #38DE2D",
"W  c #39DE2D",
"Q  c #39DF2D",
"!  c #39DD2E",
"~  c #39DE2E",
"^  c #39DF2E",
"/  c #39DD2D",
"(  c #3BD230",
")  c #3BD330",
"_  c #3BD331",
"`  c #3CD331",
"'  c #3BD730",
"]  c #3EDD32",
"[  c #39E12E",
"{  c #3AE02E",
"}  c #3AE12F",
"|  c #3AE22F",
" . c #3BE22F",
".. c #3AE22F",
"X. c #3CE330",
"o. c #3BE430",
"O. c #3CE430",
"+. c #3CE530",
"@. c #3DE431",
"#. c #3CE531",
"$. c #3CE631",
"%. c #3DE631",
"&. c #3DE731",
"*. c #3DE431",
"=. c #3EE832",
"-. c #3EE932",
";. c #3EEA32",
":. c #3FEB33",
">. c #3FEC33",
",. c #3EEA32",
"<. c #40E435",
"1. c #40E034",
"2. c #41E835",
"3. c #42E836",
"4. c #40EC34",
"5. c #40ED34",
"6. c #40EE34",
"7. c #43F336",
"8. c #43F436",
"9. c #43F536",
"0. c #44F437",
"q. c #44F637",
"w. c #44F737",
"e. c #43F537",
"r. c #44F738",
"t. c #45F838",
"y. c #45F938",
"u. c #46F839",
"i. c #46F939",
"p. c #45FB39",
"a. c #46FA39",
"s. c #47FB3A",
"d. c #47FD3A",
"f. c #47FE3A",
"g. c #47FF3A",
"h. c #47FD3A",
"j. c #48FC3B",
"k. c #48FF3B",
"l. c #49FF3B",
"z. c #49FF3C",
"x. c #4AFF3C",
"c. c #4AFF3D",
"v. c #4BFF3D",
"b. c #4BFF3E",
"n. c #48FF3B",
/* pixels */
"                                                                                                                                                                ",
"                                                                                                                                                                ",
"                                                                                                                                                                ",
"      = o o o o o . o . o . . o o . o . o . o . o . . o o . o . o . o . o o . o o . o o o . o . o o . o o . o o o . o . o . . o o . o . o . o . o . o o o       ",
"      . . . . . . . . . . . . . . . . . . . . . . . . . . . . . . . . . . . . . . . . . . . . . . . . . . . . . . . . . . . . . . . . . . . . . . . . . .       ",
"      . . X % % % % % % % % % % % % % % % % % % % % % % % % % % % % % % % % % % % % % % % % % % % % % % % % % % % % % % % % % % % % % % % % % % % % X . .       ",
"      . . < *.<.<.2.=.2.2.2.<.2.2.2.2.2.<.2.2.2.<.2.2.2.<.2.2.2.<.2.=.2.2.2.<.2.2.2.2.2.<.2.=.<.<.2.2.2.<.2.2.2.<.2.=.2.2.2.<.2.2.2.2.2.2.2.=.<.<.2.1 . .       ",
"      . . < j.c.l.c.c.l.c.l.c.l.l.l.g.l.g.l.c.g.l.g.l.g.l.l.c.l.l.c.c.l.c.l.c.l.c.g.c.l.c.c.c.g.l.l.c.l.l.c.l.c.l.c.c.l.c.l.c.l.g.c.c.g.c.c.c.n.l.g.2 . .       ",
"      . . * z z z z z z z z z z x >.g.g.l.g.c.g.g.g.g.g.E z z z z z z z z z z z z z z z z z z z z z z z z z z z z z z z z z z z z z z l z z z z z z ; . .       ",
"      . . # 3 4 4 4 4 4 4 4 4 4 7 W g.l.g.l.g.g.c.c.g.c.M 4 4 4 4 4 4 4 4 4 4 4 3 6 4 4 4 4 4 4 4 4 4 4 4 4 4 4 4 4 4 4 4 3 6 4 4 4 4 4 4 4 4 4 4 4 $ . .       ",
"      . . $ 8 e 8 e e 7 4 6 4 4 7 [ g.l.l.g.c.c.g.g.c.l.M 4 6 7 e e 8 8 8 7 4 6 6 6 6 6 6 6 4 6 4 4 6 6 4 4 6 6 4 8 e 8 6 6 6 e e e e e 8 e e 7 4 4 $ . .       ",
"      . . < =.>.>.>.>.h 4 6 4 4 7 E l.g.g.l.g.g.g.c.g.g.M 4 4 z >.>.>.>.&.y 4 6 6 6 6 6 6 6 6 6 6 6 6 6 6 6 6 4 7 V >.[ r 4 r [ >.>.>.=.=.>.>.l 4 4 $ . .       ",
"      . . < a.g.g.g.c.l 4 6 6 4 7 [ g.l.c.g.g.g.g.g.c.l.M 4 4 c c.n.g.g.a.u 4 4 6 6 4 6 6 6 6 6 4 6 6 6 6 6 6 6 7 o.c.r.r 4 y r.n.c.g.n.g.n.c.c 4 6 $ . .       ",
"      . . < a.l.c.g.g.z 4 6 6 4 7 W l.g.g.g.c.c.c.g.g.l.M 4 4 c c.g.c.g.r.u 4 6 6 6 6 6 6 6 6 6 6 6 6 6 6 4 6 4 6 g m m z g z m m V g.n.c.g.g.z 4 6 $ . .       ",
"      . . < a.g.g.g.c.l 4 6 6 6 7 [ g.g.g.c.g.g.c.g.g.c.M 4 4 c l.g.g.g.a.u 4 6 6 6 6 6 6 6 6 6 6 6 6 6 6 6 6 6 6 4 4 8 =.c.o.8 4 p a.c.g.g.l.z 4 4 $ . .       ",
"      . . < a.c.g.g.g.l 4 6 6 4 7 E c.c.g.g.c.g.g.l.g.l.M 6 4 m l.g.g.c.r.u 4 4 6 6 6 6 6 6 6 6 6 6 6 6 6 6 6 6 4 8 7 r o.r.E e 7 s a.g.g.c.c.z 4 4 $ . .       ",
"      . . < a.c.n.g.n.z 4 4 6 4 7 [ g.l.g.c.g.g.g.g.c.l.M 4 4 c l.g.g.l.u.u 4 6 6 6 6 6 6 6 6 6 6 6 6 4 6 6 6 4 7 N &.Y p y p E o.=.n.n.n.n.n.m 4 4 $ . .       ",
"      . . < a.l.n.g.n.l 4 4 6 6 7 E l.g.l.g.g.c.c.g.g.l.M 4 6 c l.g.l.l.u.u 4 6 6 6 6 6 6 6 6 6 6 6 6 6 6 6 6 4 7 E c.e.r 3 r r.c.c.n.n.n.n.n.z 4 4 $ . .       ",
"      . . < a.l.n.g.c.g 4 6 6 6 7 [ g.g.g.g.g.c.c.g.g.l.M 4 4 c l.g.l.l.u.u 4 4 6 6 6 6 6 6 6 6 6 6 6 6 6 6 6 6 6 z N M j g g N M L g.n.n.n.n.z 4 4 $ . .       ",
"      . . < a.g.n.n.n.z 4 4 6 4 7 [ g.g.c.c.g.g.g.g.c.l.M 4 4 c l.g.l.l.u.u 4 6 6 6 6 6 6 4 6 6 6 6 6 6 6 6 6 6 6 6 4 8 =.c.=.8 4 p r.n.n.g.n.z 4 4 $ . .       ",
"      . . < a.g.n.g.n.l 4 6 6 4 7 E g.g.g.g.g.c.g.g.c.l.M 4 4 m l.g.g.l.t.u 4 6 6 4 6 6 4 6 6 6 6 6 6 6 6 6 6 4 6 6 6 r &.r.o.8 6 s a.n.n.n.c.z 4 6 $ . .       ",
"      . . < a.l.n.g.n.l 4 6 6 6 7 E c.c.g.c.g.g.c.g.g.l.M 6 4 c l.g.l.g.u.u 4 4 6 6 6 6 6 6 6 6 6 6 6 6 6 6 6 6 7 M T F s p s L E o.n.n.n.n.n.z 4 4 $ . .       ",
"      . . < a.g.g.g.g.z 4 4 6 4 7 [ g.g.c.g.c.g.c.g.g.l.M 4 4 c l.g.g.l.r.u 4 6 6 6 6 6 6 6 6 6 6 6 6 6 6 6 6 4 7 E b.r.8 4 t r.c.c.n.g.n.n.n.z 4 6 $ . .       ",
"      . . < a.c.n.g.n.l 4 6 6 6 7 [ c.g.g.g.c.g.g.g.c.g.M 4 6 c l.g.l.g.r.u 4 6 6 6 6 6 6 6 6 6 6 6 4 6 6 6 6 4 6 c L V g s g S S E g.n.n.n.c.z 4 6 $ . .       ",
"      . . < a.l.g.g.g.l 4 6 6 4 7 [ g.g.g.g.c.c.g.g.g.c.M 4 4 c l.g.c.g.r.u 4 4 6 6 6 6 6 6 6 6 6 6 6 4 6 6 6 6 6 6 6 e =.a.o.8 4 a a.l.g.c.c.z 4 6 $ . .       ",
"      . . < a.g.c.g.l.l 4 6 4 6 7 [ l.l.c.g.g.g.g.c.g.l.M 4 4 c l.g.g.g.a.u 4 4 6 6 6 6 6 6 6 6 6 6 6 6 6 6 6 4 6 6 6 8 =.g.&.8 4 s a.g.g.g.c.z 4 6 $ . .       ",
"      . . < a.g.g.g.l.l 4 4 6 6 7 W l.g.c.g.g.g.g.g.l.l.M 4 4 m l.g.g.c.r.u 4 6 6 6 4 6 6 6 6 6 6 6 6 6 6 6 6 6 7 c S V g a g V V E g.g.c.c.g.z 4 6 $ . .       ",
"      . . < a.c.n.g.g.z 4 6 6 4 7 W g.l.g.g.c.c.c.c.g.l.M 6 4 c l.g.l.g.a.u 4 6 6 6 6 6 6 4 6 6 6 6 6 6 6 6 6 4 7 [ c.e.r 4 r a.c.c.n.g.g.g.g.z 4 4 $ . .       ",
"      . . < a.g.n.g.g.l 4 4 6 6 7 [ l.g.l.g.g.g.g.g.c.l.M 4 4 c l.g.l.l.w.u 4 4 6 6 6 6 6 6 6 6 6 6 6 6 6 6 6 6 6 M E L s y s L E &.p.c.g.c.c.z 4 4 $ . .       ",
"      . . 1 a.l.n.g.n.z 4 6 6 4 7 [ g.l.g.l.c.g.g.c.g.l.M 4 6 c l.g.g.l.r.u 4 6 6 6 6 6 6 6 6 6 6 6 6 6 6 6 6 4 6 7 7 r &.r.] r 6 s a.c.g.g.n.z 4 6 $ . .       ",
"      . . < a.g.n.g.g.l 4 6 6 6 7 [ g.l.l.g.l.g.g.g.c.l.M 4 4 c l.g.l.l.j.u 4 4 6 6 6 6 6 4 6 6 6 6 6 4 6 6 6 6 6 6 6 8 =.c.o.7 4 p a.g.c.g.l.z 4 4 $ . .       ",
"      . . < a.l.n.g.n.l 4 4 6 4 7 [ g.l.g.l.g.c.c.g.g.l.M 4 4 c l.g.l.l.w.u 4 6 6 6 6 6 6 6 6 6 6 6 6 6 6 6 6 4 6 z N N g g l N M L g.g.c.g.c.z 4 4 $ . .       ",
"      . . < g.l.c.g.l.z 6 6 7 6 7 [ c.l.g.l.g.l.g.l.g.c.M 6 6 m l.l.l.g.a.u 4 6 6 6 6 6 6 6 4 6 6 6 6 6 6 6 6 6 7 [ c.e.r 3 y w.c.c.g.l.g.l.c.z 6 6 $ . .       ",
"      . . : A ( ( ( ( d , , , , 3 n ( ( ( ( ( ( ( ( ( ` k , , f ( ( ( ( A q , , , , , , , , , , , , , , , , , , 3 n ` C 5 , 9 Z ( ( ( ( ( ( ( f , , # . .       ",
"      . . . O O O O O X X . X . X O O O O O O O O O O O X X . O O O O O O X X . X X . X X X X X . X X X X X . X X O O O X . X O O O O O O O O X . X . . .       ",
"      . . . . . . . . . . . . . . . . . . . . . . . . . . . . . . . . . . . . . . . . . . . . . . . . . . . . . . . . . . . . . . . . . . . . . . . . . .       ",
"          o . . . . . . . . . . . . . . . . . . . . . . . . . . . . . . . . . . . . . . . . . . . . . . . . . . . . . . . . . . . . . . . . . . . . o           ",
"            . . . . . . . . . . . . . . . . . . . . . . . . . . . . . . . . . . . . . . . . . . . . . . . . . . . . . . . . . . . . . . . . . . . .             ",
"            o . . . . O % + @ @ @ O X X X X O @ @ @ @ @ @ @ @ @ @ @ O X X X X X X X O X X X X X X X O O @ @ O X X @ @ @ + % @ X X O X O . . . . . .             ",
"                  . . w 1.] ] *.T q 3 3 3 , q ' ] 1.*.] *.] ] *.*.] i 3 3 3 3 3 3 3 3 3 3 3 3 3 3 3 3 k 1.] a , 3 B 1.1.] 1.C 4 3 3 3 3 & . . o                 ",
"                  . . b l.l.n.n.a.y 4 6 6 6 y e.n.n.n.n.n.n.g.n.c.l.g 4 6 6 6 6 6 6 6 6 6 6 4 6 4 4 4 m c.c.g 4 7 U c.g.g.c.o.8 6 6 6 6 - . .                   ",
"                  . . v l.g.g.n.r.u 4 6 6 4 y e.n.g.n.g.g.n.n.n.g.g.s 4 6 4 6 6 6 6 6 6 6 6 6 4 t z z z m m z l z >.l.g.c.g.=.7 4 6 6 6 - . .                   ",
"                  . . b l.n.n.n.r.u 4 6 4 4 y 7.n.n.n.n.n.n.n.n.n.g.g 4 6 6 6 6 6 6 6 6 6 6 6 4 g n.n.z 4 4 V c.g.g.g.l.g.c.o.8 6 6 6 6 - . .                   ",
"                  . . b l.g.n.n.r.y 4 6 6 4 y e.n.n.g.n.n.n.g.n.n.n.s 4 6 6 6 6 6 4 6 6 6 6 6 4 g r.r.x 7 7 N r.e.g.g.g.g.g.&.8 6 6 6 6 - . .                   ",
"                  . . b c.g.g.g.a.y 4 6 6 4 y e.n.n.n.n.n.n.n.n.n.g.g 4 4 6 6 6 6 6 6 6 4 6 6 4 7 t y c &.o.g r y [ g.g.c.c.o.8 6 6 6 6 - . .                   ",
"                  . . v g.g.c.c.r.u 4 6 6 4 y e.n.g.g.n.n.n.g.n.n.a.g 4 4 6 6 6 6 6 6 6 6 6 6 6 6 4 4 c c.c.g 4 6 Y c.c.g.g.=.7 4 6 6 6 - . .                   ",
"                  . . v l.g.g.g.r.y 4 6 4 4 y 7.n.n.g.n.n.g.g.n.n.a.g 4 6 6 6 6 6 6 6 6 6 6 6 4 r g g z N M z g g >.g.g.g.c.o.8 6 6 6 6 - . .                   ",
"                  . . v c.n.c.g.r.u 4 6 4 4 y 7.n.n.n.n.n.n.n.n.n.g.s 4 6 6 6 6 6 6 6 6 6 6 6 4 g n.n.z 4 6 N c.g.c.g.c.g.g.&.8 4 6 6 6 - . .                   ",
"                  . . v l.g.l.g.r.y 4 6 6 4 y 7.g.n.n.n.n.n.g.n.n.a.g 4 6 6 6 6 6 6 6 6 6 6 6 4 j r.r.z 7 7 N p.p.n.n.n.n.n.o.8 6 6 6 6 - . .                   ",
"                  . . b l.g.g.c.r.p 4 6 6 4 y 7.n.n.n.n.n.n.n.n.g.g.g 4 4 6 6 6 6 6 6 6 6 6 6 4 r p y m E T g p p o.n.n.n.g.-.7 4 6 6 6 - . .                   ",
"                  . . b c.n.g.c.r.y 4 6 6 4 y r.n.n.g.n.n.n.n.n.c.g.s 4 6 6 6 6 6 6 6 6 6 6 6 6 4 4 4 z n.n.g 3 4 Y c.n.n.n.o.8 6 6 6 6 - . .                   ",
"                  . . v g.n.g.g.r.u 4 6 6 4 y 7.g.n.n.n.g.n.n.n.g.a.g 4 6 6 6 6 6 6 6 6 4 6 6 4 r s p m S S z s s =.n.n.n.n.o.8 6 6 6 6 - . .                   ",
"                  . . b l.n.n.n.r.y 4 6 6 4 y r.n.n.n.g.n.n.g.n.c.g.s 4 6 6 6 6 6 4 6 6 6 6 6 4 g n.p.z 4 7 N n.a.g.n.g.n.n.o.8 6 6 6 6 - . .                   ",
"                  . . b l.g.g.n.r.u 4 6 6 4 r e.n.n.n.n.n.n.n.n.g.g.g 4 6 6 6 6 6 6 6 6 6 6 6 4 g p.p.l 6 6 N n.g.g.n.n.n.n.-.7 4 6 6 6 - . .                   ",
"                  . . v g.n.n.n.r.y 4 6 6 4 r r.n.g.n.n.n.n.n.n.n.g.s 4 6 4 6 6 6 6 6 6 6 6 6 4 r s p m G S l p s o.n.n.n.n.o.8 6 6 6 6 - . .                   ",
"                  . . v n.n.n.n.p.y 4 6 6 4 y r.n.n.n.n.n.g.n.n.n.n.g 4 6 6 6 6 6 6 6 6 6 6 6 6 4 4 4 m b.n.g 4 6 Y c.n.n.n.o.8 4 6 6 6 - . .                   ",
"                  . . v l.g.l.g.r.y 4 6 6 4 r r.n.n.n.g.g.n.n.g.n.a.g 4 6 6 6 6 6 6 6 6 6 6 6 4 7 u y m Y E l y p o.g.n.n.n.o.8 6 6 6 6 - . .                   ",
"                  . . b l.g.g.c.r.u 6 6 6 4 y r.g.n.n.n.n.n.n.n.n.g.s 4 6 6 6 6 4 6 6 6 6 6 6 4 g p.a.z 7 7 N a.a.g.n.n.n.n.=.7 4 6 6 6 - . .                   ",
"                  . . b c.n.g.c.r.y 4 6 6 4 y e.n.n.n.n.n.n.n.n.n.n.s 4 6 6 6 6 6 6 6 6 6 6 6 4 l c.n.z 4 4 N c.n.c.g.n.n.n.o.8 6 6 6 6 - . .                   ",
"                  . . v g.n.g.g.p.y 4 6 6 4 y e.n.n.n.g.n.n.n.n.n.a.g 4 6 6 6 6 6 6 6 6 6 6 6 4 r g g m M N z g g =.n.n.n.g.-.8 6 6 6 6 - . .                   ",
"                  . . b l.n.n.n.r.y 4 6 6 4 y p.g.n.n.n.n.n.n.g.n.n.g 4 6 6 6 6 6 6 6 6 6 6 6 6 6 4 4 c c.c.g 4 6 Y n.n.n.n.o.8 6 6 6 6 - . .                   ",
"                  . . b l.g.g.n.p.y 4 6 6 4 y >.n.n.n.g.n.n.n.n.n.n.s 4 6 4 6 6 6 6 6 6 6 6 6 6 7 y r c o.=.g y y o.n.n.n.n.=.7 4 6 6 6 - . .                   ",
"                  . . v g.n.n.n.r.y 4 6 6 4 y r.n.n.n.n.n.n.n.n.n.n.g 4 6 6 6 6 6 6 6 6 6 6 6 6 g 7.r.z 7 7 M 7.e.g.n.g.n.n.o.8 6 6 6 6 - . .                   ",
"                  . . v n.n.n.n.r.p 4 6 6 4 y >.n.n.g.n.n.n.n.n.n.p.s 4 6 6 6 6 4 6 6 6 6 6 6 6 g n.n.z 4 4 V c.g.g.g.n.n.g.-.8 4 6 6 6 - . .                   ",
"                  . . b l.g.n.n.r.u 4 6 6 4 y e.g.n.g.g.c.c.g.g.n.p.s 4 6 6 6 6 6 6 6 6 6 6 6 4 y l l z m m z l z >.g.n.n.g.&.7 6 6 6 6 - . .                   ",
"                  . . v l.g.g.n.r.y 4 6 6 4 y 7.g.n.c.g.g.g.g.c.n.g.g 4 6 6 6 6 6 6 6 6 6 6 6 6 4 4 4 c c.c.g 4 6 Y n.n.n.n.o.8 6 6 6 6 - . .                   ",
"                  . . b l.n.n.n.r.u 4 6 6 4 y r.c.c.g.g.g.g.g.c.n.n.g 4 6 6 6 6 6 4 6 6 6 6 6 4 7 r e c >.=.g r t [ g.g.n.n.o.8 6 6 6 6 - . .                   ",
"                  . . b l.g.n.n.p.y 4 6 4 4 t 7.g.g.g.c.c.c.g.g.n.n.s 4 6 6 4 6 6 6 6 6 6 6 6 4 g >.6.z 0 e N >.>.a.c.c.n.n.o.8 6 6 6 6 - . .                   ",
"                  . . b c.n.g.c.r.y 4 6 6 4 t r.c.g.g.g.g.g.g.c.n.a.g 4 6 6 6 6 6 6 6 6 6 4 6 4 g n.b.z 4 4 N c.c.g.g.g.g.g.=.8 6 6 6 6 - . .                   ",
"                  . . v g.n.g.g.a.y 4 6 6 4 y 7.g.g.c.c.g.c.g.g.n.g.s 4 6 6 6 6 6 6 6 6 6 6 6 4 y m m z z z z m m 6.g.n.c.c.o.8 4 6 6 6 - . .                   ",
"                  . . v l.g.c.g.r.u 4 6 6 4 y r.g.c.g.g.c.g.c.g.n.g.s 4 6 6 6 6 6 6 6 6 6 6 6 6 6 4 4 z b.n.g 4 6 Y g.c.g.g.&.7 6 6 6 6 - . .                   ",
"                  . . v n.n.g.g.r.y 4 6 6 4 y e.g.g.c.g.g.g.c.g.n.n.g 4 6 6 6 6 6 6 6 6 6 6 6 4 6 0 8 m e.>.g 8 r E g.g.g.c.&.8 4 6 6 6 - . .                   ",
"                  . . v l.g.n.c.a.y 4 4 6 3 y 7.c.g.g.c.g.g.c.g.n.a.s 4 6 6 6 6 6 6 6 6 6 6 4 4 g -.-.z t t M =.&.a.n.n.n.n.o.8 6 6 6 6 - . .                   ",
"                  . . v l.l.g.g.r.u 4 4 6 4 y r.g.g.g.c.g.g.g.g.n.n.g 4 6 4 4 4 4 6 4 4 4 4 4 4 g n.n.z 4 4 V c.n.n.g.g.g.c.&.7 4 6 6 6 - . .                   ",
"                  o . b c.c.c.c.u.i 9 7 7 7 i 0.c.c.b.b.c.c.c.c.b.c.g 5 9 7 7 9 9 7 7 5 9 7 7 5 k c.n.m 7 5 V c.c.c.c.c.c.c.=.0 5 7 7 7 - o .                   ",
"                                                                                                                                                                ",
"                                                                                                                                                                ",
"                                                                                                                                                                ",
"                                                                                                                                                                ",
"                                                                                                                                                                "
};
