/* XPM */
static char *_1ee1cc195414694c8b8c3c4bc6f8a317Up8rtjzj2svomcr[] = {
/* columns rows colors chars-per-pixel */
"32 32 118 2 ",
"   c #000000",
".  c #00000C",
"X  c #000111",
"o  c #000C15",
"O  c #00011C",
"+  c #000C1E",
"@  c #031114",
"#  c #011319",
"$  c #04191E",
"%  c #001322",
"&  c #021B21",
"*  c #091E23",
"=  c #001330",
"-  c #092026",
";  c #09272E",
":  c #142123",
">  c #1B2A2B",
",  c #002737",
"<  c #0C2C34",
"1  c #00273F",
"2  c #002E3D",
"3  c #0F353E",
"4  c #1C3337",
"5  c #242D2A",
"6  c #26322F",
"7  c #2A3532",
"8  c #2F3A36",
"9  c #2B3B3A",
"0  c #323B35",
"q  c #323D39",
"w  c #35413D",
"e  c #3B453D",
"r  c #002A41",
"t  c #003241",
"y  c #093640",
"u  c #023945",
"i  c #0A3B46",
"p  c #003748",
"a  c #003B4B",
"s  c #0B3E4A",
"d  c #1B3E45",
"f  c #123E49",
"g  c #00414F",
"h  c #0C424F",
"j  c #12414C",
"k  c #1F434A",
"l  c #034654",
"z  c #0D4551",
"x  c #0E4855",
"c  c #144753",
"v  c #154955",
"b  c #1E4C57",
"n  c #164C59",
"m  c #184E5B",
"M  c #1F505A",
"N  c #354542",
"B  c #3C4740",
"V  c #364947",
"C  c #3D4942",
"Z  c #3A4F4D",
"A  c #3E504D",
"S  c #2A4E54",
"D  c #265159",
"F  c #325256",
"G  c #34565A",
"H  c #36585C",
"J  c #2F5960",
"K  c #365D63",
"L  c #385F64",
"P  c #3D6266",
"I  c #3E6468",
"U  c #4D5F58",
"Y  c #4D6059",
"T  c #40666A",
"R  c #41696D",
"E  c #486B6C",
"W  c #436C71",
"Q  c #4D7272",
"!  c #507271",
"~  c #557878",
"^  c #66837C",
"/  c #6C867C",
"(  c #6B8A83",
")  c #6C8E89",
"_  c #718F87",
"`  c #6D908A",
"'  c #749087",
"]  c #73938B",
"[  c #79958B",
"{  c #7D998E",
"}  c #779890",
"|  c #7B9B92",
" . c #7A9C93",
".. c #7C9E95",
"X. c #7C9F96",
"o. c #7DA097",
"O. c #7EA198",
"+. c #7EA199",
"@. c #819F93",
"#. c #829E92",
"$. c #83A093",
"%. c #83A195",
"&. c #82A297",
"*. c #81A49B",
"=. c #83A69C",
"-. c #84A79D",
";. c #83A89F",
":. c #85A99F",
">. c #8BADA2",
",. c #8DAEA2",
"<. c #8DAFA2",
"1. c #8EAFA3",
"2. c #8EB0A3",
"3. c #8EB1A5",
"4. c #90B3A7",
"5. c #93B4A7",
"6. c #94B5A7",
"7. c #93B6A9",
/* pixels */
"1 K | 6.2.,.,.,.,.:.5.;.3.2.,.2.7.{ C   = P  .7.2.>.>.3.7. .I a ",
"K Q )  .} } | } } } { } [ { }  ...^ 8 o S Q )  .} } [ | ..( H t ",
"| ) E K P P P P P P P P P P P P T G o q / ] Q K P P P P T H 4 # ",
"5.| K 1 p a a a a a a a a a a a a 2   C $.*.P 1 p a a a a t #   ",
"2.} P p g z z z z z z z z z z z x u   C { O.P p g z z z x i &   ",
",.[ P a h c c c c c c c c c c v n i   B { o.T a z c c v n f *   ",
",.} P a z c c c c c c c c c c c v i   B { o.T a z c c c n f *   ",
">.} P a z c c c c c c c c c c v n i   B | o.T 2 h v v c n f *   ",
",.} P a z c c c c c c c c c c c v i   C &.%.A O s m m v m h $   ",
",.} P a z c c c c c c c c c c v m i   w ( ( 0   2 s i i i y ; * ",
">.} P a z c c c c c c c c c c c v i # : F S X             + y c ",
",.[ P a z c c c c c c c c c c v v f # : S H A C B e C e e N k h ",
",.} P a z c c c c c c c c c c c v i   q ^ ..| { { { { | %./ V . ",
",.} P a z c c c c c c c c c c v n i   C { 4.*...o.o.o.O.:.( w   ",
",.} P a z c c c c c c c c c c c v i   B { *.~ L P T T T R H >   ",
",.} P a z c c c c c c c c c c v n i   B { ..K 1 p a a a a y &   ",
">.} P a z c c c c c c c c c c c v i   B { ..I p g z z z v i &   ",
"2.| I a z c c c c c c c c c c v n i   e { O.T a z c c c n s *   ",
"7...T a z c c c c c c c c c c v m u   0 #.=.T a z c c c n f *   ",
"[ ^ F t z v c v c c c c c c v j s d 9 Y ' ) L a z c c c v f *   ",
"8 5   + s m m v v c c c c v v s % N / ' ! J b z c c c v n f *   ",
"7 8 e N d u u i c v c c v v n u   e %.-.L r g v c c c c v f *   ",
"' ' #./ 9     % h m n v v n m u   0 #.:.T p z c c c c v v f *   ",
"3.>.>.' U 0 e N d u u i i i i d 9 Y _ ) L a z v c c c c n f *   ",
">...Q E _ #.&./ 9             V / ' ! J b z c c c c c v v f *   ",
">.] D b ) -.-.' Y 0 e C C 0   B &.O.P r g v c c c c c c v j *   ",
",.} K a K T P Q ' | {  .%./ 5 q  .O.I p z c c c c c c v m j -   ",
"3.} T a a a r J ` =.*.O.>.( 6 8 [ O.I a z c c v v c v c j 3 $   ",
"4...T a l z l b P R I R W G   0 { O.T a x v n v v v m j < @     ",
"..( H t i f f s t 2 t r r , X U | ..T t i f f f j f j 3 @   $ - ",
"T H 4 # * * * * & & & & # - , L #.| Z   $ * * * * * - $   $ 3 j ",
"a t #                     $ t W O.{ B                     * j m "
};
